/* XPM */
static char *_595818158309[] = {
/* columns rows colors chars-per-pixel */
"64 64 157 2 ",
"   c #0F0E09",
".  c #0D0C07",
"X  c #120F07",
"o  c #100F0A",
"O  c #161206",
"+  c #1A1507",
"@  c #161409",
"#  c #1B160A",
"$  c #17180A",
"%  c #1D1A0D",
"&  c #1A1711",
"*  c #1D1A12",
"=  c #1F1E19",
"-  c #20160A",
";  c #231C0E",
":  c #281F0E",
">  c #231D12",
",  c #291E12",
"<  c #201F1A",
"1  c #29200F",
"2  c #252214",
"3  c #2B2315",
"4  c #2D2815",
"5  c #26241A",
"6  c #2C261A",
"7  c #2C2A1C",
"8  c #302917",
"9  c #31271A",
"0  c #322A1D",
"q  c #39301F",
"w  c #2E2B21",
"e  c #342D22",
"r  c #392E22",
"t  c #382F28",
"y  c #353124",
"u  c #3A3225",
"i  c #3F3926",
"p  c #36332A",
"a  c #3C342B",
"s  c #3D392B",
"d  c #373631",
"f  c #3E3B32",
"g  c #403726",
"h  c #403A27",
"j  c #41362A",
"k  c #433B2D",
"l  c #443D32",
"z  c #483E33",
"x  c #45402D",
"c  c #48412E",
"v  c #454234",
"b  c #4B4335",
"n  c #4B4835",
"m  c #45423A",
"M  c #4C453A",
"N  c #464B3B",
"B  c #4D4A3C",
"V  c #504436",
"C  c #514A37",
"Z  c #51473B",
"A  c #534B3D",
"S  c #584F3E",
"D  c #47503D",
"F  c #4A503F",
"G  c #54513E",
"H  c #59533F",
"J  c #4E4B41",
"K  c #504740",
"L  c #544E42",
"P  c #594E42",
"I  c #4E5342",
"U  c #545343",
"Y  c #5A5345",
"T  c #5A5846",
"R  c #565549",
"E  c #5B5549",
"W  c #565A4B",
"Q  c #5D5A4C",
"!  c #5D5C52",
"~  c #605746",
"^  c #615947",
"/  c #61564A",
"(  c #635C4D",
")  c #635D52",
"_  c #6A5E52",
"`  c #625F58",
"'  c #5F604E",
"]  c #5E6455",
"[  c #64604F",
"{  c #69604F",
"}  c #656254",
"|  c #6A6355",
" . c #6A6957",
".. c #656559",
"X. c #6C6659",
"o. c #666B5C",
"O. c #6D6A5B",
"+. c #72665A",
"@. c #726C5D",
"#. c #73715F",
"$. c #6D6C61",
"%. c #726E61",
"&. c #7A6E62",
"*. c #747263",
"=. c #7A7365",
"-. c #757867",
";. c #797867",
":. c #767669",
">. c #7B766A",
",. c #76796B",
"<. c #7C7B6C",
"1. c #7A7770",
"2. c #7B7C71",
"3. c #82776B",
"4. c #817D6D",
"5. c #887A6F",
"6. c #817F71",
"7. c #887C70",
"8. c #7E8275",
"9. c #82806E",
"0. c #848475",
"q. c #8A8575",
"w. c #858877",
"e. c #8B8976",
"r. c #858578",
"t. c #8A8679",
"y. c #868979",
"u. c #8C8B7C",
"i. c #918C7D",
"p. c #8F907E",
"a. c #93917E",
"s. c #8E8D81",
"d. c #918F83",
"f. c #8E9182",
"g. c #949384",
"h. c #989585",
"j. c #959887",
"k. c #999886",
"l. c #959689",
"z. c #999789",
"x. c #97998A",
"c. c #9C9A8B",
"v. c #9D9E91",
"b. c #A09E8F",
"n. c #A29E91",
"m. c #9FA193",
"M. c #A4A294",
"N. c #A8A596",
"B. c #A4A599",
"V. c #A8A599",
"C. c #A6A89B",
"Z. c #AAA89B",
"A. c #AFAFA3",
"S. c #B1AFA2",
"D. c #AFB1A3",
"F. c #C3BFB3",
"G. c #C6C0B4",
/* pixels */
"( C ( e.e.e.k.i.V.S.v.B.B.l.m.A.v.c.b.h.u.e.q.<.O.#. . .9.;.#.9.9.#.;.8. . .#. .<.w.e.u.k.c.c.v.D.m.f.m.B.m.D.C.u.z.e.e.i.{ S _ ",
"H i q ~ @. .( ( O.t.r.2.2.2.r.r.>.:.&.@.@.@.@.} { #.O.} #. .O.q.e.O. .#. .@.-.[ } #.#.O.#.#.*.,.0.w.8.8.<.0.y.O.Q |  .+.~ q q C ",
"c x g c ( { } O.} ) ..] ! R J R E L K K B ( #.%.B E b 7 7 a M _  .n y 7 0 n T B %.$.Q J G B U T W J I ] } o.[ )  .Q ( E b h V C ",
"C h 4 4 Y 4.0.6.B.z.B.M.v.s.$.:.6.5.s.l.c.g.6. .}  .Q B M l p w 7 y f n N W o.[  .6.g.z.j.e.6.0.,.o.y.v.B.B.z.N.q.d.9.S 8 1 q V ",
"H x C n c } 9.i.t.s.z.t.d.l.$.R E E ` +._ ` ` / l k w - - > , # & > > $ % 7 l l ! ) ) ..X.) R R R o.g.s.s.x.i.0.0.<.( k S Y c ( ",
"H H a.a.G x  .b.v.n.v.s.x.B.s.:.&.` / ` ` P t # 3 5 e r e e w < , 5 w e y y 6 2 O p L ) ` ! ` *.,.y.M.x.s.v.n.c.n.O.v Y h.i.C Z ",
"[ T e.k.8. .H O.n.n.z.v.V.n.d.6.! / / z * X 9 m p e w 6 > - > > < > $ > w e w p l e O > l ! ! ! 0.g.n.M.c.z.B.c. .L ( <.c.i.Q  .",
"' [ 0.e.a.e.F n _ c.n.n.V.n.s.R 1.K 6 < 9 j t < 3 < 9 d d t t t r p p d a w < 5 < t t w < 5 K >.R u.M.M.c.M.c. .b Y t.g.u.0.[ ( ",
"' G c.p.i.k.u.U w 1.h.t.n.` ) &.t e j l 9 < w t 9 d z m l j t p p d a l l K d w t e < e l t e p @.( } b.e.g.;.0 U t.c.u.g.c.U ) ",
"-.' p.p.u.g.b.h.$._ _ n.X._ _ > t t t e t K K j t t t t t d z z M l d e t t e w d K K t e t t p > } } } b.} } @.k.c.g.e.g.u.) <.",
"-.' y.c.z.c.c.b.n.+.X./ _ P > j e w 9 a P P K l e j z z j d a a r a t l l M l r l z Y P f 7 7 e a ; H X.( X. .N.b.g.x.l.m.y.] :.",
"#.] 8.f.f.c.g.g.n.n.Z X.Z , z t e r a M E K l K d l z l t j z M M z a t z B b k K l M Y b a r e q c 1 b O.b n.M.g.g.v.u.g.<.o.:.",
"o.] 8.j.g.x.z.z.n.&.3.z 9 z 0 , k L Z a j b b A z z j 6 3 0 u r a r r 3 7 a v v L M l h k A L j ; 4 b 8 b ;.*.n.x.g.c.f.x.1...$.",
"o.] 8.m.j.y.g.z.4.+.( : P w , z Z S M k j a j k j e , # > 9 3 # % 7 9 ; + 3 0 u z a a h k M S B c : 9 S ; (  .9.z.g.s.g.B.r.] o.",
"8.] 8.p.y.2.c.u.O.Q 3 Z j , j / A k c V k 0 3 9 3 9 , , q S } } ( ( Z q : 3 8 8 6 3 0 k M k c S ~ h 1 u Z 3 Q O.u.x.8.8.f.8.o.,.",
"] ] 8.f.l.g.n.( X.u z j 9 Z j V S Z A k 9 6 9 ; 9 z _ _ +.=.q.p.d.q.3.+.X.| b 9 % 0 9 9 k Z Z G b h n 4 u n a O.) M.x.f.l.8.! ] ",
"D D 8.m.a.j.8.8.a z j 9 A / z P l L u ; r 2 r A *.*.*.*.} B N f v f M ] *.;.:.*.J r 2 r > r L l S n Y M u j l l =.4.h.h.c.0.U B ",
"D D 8.p.a.y.#.H r Z r j / P / j Z z # y % a %.0.,. .M w 7 w 5 $ $ 5 7 7 e M o.<.0.%.y > 0 > b B s ( A Y k r l u Q @.q.d.i.y.F F ",
"D D 8.8.p.#.' q l l , _ / P Y L M > 0 ; m &.s.%.U y 2 w 7 $ $ 5 5 $ $ w w 2 y U %.t.>.k 2 7 2 n M ( U Q _ 3 j l j Q @.u.0.y.N F ",
"I D w.w.8.' x 8 z 9 l ( / _ / E , a ; b %.<...3 * 5 2 % $ 5 y y y w 5 $ $ 2 5 2 5 O.=.=.s 3 q 2 U Q ( L ( z 6 b 0 k ( 4.0.t.B U ",
"W I 8.g.#.F 0 0 9 r _ z P / +.k q 0 Y ;.>.} 2 e w % 6 J ! J K R W m N W J 7 * 7 e * O.%.q.S q q y O.Q A k X.r 0 0 9 B %.g.0.U U ",
"I I 0.u.' s 2 u , P Y _ L P Y 9 q h #.q.X.3 a 5 @ y N L J J d 5 w f K J J J y @ 2 s ; %.4.<.u q 6 E L A ( P Y - u 3 s ( i.0.U T ",
"I W 0.;.U y 3 0 3 / l &.P M e 0 3 n #.[ % y % 3 R L J l w & & 5 5 * @ w m J L U 4 + s $  .#.n 4 q 0 B Y +.k / , 0 3 e U ;.e.U I ",
"F F w.} n 3 6 3 e z / j _ j 3 7 x #.8.x 7 1 5 J m l 7 O o * * o   * * o O 7 l N B 2 ; 7 s 9.*.h 7 % i  .k Q M r 3 3 3 M  .t.U F ",
"T U e.} v ; 3 , j j / r l 9 9 , T 8.T 1 6 % U U a e > $ > 3 5 > < 6 3 * * > 7 a U U % 5 2 Q 9.Q 3 0 9 z j _ j j - 9 > v ( q.U E ",
"' W <.Q a 9 0 , g k V Z V r 3 Y #.O.4 2 2 N Q v % @ O 2 5 % & e w * * 5 5 # O > N Q M 2 4 0 O.*.L 3 e z z z z j , 9 3 a ( 0.Q W ",
" .Q @.B 9 r 9 , Z P j _ z 0 # >.j...5 4 % B v * # * $ > u l M | ) L l r 2 % % % * f N * 7 7 ..j.>.+ 0 z +.z P Z 9 , 9 0 S *.Q  .",
" .T ( v , 0 - 9 _ P z &.r 9 , q.w.v 7 * s N s % # > > 7 B Y (  .X.( R Z 7 > > % % a M l % 7 v w.t.8 9 j +.z / _ 6 - r , v T E O.",
"! U Q b 3 r , z / Z / +.9 r A q.-.7 w = $.W y * # + 0 ( O.n i C Z i C  .) 0 + # % y R $.= w w >.q.A r 9 +./ S / z , a , n Q U } ",
"( B } Y r j 0 _ +.P &.X., e _ =...w w d *.J % * % 7 B { U h h S G x h G | B 4 ; * % N *.d w w ` &.) e , _ 3.P _ _ 0 j 9 U @.Y Y ",
"T L @.U r k r +.&.+.3./ , e +.u.! = = f ! d * 6 O i E n 8 h ^ ^ ^ [ x 4 Z T y $ 5 * p ..f = < ! u.%.r : / 5.+.@.&.r j r U =.U U ",
"U U =.M 0 u q +.&.+.&.P , j q.F.2.&   d ..p 7 $ + y | | n Y #.( ^ #.H n +. .y + $ 5 p ! d   * 1.F.7.j , S 3.+.3.| 9 r e M @.S R ",
"R U %.n 9 j 9 / 3.+.3.Z , j 7.F.,.& . d ! y 6 $ + y | | n H @.^ ^ @.H c  .X.y + % 5 p ! f . = 1.D.0.z < P 3.+.3._ 9 j 0 Z &.P / ",
"L A *.Y 0 j j 3.3.+.5./ , r &.i.! < = m ..s 2 7 @ i T n 8 h ^ ( ~ { h 4 A ^ y + 7 % f ! J * < ! d.:.9 3 / 3.+.&.3.r j r P &.L L ",
"W G O.R 0 j 9 +./ P 3._ , r _ =...w w d :.K % * % 7 B { Y h h S C x i S { A 4 % * $ L $.d w y ] %.O.3 3 +.+._ / _ 9 j 9 Y +.Y Y ",
" .U E Z , r , j / z / +.3 r K 7.:.w 5 = $.R y % + + 0 ( @.n u Z C h n  .( 0 $ % * e W o.5 < w :.0.Y 7 5 &.P P / j , r , b ( Y | ",
"} U Q f , g , 9 _ / z 3.r 9 6 q.s.m w * v N s % # 2 % 7 M E ( X. .( E M 7 * 1 % % p B s 2 6 m w.t.3 6 y @.Z / _ 9 , r 3 z Q L  .",
"] Q *.F 3 9 , 9 V P j / z 9 + 3.s.] 5 6 $ M l * % > % ; e l J ) ) B k r 2 % * % 2 s I @ y 2  .g.4.O r k _ b A A 9 , 3 9 L %.Q } ",
"Q Q e.Q j , 9 , j z V Z z r 3 U #. .7 2 ; N E v % + O < w $ & e w $ % 5 2 @ O > m T N $ 5 7 #.*.S 3 r b Z b z r , 9 > u ( q.( ) ",
"W I 0.} z , 9 - j j / j k 9 0 3 T 8.' 2 7 % R U a 7 > # > 5 3 < > 5 5 > * * 6 s U G ; 2 4 T 9.T ; u 2 b j P M u - 9 3 v } t.U U ",
"F U y.} n 3 3 3 9 Z Q u _ l ; 0 h #.4.i 7 % 4 B b f 7 O o * & o o * * X @ 7 f m A 3 % 7 s 9.#.s 7 2 j _ z / z r 3 9 6 n } t.U F ",
"I I 0.-.U y 3 0 , _ l +./ V 7 r 3 C #. .% i $ 6 R U N l w $ & w 5 * # w m J U U 5 % y 1 { #.n 4 0 r M Y &.l / 9 0 3 0 U >.0.U U ",
"W U 8.p.} k 3 u - / P / L L Y 0 q i <.4.#.2 s 5 $ y N J L K f w w f K J J B y @ 2 a 5  .q.=.h 0 6 Q L Z ( P L - u , k ) p.0.U U ",
"T F 0.p.*.B 7 0 9 a _ z P / X.k q 0 G 9.@.O.% y 0 * 5 J ! J m R R m K ! I 5 % y q 2 } <.4.T 0 u i +./ L z +.r 9 0 0 B *.f.0.F W ",
"U F 0.w.0.T l 7 b 6 l ( / ( ( T 3 r 2 s ;.*.O.3 * 5 2 $ $ 5 y y p w 5 $ $ 5 5 * 2  .<.@.v ; u 3 U ( ) Y ( z 9 z 7 l Q 9.w.w.N U ",
"F N w.0.u.&.Q s k k 8 _ / Y Q Z v 3 6 2 l >.t.%.L e 2 y w $ o 7 w @ $ 7 w 2 y L $.u.&.b ; e > M M / Y / _ 6 j k h T *.u.0.w.N F ",
"N N w.u.d.e.#.( y b u j Y L ( a B z ; e < t *.6.<. .M w 7 7 2 % @ 5 7 5 y N } >.0.$.a ; r % b Z j Q L / h r n u Q %.w.a.u.w.F F ",
"F U 0.c.g.g.<.=.k z j 0 M Q M L k S r ; r , e R >.-.-.O.] D v l f v I ] %.-.*.*.L e > y % y L l Y b Y S r a z k =.4.g.j.c.w.I N ",
"] ' y.f.g.g.B.Q O.a b u 0 Z j V K A A z 9 9 0 ; 9 b | X.+.3.t.a.t.e.4.+.| ( M 0 ; 0 9 9 k A A P v g V 8 u n s O.) n.l.g.g.8.] ] ",
",.] 8.f.0.8.c.t.+.T 3 Z u , j ( Z z k V j 9 8 0 8 9 : : r L _ ( | ( C 0 ; 4 7 3 4 4 0 k b k k S ( j : g n 1 E  .u.z.2.8.l.8.o.,.",
"o.] 8.m.j.w.h.k.4.O.( ; P 0 : z z P K j j j h l u 0 ; + , 6 , - ; 3 6 ; - 3 e r v h a h k Z A M k ; 8 S : ( O.4.c.g.y.g.C.r.] o.",
"o.] 8.j.j.z.z.h.b.*.3.b 9 V 9 , l P K j k z z M b z j 9 9 r t t 0 u r 6 3 u l M A z l j s A L j : 4 b 8 b 4.=.M.z.z.x.s.x.,...$.",
"-.] 8.p.p.j.j.g.n.n.M +.z , z r t t j m P K j K a z M l d j z K b z l a l l K j M a b R z f t w q b ; n +.B n.b.g.g.v.u.l.2.o.-.",
"8.' w.m.j.c.k.v.n.X.X./ +.P , j w 9 6 j P P K z t z K z l j t t a r p a z z d e z J R P p w 6 e u : H  .( X. .M.b.g.v.g.m.y.] *.",
"-.H p.p.p.j.c.k.&.) _ n..._ _ > t t t w d K K j t t t t t t l z z l p e t d t e l K K t t t p t ; ) } } b. .} @.z.c.g.q.g.i.! ,.",
"' D j.p.p.k.p.G 7 >.h.s.n.) _ %.t t j l 9 < t t 5 t z z l d j d t p f l l l t e t e < w l j e t %.( } b.q.g.=.7 U u.c.q.g.c.R ! ",
"[  .q.e.a.e.U B } c.n.n.n.n.d./ 1.K < < e t t < w > w t a a a r d p p p a w < w 5 r p 6 < 6 J :.R s.M.N.c.b.z.} B A e.g.t.q.} ( ",
"' H u.c.<.} U O.c.N.v.c.V.n.l.7.) ( / z > @ w l t e e e < & > < < > * < w e w t m w o > m ! ! E 0.g.c.B.c.c.N.b.O.U } 4.c.u.T ( ",
"C H a.a.U c  .c.c.n.c.s.v.n.s.1.=.` E ) ) P t & > 6 e p r r 6 2 > 3 w e p r 6 * @ y L ( ) ! ) :.:.t.M.x.u.c.b.c.c. .k Y h.a.Y U ",
"G x G n v } 4.i.t.u.c.s.d.d.$.R R E | O.` _ ) / z l 6 # % , > % > > > # @ 7 f v ! ) ) } X...E R R o.f.f.u.c.u.0.d.4.) v V S k Y ",
"C h 4 4 Y 9.q.4.B.v.v.A.n.s.$.1.0.4.t.g.x.g.6. .` X.E M m x y y u y x N N Q O. . .9.g.k.x.t.<.8.:.o.y.v.M.M.l.B.4.q.5.S 4 0 k S ",
"n x q x ( { [ O.` ! ! ] ` R J R Q G L A A ( @.#.K E N y y i n }  .N u 0 y M E N #.O.Q F B A U W W N R ! } ..} Q @.[ _ / k u k c ",
"H i q H @.| ) E $.q.2.1.2.2.2.2.;.#.*.#.@.@.@.} [ #.+.O.#.@.#.e.0. . .#. .@.O.Q [ #.#.O.*.*.*.,.y.8.,.2.<.y.y.@.T [ { @.~ g h H ",
"{ C [ e.i.i.c.u.Z.A.v.B.C.l.A.A.b.c.b.k.u.t.e.;.@.*.}  .<.;.#.9.w.#.;.8.O. .*.#.8.0.e.p.k.c.c.m.D.m.f.m.B.v.S.C.u.k.e.i.i.{ C ^ "
};
