/* XPM */
static char *_595817960580[] = {
/* columns rows colors chars-per-pixel */
"64 64 164 2 ",
"   c #040100",
".  c #080402",
"X  c #0D0A03",
"o  c #140E06",
"O  c #1B0F03",
"+  c #120F0A",
"@  c #1A0F0B",
"#  c #1B1204",
"$  c #15120D",
"%  c #1B140D",
"&  c #1D180E",
"*  c #151611",
"=  c #1B1611",
"-  c #161C13",
";  c #1D1B15",
":  c #1D1E19",
">  c #250E00",
",  c #231305",
"<  c #241905",
"1  c #23150C",
"2  c #28170D",
"3  c #241A0D",
"4  c #2B1B0D",
"5  c #331C0D",
"6  c #3C1C0D",
"7  c #221611",
"8  c #231B14",
"9  c #2B1D13",
"0  c #221E19",
"q  c #2A1E19",
"w  c #321E13",
"e  c #1E2015",
"r  c #1E211B",
"t  c #2F220F",
"y  c #242017",
"u  c #2C2216",
"i  c #24221C",
"p  c #2B241D",
"a  c #2C291E",
"s  c #332215",
"d  c #3A2414",
"f  c #3A2814",
"g  c #33241B",
"h  c #39261A",
"j  c #34291D",
"k  c #3B2A1C",
"l  c #3F301B",
"z  c #252621",
"x  c #2B2621",
"c  c #272A23",
"v  c #2D2A24",
"b  c #2D2D29",
"n  c #322721",
"m  c #322C25",
"M  c #3B2D23",
"N  c #332E29",
"B  c #3A2E29",
"V  c #2E3025",
"C  c #2E302A",
"Z  c #343126",
"A  c #3B3126",
"S  c #34322C",
"D  c #3A332D",
"F  c #3C392E",
"G  c #353631",
"H  c #3C3631",
"J  c #363832",
"K  c #3D3A33",
"L  c #373739",
"P  c #3D3D39",
"I  c #442B17",
"U  c #4F2A17",
"Y  c #422C1D",
"T  c #4B2F1E",
"R  c #542F1D",
"E  c #43311F",
"W  c #4F341F",
"Q  c #52341D",
"!  c #5B311D",
"~  c #5C3A1F",
"^  c #422E22",
"/  c #402F28",
"(  c #443224",
")  c #4B3324",
"_  c #4B3924",
"`  c #44352C",
"'  c #4B362A",
"]  c #43392D",
"[  c #4D3A2C",
"{  c #533624",
"}  c #5A3622",
"|  c #543A25",
" . c #5B3B25",
".. c #523729",
"X. c #543C2B",
"o. c #5A3D2B",
"O. c #423732",
"+. c #4A3731",
"@. c #423B34",
"#. c #4C3C33",
"$. c #433E39",
"%. c #4A3E39",
"&. c #533E32",
"*. c #5A3E30",
"=. c #533E38",
"-. c #603620",
";. c #633B23",
":. c #633E2A",
">. c #3F413C",
",. c #56412C",
"<. c #5C412D",
"1. c #434036",
"2. c #4E4134",
"3. c #45423C",
"4. c #4A443D",
"5. c #4B483F",
"6. c #544133",
"7. c #5C4333",
"8. c #5F4934",
"9. c #54423A",
"0. c #5C463A",
"q. c #5D4A3B",
"w. c #6A4224",
"e. c #61422D",
"r. c #6A452C",
"t. c #624633",
"y. c #654935",
"u. c #684833",
"i. c #61473A",
"p. c #644A3B",
"a. c #454541",
"s. c #4A4641",
"d. c #474842",
"f. c #4C4A44",
"g. c #4D4D49",
"h. c #514745",
"j. c #514C45",
"k. c #5D4C42",
"l. c #524E49",
"z. c #4E504B",
"x. c #525047",
"c. c #54524C",
"v. c #59544E",
"b. c #555552",
"n. c #5A5651",
"m. c #545952",
"M. c #5C5A54",
"N. c #575759",
"B. c #5D5D59",
"V. c #6A5041",
"C. c #625B55",
"Z. c #635E5A",
"A. c #5F605B",
"S. c #64615B",
"D. c #69645D",
"F. c #646361",
"G. c #6B6762",
"H. c #6D6A64",
"J. c #706963",
"K. c #716D6A",
"L. c #75726B",
"P. c #807D74",
"I. c #858279",
"U. c #9D9693",
/* pixels */
"D @.1.3.k.$.m D %.9.B D #.@.n D K 1.v d.f.c.z.J 3.>.5.>.J >.K F >.Z Z F H H K H 3.b.J.n.l.O.H x B %.B O.$.4.M O.$.$.N b $.P G L ",
"j.F o 1.s.%.% D j.H 9 O.h.O.8 +.3.C c H >.5.S v 3.J >.Z S 1.>.J V >.K v S Z i x N h.l.` $.m n H h.B 7 ` h.O.8 H l.@.$ $.$.$.@ L ",
"v.4.f.v.s.l.v.n.j.h.c.C.h.l.C.Z.1.m H v V K S 1.1.Z F 3.5.K a i Z S S F H H H K $.G N N @.N H h.h.h.l.C.s.l.v.n.h.f.c.C.h.g.n.C.",
"  p Z.] . n D.$.. m C.@.. M Z.$.  a c.K >.F 1.1.  e >.5.4.3.J H F i K >.; S c.H g.x H $.x H c.s.. p C.#.  A S.H   i Z.L   x G.$.",
"7 f.C.n.0 l.Z.h.z l.D.s.8 s.Z.f.i 5.v.x.n.f.n.j.X 4.S.S a H K F b Z j.H + S A.>.g.c.F.N.G g.F.a.8 4.C.j.a x.D.3.0 f.M.c.: z.A.c.",
"J.c.7 $.J.N.q a.G.n.x $.G.l.z s.H.c.i Z x.1.5.4.v.M.c.x.S.H.M.D.f.5.H 3.M.c.f.B.N.N.P a.N.g.b L D.j.a 3.L.n.i 1.H.c.i 3.F.b.: a.",
"Z.B . q G.B . z M.H   x B.G   v n.S X p 3.S $ i c.a X p 4.S X ; x.S X x M.S X c g.L   z N.L   z M.F   x Z.H   p D.S   r H.b   z ",
"v.C.h.Z.v.n.$.g.b.l.3.l.l.b.3.g.S.f.$.x.M.c.m l.S.c.3.3.n.x.K x.n.j.K 3.B.l.J 3.N.g.L g.N.N.L g.n.x.1.f.c.v.3.f.B.c.F m.c.B.3.s.",
"h.h.l.s.s.s.s.4.s.s.h.a.$.3.s.h.f.4.4.f.4.4.s.j.s.4.4.3.3.4.4.s.4.d.d.3.$.a.3.P P 3.a.a.s.a.a.P 3.5.d.3.4.d.f.f.j.5.4.5.5.3.4.4.",
"$.3.%.@.H H K H H H K H G H L H H H H K H D S H $.@.K K K K $.$.K 1.@.H P K P S S L L H L K L H H H K @.$.1.1.1.1.@.K H @.F F 1.",
"m N m v x x n x n n x q q x x q n v n N Z x x x x x x x x n x v v c v x x x z i 0 i 0 0 0 x x i a z x m m m x a a a p i u i u a ",
"= = = % = 1 ; 7 8 7 7 @ 7 @ 1 @ % $ % ; ; % $ % * # % = % = % % * * $ $ $ $ + o + o @ o o @ # $ % $ $ % = $ o o o o # # % # % # ",
"H F K ] ] ] F ] ` O.+.O./ O.+.+.O.H O.O.O.D D H S D O.H H H H H H G S S S N m n x n M M M A ( M $.D Z S S N n n j N D ] ] F ] ` ",
"@.@.1.3.1.F D ` B O.#.+.+.+.=.=.%.%.$.$.@.H @.$.H D H O.@.O.@.O.K G G J H S Z Z p M A A ( ] ] ` 3.` B B N B n M n A ] #.#.#.#.] ",
"F F 1.1.#.D A A ` #.=.#.+.=.=.=.B N N A B N N A H H O.@.@.@.@.P 3.P P K K H A A A ` ` ] ] [ 6.2.D m x n m n n m A ` 2.$.#.#.#.#.",
"a a V A D j j j &.&.&...+.=.+.O.0 i i x m g g M ` ` O.` O.O.@.@.P J G H F Z N M [ &.[ ' ' &.6.#.p = $ 8 q 9 9 g ` &.6.#.] #.2.2.",
"r r a a u f Y ..W <.<.' &.q.+.7 i : r a s 4 I *.{ ....` ` +.@.J K C V F A j ( 7.7.o.o.7.q.6.A 4 0 + * i 9 , w ....{ ) _ X.2.[ F ",
"c i i p j E | <.t. .| ,.&.` w 7 - r e & s ) o. . .} ....&.O.H S c v a a k ( o.o.7.<.X.&.6.[ j & = i i 7 1 d ) { { ) ) ..X.[ l u ",
"z i y u l _ ,.,.e.| | X.' 4 1 8 * - ; < k 0.y.}  .} { ' ` B B B x a u u ( ,.7.<.o.<.7.X.( j u % ; i y 1 w ' X.) { { { _ ( k u u ",
"a p j M ' | ,. .| <.X.E 9 2 7 7 % # < h X.8.<.o.{ { ) ^ w g N H m u 9 A ' X.o.0.o.t.q.' g 3 & 8 y 1 1 h ' *...{ ) | ..^ u 4 a Z ",
"u k ] ,.,.<.<.o.| <.) 5 , 8 q 1 , , 5 ,.y.<.,.,._ | ( s 9 n B B j f g ' &.X.7.y.7.7.[ ( u % 7 8 4 2 w ' *.o...o.*...+.h 9 8 m H ",
"s E ,.,.o.,.<.| <.Y 4 , 9 9 7 1 > 5 T <.t.8.,.,.| ( d < 9 / B n j ) _ ) ..t.p.7.p.[ j g g p 8 % , d o.t.o...*.*.*.+.Y g g m m v ",
"I | <.<.| o.o.| X.d > 2 9 7 % 1 6 U ,.<.<.<.~ _ l t < 9 n M M n ^ X.o.{ X.t.p.7.,.( g g g p 0 3 d  .y.t... .*.*...^ g g n N m x ",
"<.e.y.<.| ,.<.,.d s 4 1 1 % 3 9 } ! ~ ~ ~ ,._ E < O , h M q g ' *.} { X.o.&.7.q.^ A M M y ; 8 g |  . . . .*.X...w h g q n x m B ",
" .<.u.,.<.<...d s f 9 1 # & p ( R } ~ R Q ,.f # < # # t g 9 ^ =...:.:.*.t.i.X.h s h M h 7 % p #.{  . .} o.o.) s h w 2 q g q B =.",
"w. . .e.0...k s j u 8 1 9 j ( [ } ! }  .| f t < # y 3 < u ( =.o. .t.t.i.*.' h w 2 g g 8 3 M +.&.o.o. .{ ..' Y 5 w g g 9 q h +.+.",
" .o.,.<.X.^ w q M u 3 8 j [ [ ,.Q Q | o.Y , O 9 & u u 3 f &.i.X.*.*.i.*.) w 2 2 9 9 9 , s ` 6.X.{ o...) Y h w 1 7 q q q h +.=.+.",
"Q e.y.| h h n x S n p g A [ 2.[ Q | { I 4 , , 7 9 9 s k ' o.o.<.o.*.o.) h 1 2 7 q 9 2 g ^ ) { X.R ....Y 4 , 3 8 9 > > g +.*.*.=.",
"<.y.*.^ u p n b S S ` ` ] [ ,.[ X.,.l < # 3 8 7 ; 3 h &.7.{ | o.*...^ w 9 q 9 8 7 9 h ) ..{ o.:.*.../ g 4 3 7 9 3 3 g _ *.*.:.u.",
"V...k M B m b S H 3.4.4.2.,.,.,.,.A t # o & = = 7 g ` =.<.o.~  .*.` h 9 8 g x 9 9 M &.X.} :.:.-.0.O.w 7 y p i & & A 6.,.}  .r.r.",
"0.Y h M H H L L g.s.s.9.6.,.| ,.1.j < & 8 8 0 q n ` =.*.| o.~ Q ) n g 9 p n p p B =.*.*.} :.;.-.' M 9 8 i p i y a #.q.,.Q  .w.:.",
"k A ( A H %.s.g.b.l.s.%.2.2.[ _ f a a y a v N n $.%.=.*.X.{ Q { h w 9 n n q p m %.=.+.*...} }  .g p x p i i v D 1.] ' ,.<.w.;.;.",
"A M A F 4.5.j.d.a.a.$.@.@.O.O.D Z Z m Z Z Z S H @.#.%.2.%.+.^ g p j Z Z j g M D #.&.=.=.*.&.) ^ g a a a p j ] j.#.' ' X.7.0.| T ",
"Z l Z F [ 1.1.@.4.$.$.P P P H L H F F 1.$.#.3.4.@.@.O.@.#.O.B m D S A F ] 1.2.q.=.=.9.9.=.#.O.` N m j Z ] %.9.k.9.6.&.&.#.[ ( ^ ",
"Z j j j Z A S Z S S N N b b b b Z v Z S D D D D Z m n n x n n x j a y a A ` ] +.M / / B M n h g V y y a A D / M M ^ / Y g s f g ",
"] F Z A F O.@.K D S G N b N b N v Z Z S D S Z Z m n p a a n n x S a a j D D D D B B ` B n n B B S Z Z Z H O.( M M M M j h g j M ",
"j a a u v m Z Z v v x v x x c x a v v v v v x p i 8 0 8 q q 8 q 0 0 0 p x p q q q q q q y y i c i a v x x n m n n j j p p p p j ",
"1.K F 1.1.1.@.1.@.K H P P L P L K 1.1.1.@.K H S A H D H H D B S N B N H O.D D H N B B B Z Z J >.V J 1.H Z Z S H 3.$.@.@.$.2.4.4.",
"1.1.4.4.4.3.3.1.$.P K P $.$.$.P $.3.3.$.K @.K H K H @.@.H D D D H H L %.s.s.%.%.$.%.3.3.3.3.>.d.1.d.f.3.$.K @.@.$.$.3.1.3.3.5.f.",
"5.5.4.x.j.f.f.4.s.s.3.s.s.s.s.g.s.j.f.d.s.s.4.$.@.@.@.@.O.H B B G N B H $.$.$.$.s.s.3.a.d.d.d.d.a.f.f.f.s.g.s.a.f.f.f.d.5.5.4.5.",
"f.m.5.z.d.f.d.f.g.g.l.l.l.l.g.h.f.d.g.b.l.s.s.s.H $.@.$.H N L U.U.$.x P @.$.3.L s.$.h.a.>.z.m.d.a.c.g.f.m.z.>.z.l.g.z.g.g.>.m.z.",
"4.5.c a r a c V x x x z z x z x z i : ; - 0 x G L $.3.$.N $.O.b.P H f.f.D N B O.s.x 0 b r r r r x S v i b c z c z i c z r r L P ",
"m.z.C S C S b c b N N N v b N N S S G S b v b v $.x L $.H $.L q 0 S @.3.$.P S $.L 0 z G G C C >.G K J S C C V c C C J C C b m.B.",
"5.>.i C C S v z b N G L N N N N c z x S N z = + @.D s.L $ ; B b L m $ : x $.$.N = q b b V V C G P K P P C J J c b c C c z : a.z.",
"z.a.z C J J G C b b b m x x b b S z z b c z C >.N.h.N @ 0 0 P H $.H i a X x 4.m x m Z S S S C S S S S S V G G c b b L L b ; >.g.",
"a.P : c b b z c S b x x b m b b b c b x 0 0 P F.Z.b = b G.H K a.f.G H H.S % x A B x ; i V S S F S S V V V V c C c z b b b ; L a.",
"a.>.z C C C c C z i z q q x z 0 z b b c z b K g.x ; @.N.K.= H H.l.a i I.S.a % p 4.4.A p v V V S V a i i V i - r b r z x b 0 O.s.",
"g.a.: c c b J f.b x b S H L x 0 z c z 0 b $.L z = b c.s.s.* x.C.f.K y L.P.C.Z & N h.4.y y v V Z a Z V J d.>.z G G z q z b q a.h.",
"N.g.: b 0 z H b x H f.f.O.H S p y r r J S C ; ; i 3.J 3.>.* d.M.n.z.e L.c.x.v.a $ Z 1.Z ; r c a a F O.D @.x.j.v i @.p i x 8 3.c.",
"3.z.c 0 x z 0 x 8 x @.4.@.O.Z 8 * a Z 3.>.J ; + e 5.F J K y f.m.A.x.e M.>.S >.; X c >.H v a ; & F F ] @.3.$.] Z i y y v e a x.3.",
"b.N.P = i = ; b x 0 8 8 8 i m m x S m x y i y ; F x.K J @.i d.c.c.x.i x.4.4.S.c.$ y p i e y i x H A Z m m p x m a % ; 8 - J M.z.",
"c.g.Z.g.3.s.b.l.N 0 0 i m @.j.x.x.n.x.4.1.f.f.3.x.f.K K 5.i H c.x.x.S 1.x.x.H.D.3.d.f.j.d.3.f.f.B.v.3.m 8 0 x N 3.f.x.d.x.A.5.3.",
"b.g.B.d.>.d.M.n.4.m e y y v 1.d.x.x.f.3.5.c.B.n.c.d.K K 4.a v 4.d.5.F H f.f.n.v.x.l.f.d.3.K $.4.l.$.b = $ ; b P a.c.m.d.x.c.a.d.",
"b.m.b + z : z P B.3.v y & y F 1.c.x.x.d.f.5.c.n.3.4.3.S K S S K H K J H j.n.x.d.x.f.3.3.1.K 3.5.s.v ; : x b P b.b 0 z z - V m.m.",
"d.d.- ; b z : c ; ; i v i a v v F 1.n.S.S.F S D Z K f.m K K S F D S m S 3.x.K a S Z H 4.l.j.1.H a.c ; z b z r : : : z G - r z.f.",
"S.a.* b c z N ; e i Z J a v Z Z S D v.S.B.v m $.x v 3.Z K S y S v i a S 3.B.1.x H S Z H d.f.d.@.H G b C $.a.b * * S r v b r 3.B.",
"N.z.b ; x z : z x.C Z S y v K F S i f.4.B K S D x N S = H S x m Z S v S 8 l.f.H @.S B m G 4.$.$.b C C S P J J J r c : z i z d.N.",
"B.N.g.h.b.l.b.F.c.F H K v v F F 1.m $.v i K H H x N N 8 S N x N H H Z N = h.f.H H S @.S m N H 3.G C c C P P J >.g.b.g.m.g.a.m.A.",
"F.M.h.l.h.l.l.b.d.S N @.Z v F 4.h.D H m B @.S K H f.$.% x 4.s.@.H D N x $ $.O.m H S O.@.@.$.@.3.P c z C P J S a.g.b.c.M.l.3.f.l.",
"B.$.L L s.l.h.$.1.m x D Z Z 2.j.h.N N N K K S h.x D m X = O.@.D D v p i = Z v x N n S S K $.S m P J C S >.S S P 1.P P 3.3.H $.f.",
"b.K b D a.l.h.$.%.H D D D O.$.] H B N m B S O.v.O.v N %.4.@.B 4.S x n S N S x B n A $.S A @.Z m D >.K H K J S F H N B S S S O.f.",
"$.H N S $.O.B N D O.O.O.%.@.( n n O.4.H m Z @.@.A p B $.@.S x O.D m A $.$.` n H D D @.S @.j.4.@.v 1.3.P H K F F H Z S Z N S B O.",
"B L L B %.$.L O.B B O.O.%.O.B m m @.l.l.@.S D v B S H B p @.S B D B D H @.K B D H x B @.l.c.1.H j >.>.>.1.F F @.3.O.$.D ` 3.S O.",
"O.%.L O.h.h.B $.O.O.O.%.%.B M O.@.v +.C.s.B +.$.H H $.s.H h.@.@.D H O.N H $.A S H B h.C.C.s.J 1.F F F F 3.F S 1.O.D @.B A 4.H +."
};
