/* XPM */
static char *_595817952059[] = {
/* columns rows colors chars-per-pixel */
"64 64 256 2 ",
"   c #050300",
".  c #0C0200",
"X  c #0D0B01",
"o  c #040900",
"O  c #130300",
"+  c #1A0500",
"@  c #140B01",
"#  c #1B0C00",
"$  c #180D0B",
"%  c #0C1207",
"&  c #141202",
"*  c #1C1301",
"=  c #1D1A03",
"-  c #15140C",
";  c #1C140A",
":  c #1C1A0C",
">  c #151808",
",  c #1D1C14",
"<  c #1E1D19",
"1  c #171814",
"2  c #0D1811",
"3  c #230D00",
"4  c #280C00",
"5  c #231301",
"6  c #2A1501",
"7  c #241B02",
"8  c #2B1B01",
"9  c #241D0C",
"0  c #2A1D0B",
"q  c #23150C",
"w  c #331C01",
"e  c #371C07",
"r  c #241D13",
"t  c #2B1D13",
"y  c #231D19",
"u  c #241916",
"i  c #311E11",
"p  c #1E200C",
"a  c #1D2113",
"s  c #1F211A",
"d  c #252104",
"f  c #2C2204",
"g  c #24210D",
"h  c #2B220C",
"j  c #2D290A",
"k  c #342303",
"l  c #392401",
"z  c #3C2A01",
"x  c #33240B",
"c  c #3A240A",
"v  c #342C0C",
"b  c #3B2C0C",
"n  c #342C03",
"m  c #3B3309",
"M  c #232113",
"N  c #2A2313",
"B  c #23231B",
"V  c #2B231C",
"C  c #2C2A1C",
"Z  c #292917",
"A  c #332414",
"S  c #3C2C14",
"D  c #342B1B",
"F  c #372A17",
"G  c #3B3417",
"H  c #2F3213",
"J  c #252421",
"K  c #2A2521",
"L  c #2B2A24",
"P  c #372B24",
"I  c #3C3221",
"U  c #36312D",
"Y  c #293028",
"T  c #442C01",
"R  c #482900",
"E  c #432A08",
"W  c #473508",
"Q  c #533C0A",
"!  c #432E13",
"~  c #433314",
"^  c #4B3615",
"/  c #4B3A13",
"(  c #44341B",
")  c #453C1B",
"_  c #4C3C1B",
"`  c #483917",
"'  c #533E1C",
"]  c #563C18",
"[  c #443323",
"{  c #4C3B23",
"}  c #4B3B2A",
"|  c #463927",
" . c #543E25",
".. c #5C3D24",
"X. c #513C28",
"o. c #493E31",
"O. c #4B362B",
"+. c #603F20",
"@. c #3E4323",
"#. c #5C450D",
"$. c #4C4215",
"%. c #4D421C",
"&. c #44411C",
"*. c #534314",
"=. c #5B4413",
"-. c #53431C",
";. c #5B441C",
":. c #544A1C",
">. c #5C4A1C",
",. c #5B4A15",
"<. c #584D14",
"1. c #634B15",
"2. c #62441D",
"3. c #634B1C",
"4. c #6A4D1C",
"5. c #644514",
"6. c #64521C",
"7. c #6B541D",
"8. c #675518",
"9. c #75551B",
"0. c #6B4B12",
"q. c #77631D",
"w. c #4C4123",
"e. c #4D422A",
"r. c #44452A",
"t. c #544323",
"y. c #5B4423",
"u. c #554A23",
"i. c #5C4C23",
"p. c #54432B",
"a. c #5B452B",
"s. c #564B2A",
"d. c #5C4C2C",
"f. c #5D5225",
"g. c #5C522C",
"h. c #5C5922",
"j. c #4E4533",
"k. c #524533",
"l. c #544B34",
"z. c #5C4C33",
"x. c #594A37",
"c. c #5C5232",
"v. c #5A5537",
"b. c #624424",
"n. c #634C23",
"m. c #6B4C23",
"M. c #62452A",
"N. c #624C2C",
"B. c #6A4D2C",
"V. c #684724",
"C. c #714E26",
"Z. c #645325",
"A. c #6B5424",
"S. c #6D5B23",
"D. c #63532B",
"F. c #6B532B",
"G. c #6D5A2C",
"H. c #655A2A",
"J. c #725425",
"K. c #725B24",
"L. c #72552B",
"P. c #735C2C",
"I. c #7A5E2C",
"U. c #7B5A26",
"Y. c #624D34",
"T. c #664C36",
"R. c #645333",
"E. c #6A5434",
"W. c #6C5B34",
"Q. c #63523B",
"!. c #6C5B3A",
"~. c #665A3A",
"^. c #745534",
"/. c #735C33",
"(. c #7B5E33",
"). c #735E3C",
"_. c #775739",
"`. c #744F33",
"'. c #74622D",
"]. c #796429",
"[. c #6D6235",
"{. c #6D633C",
"}. c #736234",
"|. c #7B6433",
" X c #7C6A33",
".X c #73643D",
"XX c #7A643C",
"oX c #7C6B3B",
"OX c #736A37",
"+X c #7E713B",
"@X c #70652C",
"#X c #5D5745",
"$X c #6B5B43",
"%X c #685643",
"&X c #735E43",
"*X c #73574A",
"=X c #6B6647",
"-X c #746443",
";X c #7C6343",
":X c #7C6C43",
">X c #75634A",
",X c #7B6C4B",
"<X c #766A48",
"1X c #7C7243",
"2X c #7D754A",
"3X c #7C6C53",
"4X c #766A52",
"5X c #7C7253",
"6X c #7C7857",
"7X c #81573C",
"8X c #84662A",
"9X c #826B3C",
"0X c #846937",
"qX c #84723D",
"wX c #8A7739",
"eX c #91753C",
"rX c #845C1F",
"tX c #826D43",
"yX c #836C4C",
"uX c #866A49",
"iX c #837345",
"pX c #85734D",
"aX c #8A754B",
"sX c #8D7A4D",
"dX c #8A7745",
"fX c #947B4A",
"gX c #876B53",
"hX c #837353",
"jX c #8B7453",
"kX c #887A58",
"lX c #937C54",
"zX c #947C5C",
"xX c #957A55",
"cX c #887A63",
"vX c #957D62",
"bX c #916E41",
"nX c #8F803F",
"mX c #96824A",
"MX c #888458",
"NX c #998657",
"BX c #918A55",
"VX c #A58B52",
"CX c #8A8564",
"ZX c #978866",
"AX c #9B956A",
"SX c #9D8C7A",
"DX c #A28964",
"FX c #A89768",
"GX c #A79473",
"HX c #B99B67",
"JX c #B5A87B",
"KX c #B8AE77",
"LX c #C5A972",
"PX c #B5A985",
"IX c #C8B48E",
"UX c #CEBAA1",
/* pixels */
"_.E._.dXA.@X+X[.!.5X>X=X<XW.Z.A.3.S.}.[..X1X2X:XpX|.9XA.mXK.=.|. X8.7.wX3.|. X:X:X.X<X[.[.OX7.3.6.OX[.{.>X,X3X.X.XqXS.|.lXF.^.B.",
"_.7XF.2.z T $.i.` f S 8 ~ W.i.>.n.F.i.~ n v S b l / T T m.|.A.W.|.Z.'.3.z T W l b b m k ~ D.A.Z.:.f.D.b S S 8 t.H./ W z Z.(.E.^.",
"b.V.R l Q H.[.,Xw.@ @ . O { w._ ~ ^ b # . @ + O S >XE.! e ^ M.N.E.] ^ w ! E.Q.( O O + . # ~ ^ ^ / _ ( . O 3 + z.kX.X}.z T Q ^ b.",
"/.;.l z f.{.:.) & o . . . . 7 5 3 5 # + + # @   O O.&X .( c p.!.-X{ e !  .&XS O   @ @ @ @ 5 5 3 @ h +       @ 5 _ W.[.,.T l ] G.",
"] w z *.f.u.m d o @ . $ ; @ A k.p.| [ | o.o.[ P O # %X%X%X( 8 a.p.e ! Q.*Xz.# . A I o.k.{ [ { e.k.D @ $ $ @ ; @ 7 ) u.Z.*.z z *.",
"}.z i.H.%.v 7 o X   $   $ u $ x.$Xz.p.p.k.j.o.O.t . 0 | ( ( 5 gX3X8 ! ( } 5 . # I } k.x.k.e.c.%X#X@ $ $ $ , o @ @ = &.u.g.Z.z [.",
":XE g.u.v = &       K y J K   @ e.c.~.z.a.s.l.e.( #   @ O O . kXaXO O . @   # N w.l.p.s.d.c.R.e.@   1 J K L X X X @ v v u.c.k 2X",
"<X_ R.( = X o X & - , J , y K X * %.W.d.w.d.s.w.| H f 7 f 5 8 sXaX7 7 f 5 j h ) { d.w.%.d.d.%.*   B y , < < y $   =   = e.c._ pX",
"3Xc S 0   @ X   < s M B y M M M X 5 %.{.i.R.s.l.l.v.r.D b 8 # NXNX* 8 v D r.l.v.Q.w.D.d.c.s.*   : a M a M , a < $   r   6 ( S 3X",
",XA 7 . X   X < s a a M : M g 9 h @ + R.-X~.<X} D 9 > X * $ O sXyX+ # @ X - M H p.$XY.!.D.5 . 9 g p B a a , B M y -   ; # @ x CX",
"3XS +   $ $ , y s a a p : 9 9 g 9 5 3 + Y.&X6 5 X   % @ = h 6 zXxX6 7 : - $   @ + A Q.T.3 . h ; g g g g g M M B 1 U $ O @ q } hX",
">XS . +   u K - B M g p g h g r ; I 7 O w O O 3 $ 1 < V r 5 6 uXgX6 # r L s $ , # + 4 6 O # A t M g M g g g r y y u y . @ + ~ ,X",
"XX_ 3 # . $ V B M M 9 g g h N r M h + ! jXe O i V K 1 L r * ^ gXgX! 0 ; B J J V A + w uXO.O t 9 r M g g g 9 g N K q V + + # %.:X",
"|.}.' 7 | $ @ P M g : g N N t r 7   Y.vXDXxX^ . * B > y h p.gX9XuX).z.= 1 J B = O E DXjXzX!.  9 9 r N M g 9 9 r y y # [ x D.:X'.",
"8.'.Z.3 %XI O @ r 9 9 g h t u ; = -XsXfXU.(.tXb * : Z > * [.9X5.4./.D.d = a g * b dX(.(.uXyX-X= ; , 9 r h r t r u # N 3X` }.].7.",
"8.K.n.@ %XcXI X f g 9 9 N r ; * 5XjXoX/.J.eX|.kXf o d d = Z.A.].I.P.t.8 d = = f kXXXI.I.4./.5X!.@ ; r h h g h h + G SX3X# D.@X8.",
"8.G.a.+ T.*X-X] @ 7 h # K g & =XiXoXL.F.A.A.W.-XkXx . 8 7 D.H.G.P.W.t.5 j @ v jX:X}.A.A.m.T.^.-X=X& & M 9 7 n   ^ jX-X&X8 E.G.3.",
"1.G.z.q o.T.oX XW . x V t o MXBX'.F.A.A.F.Z.D.W.$XcXx O 8 N.G.n.n.W.;.w # 8 sXtXG.A.n.n.M.V.T.T.,X6XX = 0 S @ Q iXBXB.T.w T.G.3.",
"'.H.G 3 O.a.Z.S. X] O 3 q &XMXS.6.3.3.V.B.n.M.N.y.:XaX8 O d.E.-X,XR.' O l sX9XZ.n.>.b.b.V.b.b.2.f.kX<X7 @ O *.qXP./.u.d.c ^ D.}.",
"H.W O + } Q.i.1.7.tX{ O *XPXP.K.7.7.3.2.b.M.M.n.G.=.XXiXz O l -X;Xc O z fXdX3.n.V.b.y.+.b.;.2.n.Z.E.AX,X3 ^ sX|.3.n.B.z.6 @ S H.",
"H.n O 5 O.z.;.3.1.n.vXe 3XvX'.K.7.6.>.b.a.b.M.V.A.4.K.lXZXl O 4X>X# z NXNX].7.J.b.+...+.] ;.2.3.A./.&XjXc zXF.A.F.n.N. .8 @ ~ H.",
"1X` + q O.} ' ,.G.Z.E.e 4 ..P.,.,.,.;.y.M.M.b.b.5.A. X XFX).. cXcX+ }.FXeX X7.5.2.....M...;.=.,.=./.M.3 4 _.n.G.3.-.a.{ i 5 d.2X",
"1Xm O O [ k.d.i.i.).O.O O 3 i.W.>.:.;.y.a.M.b.2.m.3.>.oXi.@ X 6XCX@ . D.sXV.m.b...' ....y.-.-.:.i. .6 O O a.<XF.i.u.d.p.8 + :.2X",
"1XW @ O S { t.:.R.Y.5 O A + + _ c.d.d.u.;.y.b.;.;.M.XXt.. @ > CXkXd 5 . t.-XB.+.b.......t.t.t.s.w.@   A q 5 -Xd.D.:.{ ( 5 O -.iX",
"+X,.^ + @ x ` t.~.r.  u V : * X j.v.l.s.:.*.:.u.a.Y.[ O @ d X CX6X& v @ . X.%Xa.a.y./ $.t.s.l.I X X - y , X l.=Xw.g.8 7 3 ^ F.qX",
"dXW ZXR.+ 5 # w.#XI   $ < B , o X o.v.%.$.h.*.u.$X[ + q 7 = j 1X2Xf * h t + [ *Xt.-.Z.:.) c.e.;   - J J < X G v.s.8 3 O ;XDX4.wX",
"0XR 3.aXZX( . h l.M - B a B , B X ; e.[.:.<.H.c.[ + $ . 9 j % nXMX> n = $ u $ [ g.h.$.$.g.) @ . a a s < K 1 Z ~.` . ! GXgX(.W U.",
"IXQ W /.zXd.. x x.X X M B L > N V X X g.@Xh.{.) @ $ $ K D = n KXKXm & D P u $ O &.OX<.H.g.* . r B a J < J & & =X&.o .XZXXXQ Q LX",
"eX8Xl Q XX_ 7 5 j.@ 7 * & = @ = @ 6 O O f.1X` = @ q P q + k @XNXDXF.7 + u V q 3 * ~ +Xh.. . 6 3 & = 9 @ V 9 @ g.n 5 R.uXQ R 0XeX",
"(.I.3.w =.N.O [ S * f 5 x d.z.d.y.M.E.@ 7 %.@ & * q P O c :X'.U.].P.).c O F 9 8 @ @ $.= + E.Y.a.t.g.z.N 7 x 5 $.i.. F.E.4 |.U.U.",
"m.=.I.|.E 8 O 3 k + + 3 n.aXuXA.9Xm.aX/ . @   @ 5 9 . c pX3.#.U.J.2.b.;X6 . k * f X @ O ;.zX^._.A.XXyX .+ + * W k + z ! jX|.1.#.",
"A.Z.Z.XX/.pXkXNXZXjXzXuXaX(.J.J.2.C.^.tXpX5XCXcXCXhXkX;XaXI.1.J.U.3.J.uX).jX5XkXkXMXhXsXjX_.^.m.J.3.^.jXyXjXaXfXlXBXpX;XuXG.8.9.",
" X7.}.jX).,XjXpXjXjXgXyX;X(.|.7.L.C.XX-X<XZX6XkXkXkXjXXXNXS.7.].0XK.7.aX_.yXjXhX5X6XMX-X).uX`.`.J.A.uXuXyXjXxXaXsXxXjX.XkXoX8.@X",
"<.S.H.d.c 3 O 8 l + 3 6 c M.A.>.`.a./.b X   & # * f # 6 W.}.#.@X].,.A.F.6 3 x * 7 # O O ^ E.M.`.F.V.M.e 4 3 3 l z O w b n.}.8.#.",
"8.8.z l p._ + k N.+ 5 5 6 p./ / ! ^ ] O 6 iXw + x . 9 5 # u.3.6.S.Z.;.# 5 0 @ x @ 6 XXR O ..( ~ ^ _ ( 6 6 6 7 W.] + y.Y.l T ,.8.",
"S.<.l ~ $Xw.O f =X7 # 9 @ 9 & = ; 8 O + VXKXbXe # D C 9 5 # y.L.A.>.@ * : C D * 8 dXLXVX6 O x # & ; = & N 9 7 2X$.. R.;XE z *.q.",
"$.f m R.3XX.@ d -XG & L B , p g h * 8 VXfXeXfXeX#   J y V # 5 L.F.7 & B B J   & tXVXfXVXfXf & g g p s V K = j MX/ O R.jXd.W 6 Q ",
" XW Q.&XQ.x . 7 =X=XX a C , p p & X pXeXrXrXrXfX3XX - J ; A + ).).# A : Y 2 & 6XNX8X8X9.wX1X& o p , B B , @ v.ZXm @ b Q.-XE.Q tX",
";X^ Q.( + . & &.v.CX= X V B p = g 5X:XU.0.rXU.J.,X5X  @ Z * 8 cXkXf * C > o cXkX4.U.9.9.G.iX4Xp & > B B : 7 CX6X:.7 . # _ T.' ;X",
"5Xb A .   7 n :.h.PX| @ 9 Z & * 5X,XG.4.0.5.9.m.n.!.4X& @ h = 6X5X= f & = 4X,XW.J.9.0.9.G.D.-X4X& & M g 9 H JXH.:.$.5 O + A ` hX",
",XS + . i S :.i.:.ZXZX. F @ 5 2X.X[.D.n.2.5.3.4.3.,.oX:X7 @ = MX6X= 5 7 iXiXP.J.1.1.4.V.A.F.E..X<X# 3 i   kXFX6.H.:.~ A + 3 ( hX",
"5XG O @ | p.d.f.[.Z.UXb O 6 jX|.G.Z.n.b.i.;.;.>.=.K.K.NX[.& % CX6X= * oXFX0XU.4.4.b.b.M.M.M.B.L.XX-X6 O 6 IX1XG.6.f.p.{ 5 @ [ kX",
"5XG O q | s.%.i.;.f.GXzX+ jXuXP.4.3.y.y.t.t.' =.=.9.9.K.FXOXX kXkX* W.KXwX8X0.4.3.a.M.M.M.b.V.C.(.tX;X3 yXGXG.Z.,.-.s.p.i 5 p.kX",
"-Xv . # O.z.t.f.n.M.&XE M.xX/.J.A.V.;...p.X.p.;.,.1.1.]. X7 X 6X5X@ # 0XeXU.1.7.2.a.a.a.M.b.m.m.m.XXyXT.! yX3.H.Z.t.z.X.6 O ~ .X",
"oX%.# # | Q.t.t.W.a.6 + 3 -XOXi.m.b.;.....X.t.t.f.W [.H.# O -.yXpX^ O + }.oX,.d.a.y.a.M.M.a.n.n.F.W.&X6 O 5 E.W.y.t.Y.X.5 6 t.1X",
" X/.' 6 { p.p.a.{ 7 @ 5 + 8 {.f.;.=.] ..y... . .l.| g.# O ;XgX7X;X_.).O * R.c.l.a.a.a.M.b.] >.>.W.!.x   @ + e d.D.d...X.e M.oX0X",
",.P.B.7 X.x.Q.z.x + # ; r   &.{.:.-.;.2.V.....a.j.l.@ X i M._.7X7XC...7 & & l.v.z.a.M.b.y.y.u.g.c.G . ; P q   0 R.~.a.a.e /.|.#.",
"7.'.M.+ x.v.z.0   * r r K & & G v.g.;.+.+.b.a.z.l.& X & 3 &X`.`.L._.Y.* : % o #XQ.Y.b.b.b.>.u.v.@.o X r ; A 7 @ 8 z.Q.Y.4 F.8X8.",
"J.F.B.. l.#X& X = 9 d g M < 2 o @.=X%.i.i.] >X} & o - M = E.J.9.9.P.%.* M 2 o & k.,Xy.y.H.f.v.@.o % 2 a g 9 9 7 @ X =X#X8 b.A.4.",
"C._.y.0 r.a X X = d 9 h N s < 2 o H =X~.B.<Xp.0   u B a * d.'.4.A.G.u.& a L B @ 5 Y.;X/.W.~.r.o 2 2 a M g 9 d g = > & l.A ).^.C.",
"_.E.S 7 > o > p g g d 9 r N s < 1 @ F Q.&X .3 . - B 1 M D { T.^._.T.p.N , 1 s ,   3 `.gXc.S @ X a a a g g 9 9 h N > X g v b F.F.",
"-XS #     > a C M g 9 7 9 r B s 1 $ . A y.6 + 9 g B B a r + e gXgXe # & s s B g ( O 6 ' 0   . , a p M j 0 0 9 N , B , &   5 b ).",
"-X8 o   X s < 1 u 9 7 9 0 9 r r u U 3 . e ^ @ @ = = Z p Z N 4 *X*X4 i V C C Z = O @ e e . + L u a g h h h 0 r r B a s X o @ b .X",
"-X) @ & > X s < y r t t 0 0 0 0 u F + e dXFXaX.Xn X % o 7 N 3 kXcX6 i q o o & d !.sXDXxX! . u y : d 0 h t t t y K 1 s & 9 @ c.{.",
":X.Xw.@ > X y y y y y N t 0 0 h * 7 l OXfX'.wXBXPXAX6Xv.v 7 # zXzX3 3 b v.6XAXJXFXdXoX+XD.k @ N d g d 9 r r y y , u - I @ s.1X1X",
":XMXBX@ * C X X y , u N r 9 0 j 8 5 iXfXK.|.6.D.h.2XMXJXPXJXoXsXaXP.JXPXGXAX2X{.h.Z.}.P.aX2X8 @ f g g 9 r N y y r X D f * AXAX+X",
"qX#.aX.X@ . D @ X K 1 V B q 9 * 7 mXdX6.G.A.>.H.h.$.) n W *.z mXfXT W W %.m m c.R.n.n.Z.>.1XiX= X p Z B , y y u @ [ 5 3 .XNX#. X",
"0X5.9X9X/.c . Z O 1 1 - Z , & f 1XwX7.A.}.Z.y.a.w.S 7 O @ 7 @ nXwX5 + 5 X 5 v ( { X.d.E.Z.i.oX:Xj & & : , B y o | + w _.aX0XA.0X",
"8XR 4.A.(.F.6 @ r   , a Z : @ 5XsX'.n.F.R.Y.Q.x.G . Y.IXJXFXG.qXwX7.FXJXPXX.+ 0 X.%Xz.Y.R.>.Z.:X=X& & Z M - & D 7 3 /.(.L.].R 8X",
"LX5.R U.(.(.E.7 @ D % & & g 4XkXF.n.B.d.{ { k.[ 3 6 UXZXBX,.Q KXIXW 3.sXvXIXi O i O.[ ( M.N.i.E.4X4X& X > & | 8 3 ).0X0X8XR 5.HX",
"VXP.e R 5.I.XXg.* o =     S ` w e w w 6 8 8 5 * 3 AXzX^.Q z tXNXNXtXw / N.zXvX# @ 3 8 6 6 6 w e 7 ~ G   o d o 7 ^.aX0X5.R e 8XxX",
"n.|.J.R R ].|.aX{.G G v 8 ' B.b...B.' w x ~ k d ).GXXXb.w |.L.G./.G.P.6 n./.lX).w n ~ w w ] b.] *.y.s.8 H &.b 1XDXP.8XR R (.^./.",
"W.y.^.F.R W =.'.-.w.ZX{./.DXI.^.B.tXpXE..XZXAXVX].9.#.w fXI.A.P./.,.]. Xk Q 8.@XmXBXBX}./.zXuX(.(.J.aXD.2XAX:.<. X#.R Q 0XB.M.g.",
"d.N.y.0X7.K.dXoXoXMX,X.X0X`.4.9.F.' E.OX[.+X@X XwX].q.q.0X#.>.n.D.;.#. X0.].q.wX X XiX XtX(.] B.5.m.A.}.[.[.2XqX0XeX8XU.tXF.d.z."
};
