/* XPM */
static char *_595817943089[] = {
/* columns rows colors chars-per-pixel */
"64 64 256 2 ",
"   c black",
".  c #010101",
"X  c #020202",
"o  c gray1",
"O  c #040404",
"+  c gray2",
"@  c #060606",
"#  c #070707",
"$  c gray3",
"%  c #090909",
"&  c gray4",
"*  c #0B0B0B",
"=  c #0C0C0C",
"-  c gray5",
";  c #0E0E0E",
":  c gray6",
">  c #101010",
",  c #111111",
"<  c gray7",
"1  c #131313",
"2  c gray8",
"3  c #151515",
"4  c #161616",
"5  c gray9",
"6  c #181818",
"7  c #191919",
"8  c gray10",
"9  c #1B1B1B",
"0  c gray11",
"q  c #1D1D1D",
"w  c #1E1E1E",
"e  c gray12",
"r  c #202020",
"t  c gray13",
"y  c #222222",
"u  c #232323",
"i  c gray14",
"p  c #252525",
"a  c gray15",
"s  c #272727",
"d  c #282828",
"f  c gray16",
"g  c #2A2A2A",
"h  c gray17",
"j  c #2C2C2C",
"k  c #2D2D2D",
"l  c gray18",
"z  c #2F2F2F",
"x  c gray19",
"c  c #313131",
"v  c #323232",
"b  c gray20",
"n  c #343434",
"m  c #353535",
"M  c gray21",
"N  c #373737",
"B  c gray22",
"V  c #393939",
"C  c #3A3A3A",
"Z  c gray23",
"A  c #3C3C3C",
"S  c gray24",
"D  c #3E3E3E",
"F  c #3F3F3F",
"G  c gray25",
"H  c #414141",
"J  c gray26",
"K  c #434343",
"L  c #444444",
"P  c gray27",
"I  c #464646",
"U  c gray28",
"Y  c #484848",
"T  c #494949",
"R  c gray29",
"E  c #4B4B4B",
"W  c #4C4C4C",
"Q  c gray30",
"!  c #4E4E4E",
"~  c gray31",
"^  c #505050",
"/  c #515151",
"(  c gray32",
")  c #535353",
"_  c gray33",
"`  c #555555",
"'  c #565656",
"]  c gray34",
"[  c #585858",
"{  c gray35",
"}  c #5A5A5A",
"|  c #5B5B5B",
" . c gray36",
".. c #5D5D5D",
"X. c gray37",
"o. c #5F5F5F",
"O. c #606060",
"+. c gray38",
"@. c #626262",
"#. c gray39",
"$. c #646464",
"%. c #656565",
"&. c gray40",
"*. c #676767",
"=. c #686868",
"-. c DimGray",
";. c #6A6A6A",
":. c gray42",
">. c #6C6C6C",
",. c #6D6D6D",
"<. c gray43",
"1. c #6F6F6F",
"2. c gray44",
"3. c #717171",
"4. c #727272",
"5. c gray45",
"6. c #747474",
"7. c gray46",
"8. c #767676",
"9. c #777777",
"0. c gray47",
"q. c #797979",
"w. c gray48",
"e. c #7B7B7B",
"r. c #7C7C7C",
"t. c gray49",
"y. c #7E7E7E",
"u. c gray50",
"i. c #808080",
"p. c #818181",
"a. c gray51",
"s. c #838383",
"d. c #848484",
"f. c gray52",
"g. c #868686",
"h. c gray53",
"j. c #888888",
"k. c #898989",
"l. c gray54",
"z. c #8B8B8B",
"x. c gray55",
"c. c #8D8D8D",
"v. c #8E8E8E",
"b. c gray56",
"n. c #909090",
"m. c gray57",
"M. c #929292",
"N. c #939393",
"B. c gray58",
"V. c #959595",
"C. c gray59",
"Z. c #979797",
"A. c #989898",
"S. c gray60",
"D. c #9A9A9A",
"F. c #9B9B9B",
"G. c gray61",
"H. c #9D9D9D",
"J. c gray62",
"K. c #9F9F9F",
"L. c #A0A0A0",
"P. c gray63",
"I. c #A2A2A2",
"U. c gray64",
"Y. c #A4A4A4",
"T. c #A5A5A5",
"R. c gray65",
"E. c #A7A7A7",
"W. c gray66",
"Q. c #A9A9A9",
"!. c #AAAAAA",
"~. c gray67",
"^. c #ACACAC",
"/. c gray68",
"(. c #AEAEAE",
"). c #AFAFAF",
"_. c gray69",
"`. c #B1B1B1",
"'. c #B2B2B2",
"]. c gray70",
"[. c #B4B4B4",
"{. c gray71",
"}. c #B6B6B6",
"|. c #B7B7B7",
" X c gray72",
".X c #B9B9B9",
"XX c gray73",
"oX c #BBBBBB",
"OX c #BCBCBC",
"+X c gray74",
"@X c gray",
"#X c gray75",
"$X c #C0C0C0",
"%X c #C1C1C1",
"&X c gray76",
"*X c #C3C3C3",
"=X c gray77",
"-X c #C5C5C5",
";X c #C6C6C6",
":X c gray78",
">X c #C8C8C8",
",X c gray79",
"<X c #CACACA",
"1X c #CBCBCB",
"2X c gray80",
"3X c #CDCDCD",
"4X c #CECECE",
"5X c gray81",
"6X c #D0D0D0",
"7X c gray82",
"8X c #D2D2D2",
"9X c LightGray",
"0X c gray83",
"qX c #D5D5D5",
"wX c gray84",
"eX c #D7D7D7",
"rX c #D8D8D8",
"tX c gray85",
"yX c #DADADA",
"uX c gray86",
"iX c gainsboro",
"pX c #DDDDDD",
"aX c gray87",
"sX c #DFDFDF",
"dX c gray88",
"fX c #E1E1E1",
"gX c #E2E2E2",
"hX c gray89",
"jX c #E4E4E4",
"kX c gray90",
"lX c #E6E6E6",
"zX c #E7E7E7",
"xX c gray91",
"cX c #E9E9E9",
"vX c #EAEAEA",
"bX c gray92",
"nX c #ECECEC",
"mX c gray93",
"MX c #EEEEEE",
"NX c #EFEFEF",
"BX c gray94",
"VX c #F1F1F1",
"CX c gray95",
"ZX c #F3F3F3",
"AX c #F4F4F4",
"SX c gray96",
"DX c #F6F6F6",
"FX c gray97",
"GX c #F8F8F8",
"HX c #F9F9F9",
"JX c gray98",
"KX c #FBFBFB",
"LX c gray99",
"PX c #FDFDFD",
"IX c #FEFEFE",
"UX c white",
/* pixels */
"^ U _ J ( L +.:.k.R.A.N.F.S.G.m.B.B.B.V.V.V.V.V.Z.Z.F.I.L.F.H.T.Y.R.T.W.).Q.Y.!.R.R.Y.U.P.K.J.H.L.M.C.V.n.R.J.=.=.[ P ! L ) Q Y ",
"U Z v w u b J v } ;.o.X.o.| #.X.@.@.#.#.#.#.$.$.@.#.#.#.&.-.*.$.:.,.:.:.,.:.:.3.:.;.;.-.=.=.*.*.@.O.*.%...-.&.U C S B x s Z T Y ",
"( q , l d a M I c h a v v j v j d d f f f f g g d g a y f m M l c v z g s s f j d d d d f f f f d z b j i a k l P f y s g s Z E ",
"x 6 f Z j k P U ( V N T I Z M g g g h h h h j j g j j k m L ( { ( R H N l j j a f f g g h h h h h B S D H S L { P v M z m l G J ",
"g 5 A H B p K D ! b v M a 7 1 > , , , < < < < < , > 1 8 9 t V ) Q n i 0 2 4 5 - 1 1 1 1 1 1 1 1 * 5 8 p n x n ~ N p V K A w C | ",
"P 5 d l A s ! [ Z k l t , < 8 h k k l l l l l z v j k l y 3 y A V 6 : 7 q d b k x x z z l l l l k d 7 4 w q s P L l k z h f T &.",
"S b z 8 c Q #.E g p u 2 e A U ..%.%.%.%.&.&.&.&.;.%.#.O.^ C c M c 2 t I ) ..=.$.&.&.%.%.%.%.%.%.-.X.T B g e a A I ] U s g @.;.L ",
"Q R T ) X.#.^ Z f u 9 , C ;.>.8.2.2.2.3.3.3.3.4.1.1.2.1.=.' G c d 1 b =.6.4.6.>.1.1.1.2.2.2.3.3.;.>.>.o.J u 7 w T U ^ 4.>.-.( Y ",
"R U R Y W L ^ t l , : A *.,.,.e.r.t.u.i.p.p.i.i.p.t.q.>.;.+.G M i 8 ' >.5.9.t.i.i.p.p.a.p.i.u.y.9.2.:.-.[ A i 0 z U E ~ G ^ T U ",
"T _ F ~ T I N d p , s _ ;.q.k.z.N.B.C.Z.A.A.Z.Z.S.N.z.9.1.@.J V d e  .2.e.j.N.C.C.C.Z.A.Z.C.V.B.b.d.q.2.@.T z e s N ~ P W L ~ E ",
"Y ' S W ! G p h 4 5 P :.<.f.P.S.Y.T.E.W.Q.W.W.E.!.Y.A.y.1.o.H C s y X.1.u.V.T.R.T.R.E.E.E.R.T.Y.U.Z.g.8.:.{ S i w h I I ! H W ! ",
"U R E J ~ v s y : l o.q.t.B.Q.Y.!.~.^./.(./.^.^.(.!.L.f.4.O.H A a i +.3.s.J./.~.!.~.^././.^.~.!.~.T.V.a.8.-.Q c 9 s c ! Y R J W ",
"T J _ P A h f 2 7 ~ 5.p.A.W.^.'.`.`.].[.[.].'.`.'._.!.n.r.&.P D s s &.w.v.Q.}.'.`.'.].[.[.[.].'._.'.Q.V.g.0.X.L y r u P R ^ K T ",
"W I ~ E y j r 1 c -.i.l.^.{.(.oX|. X.XXXXX.X X|.}.}.`.A.s.;.L V p i *.a.S._.oX X X.XXXoXoXoXXX.X]..X{.T.B.s.>.' b q t k ~ R ! T ",
"Q U U F e p 4 i [ w.b.G.]..X[.OXoXOX+X@X@X+XOXoXXX X[.F.h.>.K M s y &.h.J.'.OXoXXXoX+X@X@X@X+XOX|.oX.X_.U.M.t.>.R g e r K U ^ R ",
"W J P d l 6 2 N r.k.L.'. XoX@X+X#X$X%X%X%X$X#X@X@XOX}.J.z.3.U V z a -.x.U.].OX#XOX+X#X$X$X$X#X#X+X@X+X.X`.I.b.a.| D 7 u k T Y W ",
"T Y g h t 8 i %.v.F.^.|.oXOX@X$X%X%X&X&X&X%X$X$X@X@XXXP.v.6.U n d g 3.v.U. X%X+X#X$X%X&X&X&X&X&X#X#X@XoX|.(.H.v.e.^ f q i N U T ",
") Z f x 2 5 G i.N.K.(. XoXoX+X#X#X#X$X$X#X#X@X@X@XOX}.L.n.9.R B s f 3.v.I.{.$X#X@X#X$X%X%X%X%X%X@X#X+XXX|._.P.B.g.&.F y 9 c U R ",
"R l f g * h ,.Z.P.!.{.OX@X#X%X*X&X&X*X*X*X&X%X%X&X+X}.I.B.q.E B p d 4.m.Y.{.$X&X%X%X&X*X=X=X=X*X&X&X$X@XOX|.^.P.M.p.o.c 5 p S J ",
"V v h 8 4 ) c.B.P.E.(.].[.[.}. X.X.XXXXX.X.X X X.X]._.I.C.q.T V s d 4.N.U.^.].{.{.}.}.|. X X X X|.|.}.].].`.!.P.m.z.7.T t r M H ",
"N S p - n 3.b.c.V.S.J.L.L.L.I.U.Y.Y.T.T.T.Y.U.U.Y.L.I.D.v.4.Y F j p :.x.F.K.L.K.L.P.I.U.U.U.U.U.I.U.I.L.L.L.G.C.n.j.e.| b d A ! ",
"C A 0 : ^ 7.a.b.b.M.B.C.C.C.Z.A.Z.Z.Z.Z.Z.C.C.V.Z.N.V.x.t.#.U Q M y | e.v.V.C.C.V.C.C.Z.A.A.A.A.Z.A.A.V.V.Z.B.n.M.d.8.o.S v H ( ",
"V F j 0 ^ O.-.8.9.0.w.e.r.r.r.r.e.e.r.r.e.e.w.w.e.9.0.<.+.) Q *.^ d E O.3.0.e.e.w.e.r.t.t.t.t.t.e.y.t.e.e.r.e.9.9.,.#.( G G T R ",
"Z ! R g G U Q Y W Q ~ / / / / / / ( ( ( ( / ^ ^ / ! ( E U Y [ a.<.M K U ~ / ~ ! ~ ^ / ( ( ) ( ( ^ ) ) / ^ / ^ W R R R K J ^ ` U ",
"Z ] 8.@.+.{ ( ^ / / / / / / / / ) ) ) ) ) ) ) ) ` ^ ^ { :.e.s.g.e.8.,.#.} _ / ~ ) ) ) ) ) ) ) ) / / / / / / / / ` / _ =.0.:._ Q ",
"z Z { ] *.&.&.>.:.:.:.:.:.:.:.:.:.:.:.:.:.:.:.:.5.1.;.=.*.@.} )  .|  ...+.%.-.>.:.:.:.:.:.:.:.:.:.:.:.:.:.:.:.:.;.,.,.>.+.T S U ",
"v t a 9 i e i z k k k k k k k k j j j j j j j j f g j k k f y q w e t i d j z c j j j j j j j j k k k k k k k k j l h i 0 4 f R ",
"V N { #.2.*.@.O.&.&.&.&.&.&.&.&.$.$.$.$.$.$.$.$.#.$.%.&.%.&.*.=.=.=.*.&.%.#.@.+.$.$.$.$.$.$.$.$.&.&.&.&.&.&.&.&.#.*.;.>.%.! J E ",
"c l E I U I ! ~ R R R R R R R R R R R R R R R R ! ! W T I I Y R U Y T R R R R R R R R R R R R R R R R R R R R R ) W L U T D B J ",
"V D ,.7.8.5.9.1.6.6.6.6.6.6.6.6.7.7.7.7.7.7.7.7.4.6.8.9.9.8.9.0.5.5.6.7.8.8.8.8.7.7.7.7.7.7.7.7.6.6.6.6.6.6.6.6.,.4.8.e.7. .E ^ ",
"n q N A S A T Y J J J J J J J J J J J J J J J J H H H H G D A C K K J G F S A Z J J J J J J J J J J J J J J J J U I H D V l b Y ",
"m > d B Z x v k c c c c c c c c c c c c c c c c b c z z v m M M v v v b b n M M c c c c c c c c c c c c c c c c v v x n m k x J ",
"a 6 R %.%.' X.#.+.+.+.+.+.+.+.+.+.+.+.+.+.+.+.+.#.@.O.o.o.+.#.$.X.O.+.@.+.O.+.+.+.+.+.+.+.+.+.+.+.+.+.+.+.+.+.+.o.@.+.O.| R H T ",
"C j ] ,.9.6.7.:.<.<.<.<.<.<.<.<.<.<.<.<.<.<.<.<.<.1.2.3.2.<.:.;.5.3.2.1.<.<.>.;.<.<.<.<.<.<.<.<.<.<.<.<.<.<.<.<.;.<.2.5.2. .W ! ",
"V S *.=.@.o.-.*.-.-.-.-.-.-.-.-.=.=.=.=.=.=.=.=.&.=.;.,.<.,.>.:.=.*.*.-.,.2.2.<.=.=.=.=.=.=.=.=.=.=.=.=.=.=.=.=.,.,.:.;.&.( J L ",
"z w c b J P H v Z Z Z Z Z Z Z Z C C C C C C C C M M M M N V C Z C C C V B m b v C C C C C C C C C C C C C C C C C V n n N b M P ",
"F K *.*.&.| $.3.=.=.=.=.=.=.=.=.*.*.*.*.*.*.*.*.2.1.,.>.;.=.*.*.&.-.,.,.:.;.:.,.*.*.*.*.*.*.*.*.*.*.*.*.*.*.*.*.&.,.3.3.=./ K U ",
"d t N D ~ P C B H H H H H H H H G G G G G G G G M B Z D G G G G Z A A Z C Z F J G G G G G G G G G G G G G G G G K G B b b x B E ",
"S R @.^ E S A I S S S S S S S S A A A A A A A A F G K T ( ..*.,.5.*.' T K G S Z A A A A A A A A A A A A A A A A C J Q | #.` P P ",
"b A L t t e e r t t t t t t t t e e e e e e e e u r 0 e g S / X.) G f q q t t q e e e e e e e e e e e e e e e e i w 8 a C H L ! ",
"N h 8 , 3 w y t t y u i i u u y u u i i i u y y t r p q 6 7 a E M 2 : 5 w u w u u u i p p i i u y y u i i i u y y 0 0 8 5 a D T ",
"V d 4 7 l C J ! Q ! ~ ^ ^ ^ ^ / ^ ^ ^ ^ ^ ^ ~ ! / ! / Y D x u b t : e m L ~ Q ) ! ~ ^ ^ ^ ^ ^ ~ ^ ^ ~ ~ ^ ~ ! ! ! Y K N s s V Y ",
"B d 2 u Y ] X.1.-.;.:.>.>.>.<.2.,.,.<.<.,.,.>.>.<.;.>.%.o.E g s 5 4 B ` #.>.;.1.:.:.>.>.,.,.>.>.1.,.>.>.>.>.;.-.&.$.} I z f V R ",
"m l 0 a ! O.#.<.:.<.3.3.3.4.6.8.5.6.6.6.6.5.4.4.6.1.1.-.=.[ M l 8 a ~ *.,.5.1.4.3.3.4.5.5.6.5.5.8.6.3.3.4.3.<.>.$.=.{ S l c D E ",
"m N f u D { #.&.3.8.r.u.u.u.a.d.a.a.a.a.a.a.p.i.a.y.e.,.-.| V z q x | ,.3.r.y.p.i.p.a.s.s.s.s.s.s.p.u.u.u.r.8.3.-.>.) n v A H P ",
"N S N s h E %.=.6.t.k.n.M.N.B.C.C.C.Z.Z.Z.C.V.V.m.n.x.9.>. .B j w n X.,.6.k.n.N.B.V.C.Z.A.S.S.S.C.B.M.M.n.k.y.7.-.$.P c D I H P ",
"M A U N y V o.&.1.r.v.D.K.L.I.Y.T.T.T.R.T.T.Y.U.J.H.C.t.1.o.Z j e M O.1.w.C.J.K.I.U.Y.T.R.E.E.E.U.P.L.K.D.v.t.2.#.~ v M ! U Z R ",
"n V / T t h ( } :.e.n.L.E.!.~./.).).).).).(.(./.).~.H.y.2.@.D z e N #.6.d.Y./.~.!.~.^.(.).)._._.^.~.Q.E.L.n.e.>.#.L f F } J c W ",
"b m ] ! V p B ' -.q.m.T.^.!.(.|.}.}.|. X X|.{.{.].'.E.v.u.@.N c t m #.t.m.^.'.'.[.{.}.|. X X|.}.|.`._./.K.n.r.%.E l A ' ! W j ! ",
"c z ^ ( I p k Q #.q.x.H.(.[.{.XX|. X.XXXXX.X X|..X X/.B.d.%.B x e m &.a.C.`.|. X}.|. XXXXXXX.X X X X|.^.G.v.q.+.J g ! ) [ V h T ",
"z d U ` } v i C ' 8.j.B./.oX.XXXOX+X@X#X#X@X+XOXOXoX'.D.l.;.C x e N :.j.G.{.oXoXOX+X@X#X#X#X@X+X|.+X.XW.S.z.2.) v n o.| ` c f T ",
"z s F ) ,.! h a J <.g.b.W. X|.oX@X#X$X%X%X$X$X#XoXoX].H.b.<.Z x e C 2.v.L.|.oXOX@X#X$X%X%X$X#X#X}.+X[.I.S.h.o.Z k ^ -.*.L B d Q ",
"c f S E 5.<.P r k  .u.b.P.).|.$X+X@X#X$X%X$X#X#X@X+X{.L.M.2.Z l q Z 7.N.Y.XX#X$X@X#X$X$X$X#X@X@XOX+X/.J.A.r.E g G <.8.O.A V z E ",
"v j G J &.t.&.b p L <.c.F.E.|.&X@X#X%X&X*X&X&X%X%X$X|.I.V.4.Z k 0 A 9.C.T.oX%X*X%X%X&X*X&X%X$X#X$XXXE.F.n.*.A c @.t.w.T K l m U ",
"c g P A ! 9.p.] l k ` d.M.J.`.}.XXoXOX@X@X@X@X+XoXXX].L.V.6.D z 0 S 0.V.P.[.XX+XOX+X@X@X@X+XoXXX}._.J.N.y.W N ) e.y.#.S P j b R ",
"x d T C Z ;.b.7.C r H w.l.C.Q.E.(.)._.'.].'.'.`.'.'.^.F.N.7.H n w D 0.M.F.~.).'.`.`.'.'.'.`.).(.W.Y.V.z.<.B B 6.d.e.L G D b h ( ",
"l z D S C R ;.A.&.b u ) s.x.x.A.J.J.J.J.K.K.K.K.D.W.A.m.V.&.C T i c >.n.N.P.Y.G.K.K.K.K.K.K.K.K.Z.m.V.9.D C *.f.n.' Z G K M c W ",
"g g F I D G { j.c.' g n } 9.g.b.n.n.n.n.n.m.m.m.z.M.z.k.t.~ H ;.b z  .y.s.l.k.d.n.n.n.n.n.n.n.n.N.u.>.Q M ` g.N.1.Y S K G v j I ",
"M l F R L S P -.N.u. .F Z R ] | &.&.&.*.*.*.*.=.<.:.@.[ Y M T 7.U h Z ( | *.,.5.*.*.*.*.*.*.*.*.| ^ U H / p.Z.p.~ F I R K B N ^ ",
"h r h b M n k Z y.j.p.#.R K F N v v b b b b n n h x m N K @.i.c.r.] R G m n l z b b b b b b b b C G ~ o.9.m.f.| x k C V c j j G ",
"S U X.#.-.4.-.-.v.b.l.i.r.r.7.;.2.2.2.3.3.3.3.4.4.4.9.9.q.g.d.1.e.2.6.1.1.0.1.:.3.3.3.3.3.3.3.3.6.q.s.k.v.m.h.6.*.&.3.;...) Y ^ ",
"m { d.l.z.A.V.C.j.s.u.r.e.r.u.a.u.i.i.i.i.i.p.p.s.q.t.g.a.e.0.6.w.y.g.r.y.k.p.i.i.i.i.i.i.i.i.i.a.p.u.r.q.w.f.m.C.M.S.n.i.,.) ! ",
"n ` y.d.s.x.l.v.h.j.j.f.r.8.w.s.u.u.u.u.u.i.i.i.a.q.9.t.y.0.t.k.t.r.u.7.9.y.q.s.u.u.u.u.u.u.u.u.e.t.e.w.y.a.l.Z.m.k.b.k.y.,.( W ",
"G E @.&.=.,.%.=.<.=.#.$.-.>.-.%.*.*.*.*.*.=.=.=.$.:.-.&.>.,.*.$.&.#.;.;.<.:.+.1.*.*.*.*.*.*.*.*.-.,.=.&.,.>.$.+.,.@.=.=.%...W Q "
};
