/* XPM */
static char *_595818179649[] = {
/* columns rows colors chars-per-pixel */
"64 64 157 2 ",
"   c black",
".  c #010101",
"X  c #020202",
"o  c gray1",
"O  c #040404",
"+  c gray2",
"@  c #060606",
"#  c #070707",
"$  c gray3",
"%  c #090909",
"&  c gray4",
"*  c #0B0B0B",
"=  c #0C0C0C",
"-  c gray5",
";  c #0E0E0E",
":  c gray6",
">  c #101010",
",  c #111111",
"<  c gray7",
"1  c #131313",
"2  c gray8",
"3  c #151515",
"4  c #161616",
"5  c gray9",
"6  c #181818",
"7  c #191919",
"8  c gray10",
"9  c #1B1B1B",
"0  c gray11",
"q  c #1D1D1D",
"w  c #1E1E1E",
"e  c gray12",
"r  c #202020",
"t  c gray13",
"y  c #222222",
"u  c #232323",
"i  c gray14",
"p  c #252525",
"a  c gray15",
"s  c #272727",
"d  c #282828",
"f  c gray16",
"g  c #2A2A2A",
"h  c gray17",
"j  c #2C2C2C",
"k  c #2D2D2D",
"l  c gray18",
"z  c #2F2F2F",
"x  c gray19",
"c  c #313131",
"v  c #323232",
"b  c gray20",
"n  c #343434",
"m  c #353535",
"M  c gray21",
"N  c #373737",
"B  c gray22",
"V  c #393939",
"C  c #3A3A3A",
"Z  c gray23",
"A  c #3C3C3C",
"S  c gray24",
"D  c #3E3E3E",
"F  c #3F3F3F",
"G  c gray25",
"H  c #414141",
"J  c gray26",
"K  c #434343",
"L  c #444444",
"P  c gray27",
"I  c #464646",
"U  c gray28",
"Y  c #484848",
"T  c #494949",
"R  c gray29",
"E  c #4B4B4B",
"W  c #4C4C4C",
"Q  c gray30",
"!  c #4E4E4E",
"~  c gray31",
"^  c #505050",
"/  c #515151",
"(  c gray32",
")  c #535353",
"_  c gray33",
"`  c #555555",
"'  c #565656",
"]  c gray34",
"[  c #585858",
"{  c gray35",
"}  c #5A5A5A",
"|  c #5B5B5B",
" . c gray36",
".. c #5D5D5D",
"X. c gray37",
"o. c #5F5F5F",
"O. c #606060",
"+. c gray38",
"@. c #626262",
"#. c gray39",
"$. c #646464",
"%. c #656565",
"&. c gray40",
"*. c #676767",
"=. c #686868",
"-. c DimGray",
";. c #6A6A6A",
":. c gray42",
">. c #6C6C6C",
",. c #6D6D6D",
"<. c gray43",
"1. c #6F6F6F",
"2. c gray44",
"3. c #717171",
"4. c #727272",
"5. c gray45",
"6. c #747474",
"7. c gray46",
"8. c #767676",
"9. c #777777",
"0. c gray47",
"q. c #797979",
"w. c gray48",
"e. c #7B7B7B",
"r. c #7C7C7C",
"t. c gray49",
"y. c #7E7E7E",
"u. c gray50",
"i. c #808080",
"p. c #818181",
"a. c gray51",
"s. c #838383",
"d. c #848484",
"f. c gray52",
"g. c #868686",
"h. c gray53",
"j. c #888888",
"k. c #898989",
"l. c gray54",
"z. c #8B8B8B",
"x. c #8D8D8D",
"c. c #8E8E8E",
"v. c gray57",
"b. c #929292",
"n. c #939393",
"m. c gray58",
"M. c #979797",
"N. c #989898",
"B. c gray60",
"V. c #A0A0A0",
"C. c #A4A4A4",
"Z. c #A7A7A7",
"A. c #AAAAAA",
"S. c #C5C5C5",
"D. c #CACACA",
"F. c #CDCDCD",
"G. c #DDDDDD",
/* pixels */
"t q r u p g p 4 6 q 6 + w k N l j 7 4 f j c c * 8 =.W  .^ Q Q Q Y W X.) T / m = j M k i l C Q -./ W P m , : d e 4 8 q 8 4 3 4 5 ",
"a r t y e e 3 o   % , & s c m d r q u c g f f $ y ` y s i l v z M z v u p D k % u k s e i d v I Q ~ U M 8 7 w     % 3 8 6 3 2 3 ",
"u e t u w 0 < X @ : 1 @ 0 r y 6 4 q s m x x x > : X.} ,.@.o.@.#.| } #.O.=.,.N   Z M d y f p 9 8 M R T l ; 2 y @ . = 6 q 7 1 , 1 ",
"r q y y 8 5 2 & > 2 2 # 9 w i r j k h v v c h & y E c M m S P P n S I n x S h 4 C v f f l k a i v T Y k = - t 2 1 3 6 8 5 1 1 5 ",
"i r t q : & = & $ * = X 2 > > & 2 3 ; 1 4 5 7 # ; m V )  .' Q K _ U L Y #.&.h   w 7 7 4 = $ : 5 > 8 6 6 > - 2 & 1 : ; < 3 3 4 8 ",
"a q 8 4 * % ; ; ; % +   < : < : & < ; , = o ; < + y N [ +.| $.2.+.$.&.[ ! Z 4 = 7 % @ ; > , 1 ; % ; * < -   % : : * - 2 4 < , 2 ",
"t , * - = > 2 , * @ & > N K ^ ) W ^ U L c , ; 2 8 - ; c T F N M m v v l l w + : 8 = 7 N Y ) ` R E ^ L A i o o - : ; < 4 , # # ; ",
"q #   o & : : #     > p ) ..@.O.#.O.` | ~ s 4 4 1 % 8 P X.` X.2.,.#.| ~ L p $ 7 , 9 H ..] ` +.%.O.$.' ` U y &   & * > , #   o , ",
"u &   & > : $   ; $ j ) ) ` { Y _  .] U K K f @ e > > # : 1 2 K S 4 = : 1 2 = : 4 L  .) ^ ] ' ~ _ .._ I U F e   X = @ 8 > @ t - ",
"= 6 u 6 X   $ * , B _ ` ~ W ^ { ( ] _ E ! _ U c ; < q = # % < W U 9 : , : > < r X.$.{ W ~ ) ~ W ^ ] ^ Y Q R b r =   @ t q ; 4 9 ",
"4 $ X .   + % o j _ ( P ' ~ H _ / ^ W U T Q T H 0 , *   ; 0 r ( ^ 6 # % + - i J *.{ T R ' _ Q ^ / _ ! E / ~ L D 5   + # % 1 > 3 ",
"4 & 1 r , o 5 m ) ] H K $.} L ] | ] ) / Q T U U ^ D Z P $.[ l L I 0 z ' X.X.*.0.O.[ ~ / [ / E ( { [ / ~ ) W P Y m 6 + O % $     ",
"m.b.B.j.R 5 e F ( E H I / ! W ] [ ` ' { ` W T W _ E ` =.i.X.z _ Y w D 5.r.5.:.:.[ ` Y G U W ~ ]  . .] ' ' Q I E L d 7 X.k.9.u.f.",
"8 9 e 7 * < g V S C Z M n J T D P P Y Q R H S D D m m S ) M 5 ( / 8 k { o.X.} ' U P m l A Y U L R Q E R Q I F K I M 1 L -.{ #...",
"s s i 2 # 6 N Y o...[ ' X.:.-.| *.*.=.=.&.+... .$.%.$.#.0.{ g ) E 8 B :.5.9.5.&.2.1.$.X.*.*. .` ..$.@.o.$.+.} { ` / i 2 a v M d ",
"f 9 7 q 6 8 d b V C m A Y H Z Y L L J H G G F D v K L B Q S 7 L W 3 s E T Q Q G D H S D P P L W K E U H P P A B S b 0 $ 0 n n G ",
"i 2 q y ; 1 k N ' ' [  .O.O.X.| +.{ _ _ ` ) ` { [ ..[  .<.W i J J e a W ' / [ o. .] } $.&.X.| ..O. .' ) ) _ ` ' ' T e , 5 3 i B ",
"9 * < w 4 4 a x N N B A F G D Z S B m N B m b m l C D J ! v 7 L H 6 2 l x s h c B A G J K J F A A C N M M M n b S m 4 ; *   0 I ",
"4 = = 3 5 5 y c { } | X.+.@.+.O.| [ ] | ..| [ ' ( X.+.O.@.H a W T i i J U H I R ) o.%.+.+.&.%.X.} [ [ }  . .{ ' ~ Q f < $ X t I ",
"6 q 6 : ; 2 i V b b m B Z S D D N b c b M B N M D D C V J l 0 F F 4 > s g p h l f b Z C V A D S M b c v M V B M M A 2   # y S I ",
"3 z c 5 $ > p B b n M V A F J L I F N n M Z A C j p 0 3 w 9 r W E 0 = 7 8 7 u f k z M S S C D I P D M n N Z S A p h - + p P ] ' ",
"; v P j ; : y j h j l z c n B Z Y G n j j x z h 9 w t 6 < * 5 U H 7 < s h d h g h s h n m c m G Y D b k k z z j 6 6 % 0 m v V Y ",
", g U F 9 < e u g h j h h k c m D V z d d f u 8 : 4 i r 7 2 t Q P t w n m h u 8 j g f h k z v M G B l g f s t 9 8 8 5 N W Z K X.",
"8 y H Y i 3 r y f g f s a s h z k h a y u u 7 - f r w 2 > 1 y E L 9 > y p u a y f j d r y h l g x h p i p r 4 - r u 9 c P C J ' ",
"7 9 G N 8 @ 8 s a p i y r y d l a u k 9 r 3 5 s 9 > 8 , q d t ! G p 1 w g e 8 a t p i e q y d f t f g f t * y 7 q , < l F z b ] ",
"3 f H 6 O.s.s # 0 9 9 9 9 0 r u u e s 3 w 7 4 q q 7 q > r f 8 D B e , 6 e w r a 8 8 8 9 0 w y a p a y 5 8 ; e t   N $.~ u a R +.",
"4 w I R F o.l.^ 5 5 5 7 0 e r r 0 8 r ; w e 8 7 , 0 q & 6 u u ` ! p ; 1 6 q 9 - e 9 8 0 w q q r 7 9 r , y q 8 u  .:.Q d h x Z ..",
", h E g Z m f $.3 3 3 5 q i a i t r u * 7 q 5 1 3 5 : - g g 5 N G 0 3 9 ; - 8 6 9 9 7 4 8 y u e 0 w p - y e > r &.A v S x k U  .",
"u 9 U k i l t w 5 5 4 4 w f l j c x c < 6 6 2 1 0 w 4 1 r 6 q ! ! 0 > y r q q < ; 5 5 : 6 k b g n v z & 6 5 ; u r V N v C h b =.",
"< g S m z d S l X + O X $ 2 9 8 5 5 9 . @ O O % p i w 9 5 = 9 L S 5 ; i k g t 2   # #   @ 7 e 5 6 8 6   # X   # D h h l i f G W ",
"8 3 I j Z D : u 7.e.r.0.e.f.z.l.p.i.k.q.d.i.p.z.v.a.q.h.b.f.&.H / -.d.l.y.q.f.m.s.f.g.d.d.h.k.k.r.s.f.y.h.t.i.1.g j a l B d l } ",
"t d A g k x l 7 R ) ' ^ ^ [ ..| ..{ #.[ %...} $.#.&.-.;.#.&.@.J L O.,.=.;.;.O.' +. .O.-.&.| | $.O.@.} ] X._ O.K j z c k p i V ` ",
"7 y J m b b V n k h v 5 u v 4 h u n d 9 N p u g z b f c x x j R ! M h j g d f d u r V s u m u x h h b w s y y j c x l x j y z ! ",
"i j I z a u p q 6 , + - ; & < = 1 % % 2 * 6 4 : 1 7 < 5 2 6 4 C C t 2 5 3 < 1 , 1 1 & , > % : - 2 & - , $ 5 , 1 x c c b z f Z X.",
"y h K j p a d q : & - 5 , r C d h 0 j 9 * < , 1 2 7 3 4 , 7 4 S m 8 ; < , ; ; - < 6 : > 4 e l f p d d 4 1 , % 3 l v b v k s A +.",
"0 p F l c N B g : 3 M q y | o. .{ ` @.4 v e 5 p d d p y e g e L A r 2 8 8 5 6 6 9 u N 6 p .. .o._ o.} 3 Z 9 3 w l n m v f t b ` ",
"e u A z b m z w = 8 j 1 x %.{ o.$.X.#.: c d w t a t t q e z 8 C C 0 > 7 0 7 8 9 r e k 2 j =.@.o.%.o. .4 v t y > a l c x h u z E ",
"e q M j h t 6 * , 0 - t ! { ] [ ] _ X.n 1 9 q q w 4 8 4 q n 8 C B 7 - 6 0 7 8 0 i 9 ; i I } @.)  .! ..S - 3 y - 1 9 t a g s x P ",
"q 9 N z p < ; - 5 8 r L X. .O.+.] } O.] s 4 3 w 7 , 8 1 9 B e J A 9 ; 8 w 8 8 0 e 0 w K ..X.#.o.} ' #.[ i 6 < 8 & ; < 0 d h x F ",
"i y G B s - ; 6 1 > E ' ! X.] +.#.X.Q ! X.a = 1 < & 3 * , x 7 H Z 7 * 5 9 4 3 5 , 4 U ^ ] %.) &.@.O.) I @.l   0 : > > 9 g l c Z ",
"p t C V s = 3 < w P ] Q ! ] ( I _ | ` P J K j & 6 , * = , > 0 B m q ; 3 w 8 2 2 6 K [ ^ ( } ` E ' | ' T I J d % 7 * 1 3 d r d F ",
"7 8 V V p % < : Q } ] ! ^ ` ` ] ` } ' Q ! ( L k ; 3 e 1 % % 3 G c 7 : 8 q 3 3 q  .%.X.~ ! ^ ~ ^ _ ] ) ! ^ ) I b 6 , 5 3 h s h b ",
"7 u Z i % O f M ' ( E ! ` ! Y ! ! ~ W T E ! T F w - >   * q 7 J D 5 X $ % - s K $.| Q Q _ / Q _ ( ^ W T E Q T J 9 2 &   6 u n V ",
"r y f *   2 P ~ W T U / | _ E ~ ] _ ( / ~ E T Y ~ v F K o. .y b Z r j ) X.} -.e.@.] R ! { _ E ! ..[ _ ( ! T U Y H b 6 o < 3 k n ",
"e # : 4 t a S S W W L J W / ) {  .[ ] [ ) R U R ] K  .-.y.$.i K n w F q.s.4.;.&.} ) K S Y ~ ~ ) [ ' ] { ` ! R W K N 0 : 6 * u l ",
"0   7 M n 3 d D D K C x B H K I Y I Y E Y G S G J v V F / N * V V 4 f } @.| | ' L I C c C P U Y P U R W R K F D K B 6 ; 5 $ g N ",
"u 8 m C i % f P } O. .} #.&.O.X.$.$.&.*.&.@.O.O.$.%.+.%.9._ t m m 4 c &.3.3.8.>.,.2.=.+.%.$. .{ &.-.;.=.%.#.o.| } / s 2 q 1 B A ",
"l x A u 5 q N z A C m V I Y J L L P L K H G S C c U F D / V 7 g x > a ^ ~ R W A H F V Z U Y L Y K I P G F K J S b V 7 : p a T F ",
"h d A z 2 2 i G ) ` [  .X...} [ +.} ` ` ` ) ) ] | ] O. .-.~ 4 j a , i W ' ( [ | ..] [ @.*.O.| | +.| ` ( ( _ _ _ / ' e & n U w z ",
"u G z c a 5 k q n M C S G H F S S B M B B m b b l n L S L b 1 V n 2 4 z c h z x V A D H K L G Z Z B m n m M n c ~ l % l C n j d ",
"s & j i * 4 r L ] [ | X.O.O.+.O.} ] ] | X.| [ ' { } $.#.;.Q 5 t 9 < h T L C J R _ o.$.+.+.*.%...[ ] ] {  . .} ] K ' s x v f g q ",
"3 t 2 5 9 < e g b m M B B V Z A m v x b N V B M M V D B C h , i c 1 , u p a j g f b Z C V S D A M n v n N C C V n D - % +     @ ",
"S.G.D.F.A.g   P m N C A S G K I L D N n N A S Z n x s q r 0 2 u i * & 5 5 0 f h k z N S S C D I P G V m M C A A n * v x.c.d.f.n.",
"M M / N Z } l @ u s j x v M Z F U F n j k c z h ; 4 5 1 , : 3 u i 4 t z f p d t g d j m m x m H I D n k h h j j : t  .m.N.V.v.M.",
"; .   =   9 _ w 7 w i d f j c m D V x f d f u 7 3 a g w $   = 0 8 @ & q p k l r h h h j j k v N A M z g d p y e d ~ k @   +   . ",
"- + # % : + 1 [ 7 w u p p a f k l j s u i y 6 * d 0 6 F <.7.^ q j R 7.1.N 1 9 d d j g t t g l h j g d d a u 0 5 ] h   8 4 o : : ",
": @ . + & - > 3 W x X w i > c k l s d h y 3 7 d 5 6 w A _ ' F > 0 A } R z 0 3 f i t d p 6 r x k w x u f k $ x X.5 $ & -     & # ",
": = * - * # @ % l B g 2 2 u p 3 6 6 6 4 , ; < 5 2 3 4 s g f B C D l s i k g 2 2 w , < 0 9 5 4 2 g 9 w 4 5 i @.< % . % > # # - % ",
"> , < < : & & -   l ! 3 & c s z c M m x z n m x c g a V M t p j j q u n R I g f c x k l v l k M C 3 j 9 p O.7 + % + - 1 - - > - ",
"2 < , , < 3 6 9 1 ; 1 2 #.Z.d.6.0.w.w.q.e.y.q.4.s.R = > h k f r r h M u 2 w K y.0.f.t.7.y.i.e.u.8.C.v.q g 0 & 5 3 < < < ; - > , ",
"6 2 : : 2 6 5 1 4 0 > % e y > 4 & + @ ; < ; @ X   i S ( ^ m l c x c N C T H <   * : $ % 3 > + & 7 K g e   5 : 1 , 1 , - - - ; , ",
"7 4 , , 2 1 $     = o - t y f d 7 , , 7 q 5 , : w f 3 , w q 0 9 w 0 4 @ , t 3 > , ; : 2 > # 9 H t.N g 4 2 * @     & & % : ; * ; ",
"2 2 < , 1 < $   > < @ : e s h 0 t q 5 1 2 2 > * ; d p z I G n l v v M b Z M >   2 2 7 2 & 6 F o.w E 0 a o # 1   . ; * # : : & : ",
"; > > : < 5 5 < 7 = $ ; 5 u g d j k t > = 1 , + 0 n g j B g u f d e r a m c 1 & , 1 < @ > Z T j h i i 4 . < & = , 0 , @ - ; * 1 "
};
