/* XPM */
static char *_595818172861[] = {
/* columns rows colors chars-per-pixel */
"64 64 243 2 ",
"   c #2C2806",
".  c #332E07",
"X  c #383308",
"o  c #352D19",
"O  c #3A3517",
"+  c #2C291A",
"@  c #342C29",
"#  c #3A352B",
"$  c #3D3C2C",
"%  c #383625",
"&  c #352C37",
"*  c #3C3A3C",
"=  c #3B3636",
"-  c #2D2828",
";  c #281F22",
":  c #433B1B",
">  c #443D0F",
",  c #423C2B",
"<  c #423D27",
"1  c #423B34",
"2  c #433C3B",
"3  c #443839",
"4  c #3E4232",
"5  c #3D423C",
"6  c #364E36",
"7  c #3B402C",
"8  c #3E4019",
"9  c #4A4814",
"0  c #75711A",
"q  c #4A4426",
"w  c #4A442C",
"e  c #474629",
"r  c #534C2C",
"t  c #564A25",
"y  c #5A5528",
"u  c #444234",
"i  c #4A4334",
"p  c #4D4B34",
"a  c #45423B",
"s  c #4A453C",
"d  c #4C4B3C",
"f  c #454B3E",
"g  c #514C34",
"h  c #534D3B",
"j  c #574939",
"k  c #5A5433",
"l  c #585436",
"z  c #485239",
"x  c #645B39",
"c  c #655A26",
"v  c #757426",
"b  c #6A663B",
"n  c #797438",
"m  c #6C6B35",
"M  c #626028",
"N  c #3C3A43",
"B  c #372F46",
"V  c #433D43",
"C  c #453C48",
"Z  c #3D4446",
"A  c #3D4F4B",
"S  c #444343",
"D  c #4A4344",
"F  c #444B43",
"G  c #4C4B44",
"H  c #454349",
"J  c #4B434B",
"K  c #4C4B4B",
"L  c #434D4F",
"P  c #534C44",
"I  c #51454D",
"U  c #534D4B",
"Y  c #564A45",
"T  c #4C524C",
"R  c #485344",
"E  c #545244",
"W  c #54544C",
"Q  c #545B4D",
"!  c #5D5C4D",
"~  c #5B5448",
"^  c #4D4B53",
"/  c #4C4656",
"(  c #554C52",
")  c #534858",
"_  c #4E5353",
"`  c #545454",
"'  c #5A5453",
"]  c #565A53",
"[  c #5B5C55",
"{  c #55545A",
"}  c #5A555C",
"|  c #565B5B",
" . c #5C5C5B",
".. c #645A47",
"X. c #635B53",
"o. c #635D5B",
"O. c #695D59",
"+. c #775E53",
"@. c #5B634C",
"#. c #5B6254",
"$. c #5D625B",
"%. c #5C6855",
"&. c #6B6343",
"*. c #6B6648",
"=. c #746B4A",
"-. c #7A7548",
";. c #626255",
":. c #6C6354",
">. c #62625D",
",. c #6B635C",
"<. c #656A5C",
"1. c #6A6C5D",
"2. c #666B54",
"3. c #746B57",
"4. c #6D705E",
"5. c #787459",
"6. c #574D60",
"7. c #5B5C62",
"8. c #585866",
"9. c #4F4C62",
"0. c #625D63",
"q. c #675C68",
"w. c #5C6264",
"e. c #5D6566",
"r. c #646563",
"t. c #6B6464",
"y. c #656A63",
"u. c #6A6B65",
"i. c #64656B",
"p. c #6A656A",
"a. c #6C6D6B",
"s. c #66696A",
"d. c #746C6B",
"f. c #726867",
"g. c #6C7164",
"h. c #6E716B",
"j. c #6F7E67",
"k. c #737364",
"l. c #72726E",
"z. c #74796C",
"x. c #7B7769",
"c. c #6C6C73",
"v. c #6E6574",
"b. c #746C73",
"n. c #746979",
"m. c #6E7272",
"M. c #6E7877",
"N. c #747472",
"B. c #7C7473",
"V. c #767A74",
"C. c #7A7B74",
"Z. c #75727A",
"A. c #7B747B",
"S. c #757A7A",
"D. c #7B7D7B",
"F. c #827E1B",
"G. c #847C50",
"H. c #857A68",
"J. c #827C7D",
"K. c #867B78",
"L. c #917F71",
"P. c #7A836D",
"I. c #7E817D",
"U. c #7A8575",
"Y. c #868426",
"T. c #93962A",
"R. c #8F8F36",
"E. c #A4973D",
"W. c #A3A43C",
"Q. c #8B8848",
"!. c #9A9847",
"~. c #999858",
"^. c #908B53",
"/. c #A59C4A",
"(. c #A39A55",
"). c #A8A74A",
"_. c #AAA757",
"`. c #B8AB56",
"'. c #B7B65A",
"]. c #B0B44E",
"[. c #87856B",
"{. c #969763",
"}. c #82847C",
"|. c #838A7B",
" X c #868678",
".X c #928A7C",
"XX c #8D8C71",
"oX c #A59B6F",
"OX c #A7A465",
"+X c #B3AC65",
"@X c #B8B666",
"#X c #AAA977",
"$X c #B0AD7A",
"%X c #B9B775",
"&X c #C2B863",
"*X c #BCC26C",
"=X c #C7C567",
"-X c #D1D16C",
";X c #CFCD76",
":X c #C3C258",
">X c #7C7A82",
",X c #787886",
"<X c #7B6B85",
"1X c #857B87",
"2X c #827F94",
"3X c #7D8383",
"4X c #7B868A",
"5X c #7F8D8C",
"6X c #848582",
"7X c #8A8483",
"8X c #868984",
"9X c #8A8B84",
"0X c #85848C",
"qX c #8B858A",
"wX c #868B8A",
"eX c #8B8C8B",
"rX c #928483",
"tX c #938C8B",
"yX c #988B87",
"uX c #8D928C",
"iX c #869286",
"pX c #92928D",
"aX c #9C948B",
"sX c #979485",
"dX c #8C8D92",
"fX c #868697",
"gX c #918D93",
"hX c #968D9C",
"jX c #8E9392",
"kX c #8A9795",
"lX c #929493",
"zX c #96949A",
"xX c #9A9B9B",
"cX c #989996",
"vX c #A4998D",
"bX c #A39995",
"nX c #94A196",
"mX c #AFAA8C",
"MX c #9A98A4",
"NX c #8F90A8",
"BX c #A79BAD",
"VX c #A4A3AB",
"CX c #D4D383",
/* pixels */
">XA.6X1XfXfX2X,XD.}.[.XXP.P.U.5X4XiXkXjX0XwXgXgXgXdXgXdXuXwXkXkXjXuXuXuXuXeXuXjXlXdXdXfXwXdXgXdXdX0XqXlXjXkXxXcXjXcXdXMXkX5XiXnX",
"A.b.}.D.>XfX0X,XA. X[.5.P.U.kX5X3XS.3XdXwX0XqXtXtXtXgXeX6X0XuXxXjX8X}.8XuXpXjXcXhXzXzXdXwXMXMXeXqXgXzXcXeXwXuXuXjXcXzXMXcX5XnX5X",
"V.V.}.C.D.0X0X1XqX7X[.[.}.D.,X,X>XN.6XcXtX}.J.1XaXcXbXzXcXlXuX7XuX XC.}.sXsXcXcXlXxXMXzXhXhXcX9XlXpXpXpXpXxXMXzXMXMXbXVXVXVXnX5X",
"V.P.U.g.[ u.t.o.Y +.x &.x :.N.<X0.>.y.:.....=.-.x =.=.1.k.l.b.r.u.1.*.*.b *.*.*. Xb.b.n.y.[ 2.H.5.=.5.5.4.4.f.p.>Xq.f.k.4XNXVXNX",
"M.S.P._ 7 7 , O c G.`././._.(.b 1 V 1 o > v W.E.W.).(.G.: , V J = :.~._.].].].{.g 1 & V $ 9 v !.!.~.OXOX*.8 o $ 3 @ c b ,XNXNXNX",
",X,X,X| % 7 i l G.oX(./.)./.G.t Y ( h r M ~.'.)./.).!.b t 2 ( 0.( H.#X@X].).T.P.r D I I p b Q.)._.OX{.~.*.9 q j C j ~.Q.m.NXhXfX",
",X,X4Xe.7 z q.1XyX1XH.H.L.L.oXyXaXlXyXaXaXvXvX.XbXaXrXL.rXtXtXyXaXaX.X.X[..X#XbXvXbXbXaXtXaXaXaXcXsXsXsXsXcXbXVXhXL.'.Y.b 7X1XeX",
"4X,X,X_ O 7 q.hX6.H.q.H.q.q.K.f.O.X.q.b.n.q.<X<X1Xn.v.v.t.O.o.X.1.:.t.Z.<Xn.v.c.b.o.,.f.a.b.<X<XZ.B.D.V.h.M.D.v.BXL.:XT.m aX XD.",
",X,X<XO.o j +.1XY H.P.P.P.|. X|. X}.J.J.1X1XgXhXMXgX1X6X7X7X}.P..X.XuXeXlXgXlXqXpXsX}. X9XlXgXgXcXpXpXcXjXjXwXq.BX1X'.T.@.uXwX>X",
"c.b.n.' t G.H.1XY B.P.U.P.P.P. X}.I.}.|.7X6X0XgXgXqXqX7X8X}.}. X|.9X9XuXlXcXzXlXpXiX|. XnXxXzXeXpXpXnXnXxXxXdXi.BXL.'.R.*.U.0XdX",
"N.a.+...G./.H.K.W U.U.U.U.U.U.|.U.C.}.eXuX7XI.9XeXeXuXpX9X8X X8X X|.iXuXjXjXuXuXiX8X}.8XcXxXjXeXwXuXjXnXkXiXI.` hX[.*XR.-. X|.iX",
"k.g.H.j E.`.H.K.W |.iX5X4X8X8XuX7X}.|.9XeX8X8X8XqX9XuXpXeX8X9X9XiXiXeXeXuXuX8XI.8X8X|.6XwXuXeXlXuXkXkXnXkXuX8X} gXaX%Xm 5.9X8XU.",
"1.1.f.t E.`.G.K.Q I.5X5X4XfXeXuX9XeX9X|.8X9XeX9X9X|.7X8X8X8X8X9XsXpXpXuXlXuXeX7X9XpX9X9XeXlXlXlXlXlXlXcXpXlXuXy.MX7XH.e e.0XfX5X",
"u.4.f.t E.`.G.K.E U.3X4X4XfXqX7X9XpXeX}.}.iXsXeXuX8X|.8X8XqX7X8X9XeXeXeXuXlXpXeXtXuXwXuXxXxXzXlXlXlXeXwX8X8XI.] bXa.U & s.fX,XNX",
"b.b.n.j E.`.+.1XY I.0X0X1XgX7XK.tXtXtX}.J.|.9XpXpX9X}.7XqX|.7X7X8XqXqX7XwXwXqX0XwXwXeXeXMXxXtX0XMXMXzXjX8X}. X~ vXX.1 u x.iX4XwX",
"m.p.f.j (.&X+.1XP }.0XdX0XyXyXrXtX9X7X7X}.}.7XsX9X}.J.|.}.J.V.C.eXwX8X7X7X6X7XD.qXlXgXgXzXeXqXeXhXzXlXeX8X}.}.@.vX,.3 3 1..XU.U.",
"r.g.;.p $X5.X.K.E z.D.U..X.X7XJ.7X|.7X9X X}.|.}. X8X9X|.J.}.7X}.9X6XD.I.6X6X6X6XcXuX6X8XeXpXuXlXcXzXeXeX8XwX8X] aXt.= C N.l.V.8X",
"e.e.<.z 5.g U A.d k.V.V.XX|.7XS.B.N.}.|.}.}.9X9X9XpXtX X|.8X|.I.6X6X6X8X8X6X8X8XlX8X6X0XwXwXwXeXcXaXpXjXuXjX0X] eXr.V = } y.m.U.",
"e.$.e.p < % ( A.a g.z.V.U. XC.b.l.l.z.J.C.P.}.9X XU.C.V.J. X8X}.I.6XwXtXeXwXeXuXeX6X7X8X9XqX8X8XtXjXuXcXuXwXD.K 1XU , 1 T h.h.s.",
"$.$.%.G O < ( b.S g.N.m.P.C.A.c.N.u.B.U.V.C.C.K.C.l.u.k.C.9XaXuXD.6X9X9XeXwXeXeXwX9X9XwX9X8XeXuXjXjXuXjX8X6XV.K 7XP k *.! V.s.m.",
"8.i. .s O w I n.S h.N.m.z.z.>XZ.N.u.l.C.C.V.C.N.C.z.u.u.V.|.8X}.I.I.6XI.6X8X8X6X9X7X6X8X7X8XeXpXcXlXuXuXiXU.C.U 1XX.~.^.~ u.i.S.",
"8.7.7.u % q I 1XJ d.N.a.l.V.1X1XC.l.z.}.}. X7X}.B.l.l.h.N.z.B.l.D.I.D.D.D.6X0X}.6X3XI.I.3XI.0XeXjXwX0X8XU.C.V.W rXH.@X!.k K.>X>X",
"8._ } u o : } 1XK l.V.h.l.l.D.D.B.V.C.J.C.U.8X9XC.V.V.V.C.C.C.C.S.I.I.D.D.I.}.0X6XD.D.I.I.I.I.0X>XS.S.3XU.z.l.Y qXH.=XT.b yX1X1X",
"e./ } d O : O.A.U V.V.h.u.l.N.l.V.l.V.N.u.d.D.9XC.l.l.f.u.u.l.C.V.I.6X6XI.I.6X9X6X3XI.6XI.I.D.D.S.S.D.8X3XU.z.' 1X5.-XT.=.1X>X1X",
"8. . .u . ^.:.d.U l.z.g.l.k.l.l.d.l.l.V.l.l.u.d.C.C.C.C.C.V.C.J.D.6X0XC.V.3X8XD.I.I.3X6X8X6X6X8X3Xm.I.uXiXV.}.' gXH.:XT.=.K.A.n.",
" . .o.p n $X:.B.D g.g.4.l.u.k.l.g.l.l.l.l.a.u.y.h.l.C.D.C.N.N.V.D.D.I.V.N.I.wX}.}.}.8X6X6XD.D.D.wXS.3XuXiX X}.W 1XG.-XT.=.H.v.1X",
" .[ o.w +X%X..B.s 1.4.4.h.u.g.g.u.a.a.l.u.u.u.y.>.u.V.l.l.V.l.u.V.V.D.N.N.I.eX6XD.0X6X6XV.c.l.Z.S.m.D.3X9XiXuX[ 1XL.CXv &.7Xn.A.",
"' Q o.q _.+Xx d.a 1.4.<.u.u.f.1.u.u.u.a.l.l.h.a.y.h.l.a.l.l.l.y.a.N.N.N.N.I.9X6XI.6X6XI.V.V.V.V.}.0X8XI.}.|.6XU 1XH.oX9 ..9X>Xs.",
"! W o.r !.+Xx 3.s u.4.4.h.c.k.u.u.y.u.a.d.l.a.u.l.d.a.a.l.C.l.r.a.a.N.V.N.I.6XI.6X6X6XI.I.6X3XD.3XeXuX3XI.8X8XW gX,.k O ,.l.h.w.",
"[ ~ X.l !.@X&.O.s u.u.1.Z.m.l.u.u.y.y.a.h.a.u.r.y.y.u.l.V.C.a.>.a.a.V.V.N.D.I.V.I.D.D.D.D.6XD.V.d.0XwXU.3X8X8X| 7XO.% # o.s.a.$.",
"X.' X.r !.'.&.t.D y.1.y.c.c.a.u.y.u.y.u.a.a.u.r. . .>.a.V.N.a.N.m.l.V.S.N.V.S.N.N.S.V.l.l.V.V.h.C.eXwXV.3XI.D.K J.0.N V ` M.m.e.",
"$.[ :.e ~._.l B.D y.1.>.c.c.a.a.,.r.r.a.a.a.a.r.>. .>.a.N.d.D.wXV.V.C.S.a.m.V.h.a.V.V.m.a.N.N.N.S.wX8XC.8X8X>X` eX( & H ` z.%.M.",
"$.$.Q l [.w ~ B.K u.4.2.<.$.u.a.r.>.r.y.u.u.u.y.t.0.y.V.V.N.D.6XA.V.b.u.u.a.V.N.V.V.N.N.a.a.c.N.>X>XI.iXiXuXiX{ 1X` D @ X.g.%.h.",
"e.y.@.d ~ % ~ B.G a.g.<.1.,.u.a.>.>.>.y.u.a.p.a.a.r.i.c.N.Z.d.Z.N.V.h.a.r.s.h.d.a.a.b.a.a.l.V.N.m.m.U.U.U.iX8X{ tX' @ 1 l 4.%.e.",
"e.e.#.p + o O.d.H a.g.g.4.1.p.p.u.r.>.y.u.a.l.N.h.a.s.a.N.S.Z.a.a.d.a.a.y.u.a.N.a.h.l.a.a.d.N.N.s.s.y.P.j.V.V.K 0X[ O l l 1.>.>.",
"e.8.#.d @ $ t.b.V i.g.u.g.>.t.i.u.>.>.>.r.a.a.a.a.a.a.a.b.V.N.a.r.a.a.a.a.a.l.Z.N.N.N.b.N.N.N.a.M.s.w.y.y.<.y.K B.:.5.^.g u.<.y.",
"8.8.y.f u , o.b.H i.u.u.u.r.p.c.p.y.>.>.>.u.a.a.u.a.a.s.a.a.m.a.a.a.a.a.N.V.V.N.h.N.a.N.N.N.N.l.a.c.e.a.m.s.<.Y J.3.mX^.g u.>.y.",
"8.e.u.a , O Y A.J a.h.u.a.y.s.b.a.t.r.r.y.u.a.a.a.d.a.m.b.s.a.a.N.a.u.a.b.N.N.N.b.N.N.a.d.V.a.i.r.a.e.c.S.V.y.E B.*.;XR.w u.>.,.",
"i.7.y.d O : ' J.K m.l.h.l.u.a.c.a.u.u.u.a.d.m.d.S.d.c.N.N.a.a.c.a.a.r.p.a.a.a.N.V.N.N.d.N.N.u.$.r.b.i.v.S.V.1.h d.x ;XY.< o.o. .",
"i.[ ] h X c O.J.W l.V.z.l.u.p.u.d.g.a.h.l.l.V.N.V.a.y.a.N.a.a.l.u.r.r.r.t.y.a.N.N.N.h.N.N.D.b.y.V.D.c.i.Z.N.<.d H.5.-XT.w ' ' [ ",
"] }  .< m #X:.H.P z.z.g.h.y.f.u.u.a.l.V.l.a.a.a.y.p.s.y.i.a.a.p.a.a.r.y.a.a.a.a.a.r.>.a.N.d.a.a.a.s.c.Z.p.N.1.u B.*.-XY.q t.` o.",
";.Q ;.w Q.%X:.d.E j.k.g.k.y.u.u.y.u.a.u.y.,.y.u.r.y.a.p.i.y.r.w.0.>.o.r.y.a.a.u.r.0.o.y.a.a.a.a.N.c.c.c.i.c.1.d f.3.-XY.r o.} r.",
">.E ,.r _.+X:.d.h 4.l.g.l.u.u.1.y.y.>.>.>.r.r.r.r.>.0.y.r.r. . . .} 7.r.p.a.p.r.r.o. .y.a.a.a.a.a.s.s.w.s.a.[ s t.3._.9 g } 0.} ",
"] W [ q !.`.=.d.h k.x.h.h.y.1.1.r.>.>.>.>.$.o. .>.[ }  .o.7.r.p.>.>.r.u.y.a.u.r.r.r.r.i.y.a.a.a.p.a.y.w.h.h.] a b.:.m X p [ w.{ ",
"W X.' < !.'.*.f.d k.l.g.a.r.<.<.>.>.>.;.>.>. . .$.}  .r.r.0.r.a.r.>.r.r.r.y.u.u.a.y.p.y.p.u.u.p.a.m.y.y.j.h.] S A.o.: X d o.} | ",
"' O.( r ).@X:.q.i 1.k.r.a.>.o.>.$.>. .>. . .} [ [ } $.i.i.y.7.r.r.$.$.r.r.r.a.a.a.a.a.y.r.r.u.r.c.s.$.%.e.g.$.Z n.' % , d o.` | ",
"~  .) 1 )./...f.u <.u.i.i.r.t.>.>.r.>.>. . .$.$. .o.r.r.r.r. . . .$. .o.0.y.u.p.a.a.a.y. .>.r.7.s.| ] %.%.y.7.Z b.I 3 1 d ] ^ | ",
"G ] 0., !.n Y n.2 >.u.r.i.i.y.u.r.u.y.>.$. .o.y. .r.7.] | o.r.>.}  . . .}  .7. .p.a.a.o. .}  .7.s.] @.%.%.g.r.C A.I V @ G [ | _ ",
"G W ` G l o O.b.3 o.r.y.r.0.t.>.;.>.r.>.y.t.p.u. .7.o.r.$.$.>.r.[ } } } 7.} { } q.i.>.}  .7.0.8.e. .@.@.2.1.%.G n.q.3 @ $ E $.R ",
"z Q } D $ @ ( n.V  .;.#.7.7.>.:.[ $.$. . .>.$.r. . . . . .#.[ [ >.[ ' { } 8.8.7.r.y.o.] ' } 8.} 7.7.@.@.>.u.[ D n.C , j , P F L ",
"z R  .S - 3 C b.N  .#.@.| 8.y.r.$.$.$.[ [  .$.>. .$.;.$. .] [ ] $.[ ` | } } $.$.r.r.r.$.} [ | }  .[ ;.<.i.i. .C f.3 x -.q E 5 T ",
"z f _ V # 2 K p.S $.%.#.w.8.i.r.$.$.$.$.$.$.$.y.>.$.>.w.$.$.] [ ] Q ] |  .{ ` ` $.$.;.$. .]  .w.] ]  .w.7.q.} V q...+X^.O d Z ^ ",
"f F K V # # P y.5 #.%.%.w.w.e.8.| $.$.$.$.$.$.%.[  .$.[  .] | ] ] Q Q ] | _ T T Q Q @.#.Q Q | #.] ` 8.8.9.8.6.C O.x ;XY.. u S / ",
"R T ` 2 % o P >.* ] %.#.e.8.e.7. .} $.$.r.$.<.e.] #.#. .#. . .$.;.#.` Q ` T T T W Q Q @.] Q _ ] [ ] 9.9.9.8.) 3 +.y &XF.O 2 J H ",
"T T ` 1 o k l *.4 [ #.#.w.8.w.| } 0.r.o.$.>.,.;.] #.[  .}  .r.0.$.$.] | ` ` ` T Q T T Q [ ` ` ] @.W ) 9./ ` ( 3 +.c :XF.: D J / ",
"^ K ] , > ^.b *.i [  .7.7. .;.[ o.0.7.} [ [ [ X.! ] [ ' ' } 0.0.} { | | 8.` _ K G G G ] ] ] { { ! E ^ ^ T ' U , x x &XF.X U J / ",
") ) X.o ^.+Xc =.E I U ^ / G g h C 6.6.C C C Y G a P Y D ) ) C 6.6.^ ) ) / C C / S H V 2 H J J C d d f 6 7 e w u ..t =XF.: ( C C ",
") I ~ : !.`.c c X.t.p.q.v.d.=.b ..Y j ..+.3.o.X.,.o...X.+.O.O.,.o.u.b.q.i.b.t. .E E s s Y ( U ] ! ! @.@.k y k l 3 x `.c @ C C D ",
"6.J Y : Q.+XG.=.X.I C C & @ t n 0 0 v n x 1 1 3 V @ 3 =.G.0 0 0 -.k q q e O X q b m m m =.k O % u % % 6 m m b *.+.3.G.> @ 7.( P ",
") C j q G.+XoXoX2 @ & & = 3 -.%X].`.@XOX=.% ; & - - ..XXOX_.].`.{.q     .   e ^.mX$X$X#X{.b O   # + 7 @.{.#X#XvXvXH.:   2 ^ a * ",
"_ K K $ y y k i a K D = 3 D k y t r r g u # = S C = d ..l g x k u # 3 a s a i ~ p e u p h u @ = * & % p r e e p Y 3 o < d ^ _ _ ",
"A Z _ f h g E P D K E a 2 2 w < j d 2 2 a F G F * N S S 1 2 s Y K ( ( V N J a a f a $ u a 2 * Z C N # 8 7 $ 8 i I C g ~ a S Z 5 ",
"6 A L S K a ( ^ ( S u 7 # @ 1 ..2 D D K S 5 4 5 5 F F a S D 2 D H V L J L K a F 4 4 4 4 d S * N / N # % $ a 3 3 C ( s ~ F | A A ",
"6 A Z Z _ H ^ H J F 6 % = 2 3 1 D D H F S 5 5 A 5 Z 5 * S V * D N N Z N C K 5 4 $ 4 $ $ 4 5 * N B N = = = 3 3 3 C C a E R L B A "
};
