/* XPM */
static char *_595818166200[] = {
/* columns rows colors chars-per-pixel */
"64 64 72 1 ",
"  c #221A07",
". c #241E0A",
"X c #2B1F0F",
"o c #2A220D",
"O c #2E2512",
"+ c #2F2916",
"@ c #312614",
"# c #332916",
"$ c #352C1A",
"% c #392E1C",
"& c #37311E",
"* c #39311E",
"= c #3A2E20",
"- c #3D3422",
"; c #3E3926",
": c #413525",
"> c #423926",
", c #473728",
"< c #453C2A",
"1 c #493E2D",
"2 c #4D3F30",
"3 c #46412E",
"4 c #4A412E",
"5 c #50452F",
"6 c #4D4432",
"7 c #4E4936",
"8 c #4E4B38",
"9 c #514635",
"0 c #524936",
"q c #584D37",
"w c #554738",
"e c #554C3A",
"r c #594E3C",
"t c #56513E",
"y c #5B513E",
"u c #60553F",
"i c #5B4F41",
"p c #565340",
"a c #5D5341",
"s c #5D5845",
"d c #5E5B48",
"f c #615544",
"g c #635A45",
"h c #665748",
"j c #655C49",
"k c #695D4C",
"l c #6C5E51",
"z c #65614D",
"x c #6B624D",
"c c #70654F",
"v c #676451",
"b c #6D6452",
"n c #6E6956",
"m c #6F6C59",
"M c #716654",
"N c #726A55",
"B c #786D57",
"V c #756D5A",
"C c #796E5C",
"Z c #76715E",
"A c #7A725D",
"S c #767360",
"D c #7D7462",
"F c #817563",
"G c #827965",
"H c #857C6A",
"J c #8A7F6F",
"K c #8A826E",
"L c #8D8471",
"P c #918575",
"I c #928A77",
"U c #948B79",
/* pixels */
"xNBABccNSNmzxBzzmnmSnvmSvdvSvzvvnnDHSnnvmvvdmVjDHAABzgggxcSGBxzc",
"xxNAKABNnBGNzxzbnp8pp8778;78878737pdsp8737w3pp7vZVxbcxguccBBNxxB",
"cxxVDSBNBNGZjbNx3&+;3;;;=&&==;;++=77<;<$+-;#;;$<xAANNzyuNccNczxc",
"czxNDSNxNnGSjxva==7ippdp8888es8-3pjdipi<1pawrprasBNzNxyxggvNcsuu",
"cxNAGAnzgvLD6671O;881ea6t8weesw$1ehr67w;:2960wyw5q44cBzuggzxzuus",
"AABZSBBBbVDp$=;<19w26shwsaiaadr:6rgiwii61w929wyw;3*>uNxzNxgzzgzc",
"cccBNxxcDDZw-:;<2:::1ihrw699692:9wir9ririf9w92r23444qzxzu55uzgup",
"#>zBNu3;aDPmi6;22::6eihkewww99w2iiffrihhhh9rw9hw5334qcxq#+*5gu;#",
"q53yAKx*<6CIHsw;192,wahbair6,,,=2wrw9whlhhrwwyrr9-tjjvw+&*qns;;u",
"5q53uKKc36sCNHj7a29i2iMllw::,262,,,::2fhk22rhirr67gVA6.-5ucp;*5s",
"5pq35xKKv6-7SlJb9h7-ilsjr:;wirewiMBhw16wfiwwrhha0qAC0==3mcp;&385",
"8qyq58zBKg14,mjLliwwwhi::,abjieeiw2ijh9%,wurwfhhgsntO;hjSq+#>775",
"qquuy555NJC<1;ZbJhipe:;-2ambr7eprfhaahkl2:,ia2rlVh1$2isZw-$<535q",
"8qq50t83iDJm1a<hMJb2<-=8esjhwrjjCliwwrr9h,%,wihMv6=-aGni$-367788",
"qqt77qe46snDHii8amHl-2jieeispisghklaw2wrhh2:9MFl7=6psSl$-1417yy5",
"p8quq3366winDDi78hZDm82dsiiha69efrw9wfiwwrfhlCli;1jCV6+;76<448yt",
"qqqq555q9rwwNLDa$1jALDjtsyyga067yt44asyagtejAb< 6sbby&*f99w100r9",
"qq8qqqqt9gjrfJUb661vHUb0eagt8w000e64eeesayjVg;*4shVj&-099qf0rwfy",
"qqqqyusy9yrqfrhLCjs7DDHbttq0eett60740ttgsbny>-6szVe$<e9wqgjrqwhh",
"quuqyuuy0109#,hhGJji<jzHxe37ysastt7670tanNs;-wxzb6;-;9yqahhy99fh",
"quu05yqq46%%ri2wDDK0e;gCDbt70asgaa03;4agny<1tjxb1=<7-*1yruu929yh",
"quy5qyy41O:jhrie0AKKy86bDHVe30aaayy6;0bZy3-6nDx6+8tet<%4299w5rfk",
"uuyquxy-Ows9rhiw-0ZDZe36jmDna60saetyybCz<37aVDa$03aa40q:,9whrhhl",
"kgqqgcqOrw97wri6864bKD0*66xLD04aze8gCGz$$4xAb7<40ae3436g,9rchkhc",
"uuqquku#g552296947-7bADya0bnZCasxybnbx4-syjb0*<ye74<6w06#ghkuhhh",
"uq5uuhq%u1552w696036tzDAZCGbjNzVDxNnbCNZtCb<$<60e7660yr0Offfqryf",
"uyqgkuq%q1946w996e3<<6NHNgbzNNtastbVjgxDnN6$307766460ay0@hguqyuh",
"uuqhckq#w,996w26e64436jA0$3bHj$<-<jVa<4dV7$4g030443370e9%fhhfhhh",
"uuugjkuow1991666e70t7esZ3$7nDtO730zV0$3jz>>y0376774360w9#ywuflhh",
"uuuuuku#0409162657y07egD6<wxAj*tesbVt-rVA><y4<e0yye670e0%uwyhMkh",
"qqqyyuq%04yq992974y04tgD4>7jGx-tazbZy<abL<&as0eaggyteyww%r99ykhu",
"1,>51>:ow9ffrr9wyea87gjB71tNDy$bbBCDs3sbb3-yzyyzasytqrqw@2:,,q52",
"ihfr901#9quuqqyhjaweraxV6<jDDg<saxDD03zyj*677jjvlawwwwwwOe2ikjwa",
"hhhr901@5qyq05quf060rgbC6>sADa-xgyBAs5zuN-<6rjaeiwweiage$i2rhgeh",
"ljhiri9@0ugyqquur967aszN4-0CLn>jyuBGy>qyb;4tre3e667wwsaw=i2wisil",
"ljfaghq%rfhuquuuq00rtagz<-6zGz;aszBAq*yzj-6aw<;p26wwwii,#iwrihhb",
"jaiajkr%rufq000500rttyjVssxxMkeBNccnuzABbsr62911weiewie<@eihfhjl",
"hiwigh0#fufyq5516670yhnDKZZjbBvANSBBBDKAmHGt<78<wwew9ee2@iajihhg",
"gewyfg9#hfugu0903<10zNzabyxhuhqqdxcBSNNsiHUZi<wew6wewww6@ifhwiaf",
"awwyjh0#u09uy090633dDAe#O*AHy1-1545xKc0#-pZLZ2<eawrpiww6@raa6ehh",
"09quck5Oa<1fj910<egZn3O-9xFM1#1gxq;3zAAB5;pcDSiwjeehw26w$whfeafi",
"ufggkku0#900hxa67yzne$&ycFk:%wf0uuq3qscSnq;5mDmi2lleia2#:wfiwiff",
"xxkhgjkhf-:erigwszz3#<gZFh,#1hcfuuu3>5uNKm35pjHDiiwah-%w2iiierih",
"xjgugxhujh1%199kVs4&&sDDf:#9jhhNuxu3>;5pDHBvieVLD6ww$<h69wiaieih",
"uuuuuuufawgr%,xVm3&3yxbs%%1ukllhggu55333nNKKmyrNCPiXwlw66wiie9wa",
"qyu555ukwgw9hggZ&&3tzVy$:2qruhhiuzdq85358uGKDx30MllVjhfw66ww22wi",
"qqy5,5yhaai6iDZ*.3ssjs4$99wrfufhgxgq855p7qzBZne<,iHJbiai99666www",
"qqq00qyuw9rlCj4&38tvj&O722rrrhlhxgq55555us3qmZn*2rlAZa1w6w6wise6",
"qaayq88y3ggsg4-txNcy:>901ffrihljff049646qjw<aGHV7wesjDv;177<2iip",
"qxxy00qt6gAj&*yjAHj*$,0fNi9wiiiaff01116qrg0%<hCDZp7<jmCj<;178337",
"gjse800ybbg3*6xDFc::g,OyhfreihlhMj61wq4,a:#4graNDZ666vbZp61pi77e",
"jste75ycHs&&0xZDu:5h05q%1wiiiii71wayw4,1%wjffhgabDS17;sbni<;1776",
"tjzq55zKz*;ygNAy*quuu00f:<rji21arr09rq<$ykgwjCk4iSVZ73-snba<;wp7",
"4gy5txgy#*qNAZy&555uf09fl6=<hhi,9ar1**:9wqryy0wjw7VDLw<;yVZs7psr",
"5q07sx4ooqxNAu**5j0:hj11wlMw====::%%,966<r0<0hu93<eHKDe--7jNzaw7",
"70yxz3##5sAKy$*5y,9f06wfgffhjdw,9yfrrr941ggwwrqrr177mKA3*&7DHb07",
"quuzu88uxNSq+;5q055514wfi2ii7ii=,erhCx946fhgf09944>4uNBceyjxAABg",
"zzcczuucBccq;553q951110yi2wi2w7=10wgbjqw9aaaaw69>4>4gxxggnBAADng",
"uuuzggzccxcg5q8q0q5,,100w12i222=10qahhfgwrrqq4,6qqqfBBckuxMBBNxu",
"czugxcNBNnSBxxxc0qq54009i6272i2=9wiagaagreryr4<0xxxBGGBcuxcNNMxx",
"czuuxcBSBccxNBccqrq96961e912wi1=<6wq969919ray49fNBBBGFcugkccckxc",
"cxuuzcBBBNczxcuzccMxhgawaiwifhi,ryhhywq0fkklkffxBFAFFBuhuukcxkcB",
"ccccccBBNGGcxzgNGFFFDBMMlnljlnljMMDFMbMjCABVBMcBBFBBFuuhugxBBccF",
"szxzxgsudccqugugxjgjhfigwaiiierifakMfagrgfrwghffxcccuuuuuuuxcuuk"
};
