/* XPM */
static char *_595818151417[] = {
/* columns rows colors chars-per-pixel */
"64 64 46 1 ",
"  c #030300",
". c #080702",
"X c #0C0B04",
"o c #0F0E09",
"O c #100F0A",
"+ c #111107",
"@ c #14130C",
"# c #18180E",
"$ c #161511",
"% c #181713",
"& c #1C1B14",
"* c #1F1E19",
"= c #201F1A",
"- c #212116",
"; c #24241C",
": c #29291F",
"> c #262521",
", c #282722",
"< c #2C2C24",
"1 c #2E2D29",
"2 c #302F2A",
"3 c #313126",
"4 c #33332B",
"5 c #39392E",
"6 c #363531",
"7 c #383732",
"8 c #3C3C34",
"9 c #3E3D39",
"0 c #403F3A",
"q c #414137",
"w c #44433B",
"e c #49493E",
"r c #464540",
"t c #484742",
"y c #4B4B43",
"u c #4E4D49",
"i c #504F4B",
"p c #515146",
"a c #53534B",
"s c #59594E",
"d c #565551",
"f c #5C5C53",
"g c #5E5D59",
"h c #616156",
"j c #64645A",
"k c #6A6A60",
/* pixels */
"8w<*<+<#=<.=<+=yp3.-3+:#$2o,$,ur99<%<@<%&;.<<o;ey3X;<+>-#4.,%,09",
"yw5e+ 4833X.8;8q5p:5. ,463.or90udr8y+ <43<+X7=q75y:5X.,441 Xu00d",
"a8a89;7  9<8+.&ew: +8<8  2<wrg7tr8uwq;9. 838+.&we:.Xq45. 61rtg20",
" 8ayq8,-3, #5;48wq#3&X:;1162riuo tiy83<&3; #7;88wq-3#.><<222rdrO",
"%<&<9e<3<,+&4#28q8@3&X<<*19u9%2X%4&3w83<,,+&4#4wq5#3&.;<*20ir*2O",
"w;+#qtwX 63e@ &wq: @9,5 oi9t*.197=o*yyyX 83e# &te-.Xq34 Odrt* >0",
" 5,9%4w8e= +8<y48a:qX <w9t9;t12 .53e&784y, +w<t8ee:5X.,q207*u16.",
";8 @539eq7%7- *ep: =5%wwu698oX,1<4 +588p8q%4> &yy:.-3#qwu7r7$.>1",
":&X,3+4yae3,;.>we4 -435pd0%,$O>>>&X;4o4pf643-.<yw3.-,<9yd9%1%.12",
".8<q+.,73ur343e4qs44<8y99= %r,7..8<8+.;85aq<q344qe<4<5e8i= $u69 ",
"<<.X5,8  8dq% ,ye: -qaw+ 9=0$ >6<4X+q<8  wi0< -ye: &ea8@ 96u. 17",
"+4#4-.3:<33wu:8ye4;pe44:16 $2%2Oo8&4=X3<<34ay&tt5w3ye44,21 $71r.",
"#4#4&.,,-<>5fsgeeaes814**1.$6%1o@4$3-.=<;<;wdyjq4hsp433-*,$=2$2$",
"4&.X8<4..;,;45ayqe5q3<<X 619O.*23;.Xq13. 3&-wqapwp4842,+ 6,9$ *0",
"+88e&-<qy7&;pya75hff2#<wu1*&r99%o9qy;><yy8$-jjdeehsj8&,ru2%$u09>",
"pwywtqwteaywy5e84p4wtwyuu9ru0trrrwywprwpywauytp85eqe9titriutru0i",
"yyw8y0y8watweww55we5we5pur6tr99u8rwwy8wweytqayyqqqpeee8qeequ7wuw",
"&4&4##,7:<&,yfa08fps:X0<11%$9,6$@5;5#&:8<,-:ahheqjpp3X535;%&8;6$",
"8=.+q:4.+,<<4wyyef5p0;w. 016o.>2<>.Xw<4.@:3,88aaej3qq-5XX8:q$ *7",
"X7-7&.:;;<;<wap88jfew3:<16 $9*1o.7;4#.,>;3<,euaqqsse5:3-<4.#7=4O",
"@5@;$X3;#585<;47w5:&5y43=1.*6$1$@8@>&o3<&8e43;68q3<-4e3-&4X#1%6$",
"5<X+q18 @wdw% -wy-.#wsi@ 92r$.167<.+e<5.+wgw* =ee: +wpe+ 939$.,7",
".43wo.&qeq<48489qe4e4>y5r* $617  4<q+.&8w533838qqe5q4-q8w- +914 ",
"5&+%,&5y8w84&.&9w4.X48wyu1=6$.>13-o@<;8e8w01&.;ee3X+<5eqw2-2$o-2",
"=4X$4<4pyw+3;.-ye:X:4X4yg632*.6*&4@#414peq@;=+;ee3X;4X4sa84,&X6=",
".3;w;ww84;.+q;w8qp:5X.;q4ua>0>7..6<r-q048;.oq;q7ws<4+X-84we&t;1 ",
"w;X#wyyX.4,8$.&qq:XX834  tyr%$>68*X$wyp$ 3;8#.&tq-.Xw58  yty=O-9",
".<=8y8,;4:.@3&58qq-3%X;<822r6>1$.3>qy8,;<<.+3;qqqq-3&X;:244q2=1$",
".yy8433<->X&3$49e5+:-+;>*12utt0.oppt533,&,#%3%58e5+3&X;;&33qta0 ",
"85atw;4. 838+ &9e:.+w34  7&99d0r88ayy;5..7<q#.-we-.+9<qX 8%80d9u",
"w85wX.3783..53r34p4q+.-592.Xutt0uw8yo ,47; X8<eqwp5w. :474.Xu79t",
"y5*X3;3X.<-7* &ee:.#5><@ =>6%O6tu5&+4;3X.3;4& ;ep- -5:8+X3,2%$6t",
"85>$3#,$+4-<&X<tw4X-4#1+$1%2$=9t84=#3#<#$<@<;X;rs3 ;8#<#&<=1$=70",
"yw8yo.,35> Xq,w55e;9+ ,51, $t60iu04y#.<33,XX7=q58p:8+.3512 %0r0i",
"w8pq8=8X 4;q& #te: @t<8  7>tui77r6y8q=qo 5<w# %ee<.@9,8. 4<9iu77",
".wpy84<-;,X#3&7qew#<%+4:11,6riu. wyy83<;3;.&4&4qee&3&X<3<2>60iu.",
"#4$<qq3<=3@#,&58qq#:&X4<*,9u0*2o+3&4r8<<<<.#4&44qq#3-+<<*,9i7=1O",
"5&.&yap+.63q@.&qe; #w;8 $uur%.*97&X&wty@.838+.-ww:.@e38 $ri9= >0",
".4<w&8w4q, Xw<w8qy;qX <t709=t17 o5,8@4q85,.X8,w8qp<8X.39202,022.",
",3.X47wf89%4;.&qw: &4*w9u778$.2,>3.@888ww5+4;.&ye<.&3#w0u997% 2,",
";;+=3@5yfw::>.;qw<.:33qudr@>%$,1*;+=<+6yyq<>;.<we<X:4<9yd2$>$$>1",
".8,e# =w<tw383t58e35<4wwr, $r>6 .7,8+ -85t835,83ww<359ayr%.%9,6 ",
"4< Xy48 .wfy- &8q; -ea8# 6*r$ ,23<.Xw<5..4uw*.=yp: &yaw+ 6,0O.,2",
".8;4%.32<3<wi<7wqq<ey84;,1.%1*9O.q&<*+4:<338y:8w8q4yi85,>2 %1*9$",
"#4+:-+>&-,;5hfgqqhpp543&*1X&2*6.o5&<&.;,&3:3adf85hhsw45;>, *2%2o",
"<;X@q&<+.<<,78ayep5q63;+ 618o.>42-.X8;<..=;,85aipa588,;X 9,0% *9",
"&85t,,<ye5#:sfheeffk8$,et1*$rrt=$08y=&:ey4#;fdfeqash5@1uu6%%i79=",
"etyqpyyywdutaqp88e5yyyuwttturiyyyuy0yewwwaw7yep43ewet8ytrd0tuurr",
"qr08y8rwp8yweyy85eeq8qeqeeeywt9wytywywqweqewe8y43qeeeeeqepwqwy8t",
"#8;4##;5:7.;gajwwjse:+:<3&--w24#&5;3@&-7><#-fgaeejse:@343;%#0<<%",
"3,..q<6 .8#<y4hyes5qq:3+ 3:w@ *74:.Xq<4.X,,;q8epqs4qe<3X.5,q$ &7",
".5;3&X,:3;,<eaf8qseeq-4:<, #4%4..8;3&.,;<=;<eus4qheeq;5:<<.#6;6O",
"@q@;&X3;;-y4;<38p5&:8q7;&2o%,%7@+5@>&X3;-<w5<=85e5-;485:&<X&1%9O",
"8<.+w,4.@wf5=.#pa- #eg8# 8,0@.1853.#y,8.+td8= #yq-X#es8+ 8<t$.66",
" 3<9+.%q0w1>e35tqq585<8wq; o9>6 .8:w#.=8ww<:e34wee53<:qey= #0,9 ",
"5,#@<;8yw4y4#.;wp5 @34ate8*2-.*13:X@<&www8w8& <qq5 +34e5e7*7=X,1",
">4+$4<4apw+<;.;yp2X<2.8pg962*.7>&5+#3<5aaw+,:X=we3X<<.8ea744,X4;",
" 3;q=8w85,.Xw:w8wi-4+X2970r=r=2  4,q*qr87;X@q-8qqe-4XX<87pe%e>6.",
"e;+#qey+.5<w&.&wt< +93q  rtu*o=99;o$qwt+ 7<9@ &ye3 @w<5 .yyy=%=8",
"X3;8t8<,4,.#4&488w;4#.2422601=1$ 3;8t8,;33X+3;q8eq-5# :3,,3e7=>$",
"Xyw8344,-;+*3@3qw8@1*.,1=11rti0 oyrq543,=:+&4%5weq+3&X<:;<>qyu8.",
"q8aww;5  7<8@.&0y> @r,9  9*0rdruw8pww;4  4,y&.#ee: +q3q  q&68d9r",
"0q8to.37q<  8<w49a10o 1702 ou7ruy97eX 38q, Xq:w8qp<8X.,443..u770",
"tq>+3*3++,&5;.&yu1 *2%2%.,,2%%8udw;+3*3@X<&3&X;wp< &4#3@+;&<%$7d"
};
