/* XPM */
static char *_595867779307[] = {
/* columns rows colors chars-per-pixel */
"100 67 227 2 ",
"   c #020203",
".  c #0A0203",
"X  c #010A03",
"o  c #0A0B07",
"O  c #04040C",
"+  c #0A030C",
"@  c #02090B",
"#  c #0A0A0D",
"$  c #110003",
"%  c #1C0401",
"&  c #10000C",
"*  c #190704",
"=  c #031304",
"-  c #091306",
";  c #011C02",
":  c #091C02",
">  c #03130A",
",  c #09130C",
"<  c #041C0A",
"1  c #091C0D",
"2  c #151E02",
"3  c #040411",
"4  c #0A0212",
"5  c #030912",
"6  c #090911",
"7  c #040519",
"8  c #0A031A",
"9  c #020C18",
"0  c #100213",
"q  c #100F15",
"w  c #041511",
"e  c #0F1015",
"r  c #121313",
"t  c #13131A",
"y  c #19161D",
"u  c #18191E",
"i  c #1A1815",
"p  c #2C0403",
"a  c #250308",
"s  c #39010A",
"d  c #2D1106",
"f  c #022403",
"g  c #0A2306",
"h  c #022C03",
"j  c #02240A",
"k  c #09250B",
"l  c #042A0A",
"z  c #0A2D0D",
"x  c #082F00",
"c  c #023402",
"v  c #023C02",
"b  c #033309",
"n  c #053B0B",
"m  c #083708",
"M  c #0B2115",
"N  c #112117",
"B  c #083813",
"V  c #20251E",
"C  c #1D1C23",
"Z  c #251F2D",
"A  c #25252B",
"S  c #2C2D25",
"D  c #2B2A32",
"F  c #302F34",
"G  c #353639",
"H  c #2B3831",
"J  c #490503",
"K  c #570303",
"L  c #4C1302",
"P  c #6C0103",
"I  c #660001",
"U  c #7F0000",
"Y  c #760009",
"T  c #651C09",
"R  c #582722",
"E  c #7F2E35",
"W  c #024302",
"Q  c #0A4304",
"!  c #014B02",
"~  c #03440A",
"^  c #054C0B",
"/  c #094C0B",
"(  c #084B04",
")  c #025302",
"_  c #025B03",
"`  c #0A550A",
"'  c #085908",
"]  c #0B5715",
"[  c #064411",
"{  c #026402",
"}  c #026B01",
"|  c #04650B",
" . c #046B0B",
".. c #027401",
"X. c #027C03",
"o. c #047C0A",
"O. c #067509",
"+. c #3D743B",
"@. c #3F3E43",
"#. c #403345",
"$. c #444647",
"%. c #4C4B50",
"&. c #5A5A5E",
"*. c #4C564B",
"=. c #5C6256",
"-. c #7A797E",
";. c #747570",
":. c #676767",
">. c #8D0101",
",. c #830006",
"<. c #940604",
"1. c #9A0307",
"2. c #9A1A19",
"3. c #A20101",
"4. c #B20101",
"5. c #B80403",
"6. c #8E352F",
"7. c #9B3533",
"8. c #B32C30",
"9. c #C50001",
"0. c #CA050C",
"q. c #D90102",
"w. c #D80806",
"e. c #E90504",
"r. c #FE0301",
"t. c #FF0B0E",
"y. c #ED1311",
"u. c #F91319",
"i. c #C61821",
"p. c #DF3631",
"a. c #E82F30",
"s. c #F9423C",
"d. c #FF3E48",
"f. c #B14946",
"g. c #DB5351",
"h. c #D24C4D",
"j. c #F84649",
"k. c #E64D48",
"l. c #FF6866",
"z. c #FA776D",
"x. c #038302",
"c. c #028B02",
"v. c #04830C",
"b. c #058B0B",
"n. c #098B09",
"m. c #019403",
"M. c #089300",
"N. c #029C02",
"B. c #03930A",
"V. c #059A07",
"C. c #02A302",
"Z. c #02AC02",
"A. c #04AB0B",
"S. c #07A606",
"D. c #02B302",
"F. c #0AB304",
"G. c #02BC02",
"H. c #03B40A",
"J. c #05BD0A",
"K. c #0CB808",
"L. c #11B00D",
"P. c #28B827",
"I. c #3AB73D",
"U. c #02C402",
"Y. c #09C204",
"T. c #02CC02",
"R. c #04C30A",
"E. c #0BC409",
"W. c #03CA09",
"Q. c #0ACE0A",
"!. c #09CE05",
"~. c #02D503",
"^. c #09D304",
"/. c #02DB02",
"(. c #05D30B",
"). c #0BD408",
"_. c #02DD0A",
"`. c #0BDB08",
"'. c #00C012",
"]. c #0CD110",
"[. c #02E503",
"{. c #0AE205",
"}. c #02E903",
"|. c #09EC03",
" X c #02E50A",
".X c #03EA09",
"XX c #0BE30B",
"oX c #10E10A",
"OX c #00F203",
"+X c #03FF03",
"@X c #01F50A",
"#X c #00E210",
"$X c #47AA45",
"%X c #4DB850",
"&X c #53AF54",
"*X c #72AC6F",
"=X c #69AC69",
"-X c #8A8A86",
";X c #92918D",
":X c #97939A",
">X c #A19C98",
",X c #92AD91",
"<X c #A0A89D",
"1X c #A697A7",
"2X c #B09AAF",
"3X c #A9B6AA",
"4X c #ADADB1",
"5X c #BCBCBE",
"6X c #B7B6BB",
"7X c #AFABAA",
"8X c #FF8790",
"9X c #FF9197",
"0X c #FC9189",
"qX c #C1B8BC",
"wX c #FBBBBA",
"eX c #C1C3C6",
"rX c #CBCACF",
"tX c #D9D9D6",
"yX c #C2D2C7",
"uX c #E0D4DE",
"iX c #DCDCE4",
"pX c #E9D1E1",
"aX c #EEEDE9",
"sX c #F8EAFA",
"dX c #FEFCFF",
"fX c #F7F4FA",
"gX c #EDECF2",
/* pixels */
"O O O O O O O O O O O O O O O O O O O O O O O O O O O O   3 O O O O O O O O O O O O O O O O O O O O O O O O O O O O O O O O 3 O O O O O 3 O O O O O O O O O O 3 O O O O O O O O O O O O O O O O O O O O ",
"O O O O # O O O O O O 3 O O O O O O O O O O O O O 6 O O O O O O O O O O O O O O O O O O O O O O O O O 3 O O O O O O O O O O O O O O O O O O O O O O O O O O O O O O O O O O O O O O O O O O O O O O O O ",
"O O O O O O O O O O O O O O O O O 3 O O O O O O 3   O O O O O O O O O O O O O O O O O O O O O O O O O O O O O O O O # O O O O O O O O O O O O O O O O O O O O O O O O O O O O O O O O O O O 6 O O O O O ",
"O O O O O O O O O O O O O O O O O O O O O O O O O O O O O 6 O O O O O O O O O O O O # O O O O O O O O O O O O O O O O O O O O O O O O O O # O O O O O O O O O O O O O O O O O # O O O O O O O   O O O O ",
"O O O O O O O O O O O O O O O O O O O O O O O O 6 D   O O O O O O O O O O O O O O O O O O O O O O O O O O O O O O O O O O O O O O O O O O O O O O O O O O O O O O O O O O O O O O O O O O O A y O O O O ",
"O O O O O O O O O O O O O O O O O O O O O O O O y A O O O O O O O O O O O O 3 O O O O O O O O O O O O O O O 3 O O O O O O O O O O O O O O O O O O O O O O O O O O O O O O O O 3 3   3 O O @ 6X-.  O O O ",
"O O O O O O O O O O O O O O O O O O O O O O O O O O O O O O O O O O O O O O O O O O O O O O O O O O O O O O O O # O O 3 O O O O O O O O O O O O O O 3 O O O # O O O O O O O O O O O # 3 O   @.A O O O O ",
"O O O O 3 O O O O O O O O # 3 O O O O O O O O O O O O O 3 O O O O O O O O O O O O O O O O O O O # O O O O O O O O O O O O O O O O O O O O O O O O O O O O O O O O O O O O O O O O O 3 O O O     O O O O ",
"O O O O O O O O O O O O O O O O O O O + 3 O O   3 O O O @   3 O 6 O O # O O O O O O 3 3 3 3 O O O O O O O O O O + O # 5 3 3 3 O O O + O   O O X O O O O 5 # O O 3 # O O O O O O O O O O O O O O 3 O O O ",
"O O 3 O O O O O O O O O O O O O 3 O # O 3 O   5 O 8 O O O 3 O # @ O 3 O O O O O @ @     O O O . @ @ + O O + + O O O O O O   X   O O O O O O 3 3 O O O O O O   O O O O O O O O O O O O O O O O O O O O O ",
"O O O O O O O O O O O D D O O O X @   O . O 5 3 X     @ O O O O   O 3 O   O + @   O O . - v ) { ..X.x.c.X.O._ ! : X O + + O 3 3 + 4 3 O O   O 4 O O O O O O 6 u 6 O O O O O O O O O O O O O O O O O O O ",
"O O O O O O O O 3 O   t e   O O + 8 X 5 O + 4 3 3 O + 8 @ O 3   3 O   + 3 #   + 3 1 n _ X.c.m.V.S.S.D.D.D.D.D.F.Z.c._ 1 + O O + O   O O 3 @ X + 3 O O O O   $.eXA O O O 3 O O O O O O O O O O O O O O O ",
"O O O O O O O O O O O O O O O O + O O 8 O @ X O O 5 . O   . 3 O 5 O O O # O @ ; W { X.m.N.Z.Z.G.U.W.!.T.!.T.T.U.Y.G.G.Z...h O O O @   @ 3 3 5 O O O O O 6 O C &.t O 6 O O O O O O O O 3 # O O O O O O O ",
"O O O O O 3 O O O O O O O O O O X @ 3 + + O O O @ 8 X @ 3   D Z   O 3 O   O h ' ..x.N.Z.D.G.W.~./._.[.[.[.[.[.[./.~.T.U.G.C._ = O 4 3 @   4 3 O O O O O O O     O   O O O O O O O O O O O O O O O O O O ",
"O O O O O O O O O   6 O O 3 O O 3 3 . @ O   8 O 4   8 3 O 3 y i O @ @ O , ! } o.c.C.Z.G.W.^./.[.}.}.}.}.[..X X[.}.}.[.~.T.R.H.N.h X 8 @ @   4   O O O O O O # 6 O O O O O O O O O O O O O O O O O O O O ",
"O O O O O O O O O O O O O O O O O O = O k D.m   m c.= + X 8 O   @ 3 + ; ) } X.c.C.F.U.T.~./.[.}.{.{.[.[.}.}.}.[.}.{.{..X[.~.U.G.C.W O . @ O 3 @ O O 3 O O O O O O O O 3 O O O O O O O O O O O O O O O O ",
"O O 3 O O O O O @ 8 X O 3 3 O X O w c.f b +X' O  .+Xv O . 3 O X 4   f ) { X.c.C.D.U.T././.[.[.}.}.[.[.}.}.[..X[.[.}.}.}.}. X/.T.G.S.! O   @   5 3   3 O O 3 5 + O 4   9 @ O 3   O O O O O O O O O O O O ",
"# O O O O O O O O O + X 4 O 4 + O : F.m X [.' O ' OXc O + O O O   < W _ ..c.N.H.U.!.~./.[.[.[.[.}.}.}.[.[.}.[.}.[..X[.}.}.[.[./.U.D.Z.v 4 @ @ 4 5 O O O O O   W ~ O . O O 8 3 X O O O O O O @ O O O O O ",
"O O O O O O O O 3 +   O O : ; 8 X z D.l O '.) O / /.h + 7   @ 4 = v _ } x.N.Z.G.T.T././.[.[.[.}.[.}.[.}.}.[.}.[. X.X[.}.[.}.{. X~.T.G.N.M   X + O 3 O O O O 1 Y.Z.O 6 ..h + O O O O O O 5 O O O O O 3 O ",
"O O O O O O O O # O O O 3 b C.j O h U.v 0 U.|   { U.< + 5     O c ( { X.B.Z.G.Y.~.~././.[.[.[.[..X[.}.[.[.[.}.}.[.}..X[.[.}..X}.}.~.G.Z.c.@   O   5 O O O 3 c }.' O ^ +X) O > 5 O O O O O O O O O O O O ",
"O O O O O O O O   O O 6 7   X.C.8 > /.| + U.]   m.Z.O   O O   f ! ) } c.C.D.G.T.~.~././.[.[.[.[.[.}.[.[.[. X[.}..X[.[.}.|.[.}.}.[.[.T.L.Z.) O # # O O O # O _ U.@ 4 c.T.+ ~ Z.> O O O O O O O O O O O O ",
"O O O O O O O O O 3 O 3 O O @ x.}   !.c.O G.`   T.x.+ O # O   c ! _ X.N.C.F.R.~.~.~./././.{.[.[.[.[.[.[.[.}.}.}.}.}.[.[.[.}.}.}.[.}._.G.S.m.,   O O 5   O + x.V.O o Z. .O C.T.@ O O O O O O O O O O O O ",
"O O O # O 3 O O O 3 4 X 6 O   - N.k O.J.  H.) f }.^ + O 3   f W ! } c.C.Z.J.W.T.~././././.[.[. X X[./.[.[.[.[.[.[.}.[.}.[..X}.}.}.[.[.T.D.N.)   O O 3 # O O c.X.O [ U.- . R.n.+ O O O O O O O O O O # O ",
"O O O O O O O O O O . O   O 3   ) c.X.~.b.~.N.C.[.< O . O . c W _ ..M.N.D.U.T.!.T.~./././././././.[.[.[.[.[.[.[.[.[.[.}..X X[.[.[.[.[.~.G.N.X.- O . O 3 O O m.X.+ c.V.3 ! }.~   O O O O O O O O O O O O ",
"O O O O O 3 O O # O %.G   # O O h D.W./././. X/.m.O ) x.{ f v Q { X.m.Z.D.G.T.T.~.(.~./././././././././.[././. X}. X{.OX}. X[.[..XXX}.).T.V.m.h + + 3 7 X # S.} . W.` O D.!.3 3 l N.] 3 X O O 3 O O O O ",
"O O O O O O O O O 6 4X-.  O O 3 z N.F.Z.D.C.N.D.o.x./.B.f ; B ! { X.N.Z.G.Y.W.T.~.~.~.~./.~././././././././.[.[.[._.}.{.[..X}.OX}.}.[./.T.C.B._   > _ c O = F. .h /.@ W +X) O }  XN.f . O 3 + 4 O O O O ",
"O O O O O O O O O O y 6 O O O O v N.Z.S.c.c.K.T.~.!.) . O c v ) } x.V.Z.D.U.U.T.T.~.~.~.~./.~././././././././././.{. X[.[.oX#X[.[..X_./.Q.Z.c. .@ X c C.` O U.G.F.U.b G.N.O v.Y._ X . 3 +   O X O O O O ",
"O O O O O O O O 3   O   O O O + c V.U.W.A.Z./.T.U.} O   X c n ! } x.N.Z.G.G.U.T.T.T.~.~.~././.~./.~.~./.~././././.[./.{.[.}.|.@X|.}.OX/.T.H.c.} - O O W Z.) V././.T.U.[./ x.T.f     @ 5 3 O + @ O O O O ",
"O O O O O O O O O O O 6 @ O 3 O h X.Z.U.J.U.U.E.C.;   3 - W c ) } x.N.Z.D.G.U.T.T.T.~.~.~.~.~./.~./.~././.~./././._.[.`.[.}.T.} h h _ E.T.D.b...; 5 O   ..U.Z.N.Z.(./.~.G.G.l O + + + 4 O # 8   3 O O O ",
"O O O O O O O O O O O O O O O O h _ n.Z.Z.G.G.C.) O . + ; v c ! } c.N.Z.D.Y.U.T.T.T.~.~.~./.^.~.~.~.~.~././.~./.). X/.[. X~.;X@.. O   - D.D.n...g   @   ) C.(.F.b.M.D.U.Q...  X O 9 O   @ O 3 3 O O O O ",
"3 O O O O # O O O # O O O 5 O O @ : v c.Z.D.o.W - 3 3 3 ; v v ) { X.m.C.D.J.Y.W.W.T.T.~.).~.(.~.~.~.~.~./.~./.~./././.`.[.&XdX>X    X   z A.x.} f O   4 v C.G.Y.B.C.C.D.F.W + + 5 O O O O   X . O O O O ",
"O O O O O O O O O   O O O O O O   +   v b.X.o O + @ X . - ~ c ! { X.m.S.Z.Z.Z.G.T.T.T.~.~.~.~.~.~.~.~.~.~.~.~./.~.[.(.[.P.tXgX$..     .   X.x.{ f + O O c X.Z.U.Z.U.^.T.Z.j O O   4 O O @ O 8 @ O O O O ",
"O O O O O O O O O O O O O O O O O O O X ..W O # O @ + + ; v v v { ..M.} ;     +.E.Q.(.T.Q.~.~.)./.~._.~./.^.~./.(.[.[.P.yX:Xo X           v x._ ; O   4 f ! b.Z.A.T.U.G.o.    @ O O O O O + 3 O O # O O ",
"O O O O O O O O 3 O O O O O O O 3 O O X c.W O O O O O   X ~ v W / ..)   &   V uX<XL.~.T.(.~.~.~.^.^.~./././.~.^././.I.eXdX-X.             h ..) o O   O @ = ( m.Z.D.V...h O O 4 O O O O O O O O O O O O ",
"O O O O O O O O O O O O # O O O O O 3 # Z.( + O O 4   O   W c W ) { = O     r iXfXeX$XU.~./.~.(.~.~.^.^.).~././.E.=XqXfXtXH   O           ; { !   + O O O   @ ..N._ v f @ 3 @ 3 O O O O O O O O O O O O ",
"O O O O O O O O O O O O O O O O O @ 3 - U.^ + O O + + O . v W c ! !   X X +   V =.-.gX3X$XK.^./././.~.~.~.Q.P.&X3XfX:.i r             X   ; _ v X O O # 3 5 O } _ X . X O     5 O O O O O O O O O O O O ",
"O O O O O O O O O O O O O O O O O # O f T.~   O O 3 3 +   k ! c v h     .     .     7XaX2X6X,X&X&X%X$X$X*X,X4XfXdXgXZ         . .     X   m _ :   3 O @ O O , m.b O 6 O 8   . # O O O 3 O O O O O O 3 O ",
"3 O O O 3 O # O O O O O O O O O O O O v (.h + O O O 9   X . ! m v f       X   O X   O i   5XfXdXuX2XsXfXdXtXS ;.;XH         .             ! ! @ O O   X O + c G.l O @   8 O O   O O O O O O O O O O O O ",
"O O O O O O O O O O O O O O O O 3 O O } W.-   4 O O 5 + O X W ~ W h           .         X y :X<X*.  -XtX5XG . O   .       .   X         ; ( h   O   + + @ 3 ) U.;   + C 5 O 4 # O O O O O O O O O O O O ",
"O O O O O O O O O O O O O 3 O O O   O b.D.@   O X O # . O b ) ! v c .   X O   X         .     X       .   X   X X   .                 + v ! ;   . O 3 O O O } G.5 O + G , O O O O O O O O O O O O O O O ",
"# O O O O O O O O O O O O O O O O O @ G.m.O O   @ O O b x.N.{ ( ! v >                                     . .   .   .                 c W c v O O @ O O + 4 x.G.# O O   O O O O O O O O O O O O O O O O ",
"O O O O O O O O O # O O O O O O 3   x ).o.O # 3   M o.T.U.b.) f ) Q c X .                             .           X X X     .   .   ; ( c v c.{ + @   O +   c.H.O O O O O O O O O O O O O 3 O # O O O O ",
"O O O O O O 3 O O O O O O O O O 4 O _ |.) O O 9 } Y.~.Z.} c X O f ) ! h   O                     .     X . .           $     .     : ! v : v x.).n.O 3 O   O N.Z.  O O O O O O O O O O O O O O O O O O O ",
"O O O O O O O O O O O O O O O O   O o..Xn + ( D.~.G.} k   O   O   c ) W l X   .                                   X .   .       ; W v ; X X ! S.[.m.3 O 6 4 M.D.O O O O O O O O O # O O O O O O O O O O ",
"O O O O O O O O O O O O O O O O + X C.T.b x.}.U.O.l O   O 3 o   +   m ` W c = X                     .                 O       j ~ v h + .     v N.[.C.#   @ Z.S.O   O O O O O O O O O O O O O O O O O O ",
"O O O # O O O O O O O O O O O O 4 j M.U.A.W.m.W   X @   @ # O O O     v ' W W f X                           . . . . R 6.s X h v v f   O + X O O l x.OXZ.X @ T.D.O O O O O O O O O O O O O O O O O O O O ",
"O O O O O O O O O O O O O O O O O j { c.X.! @ + O     O # 3 O @ X 3     h ' ( W h ; =     .         X   .   % P 8.g.d.z.l.T W v ; .     O @ 3 + O : x./.n.O ~.D.  O O O O O O O O O O O O O O O O O O 3 ",
"3 O O O O O O O O O O O O O O O + k ! m = +   @ O # O 3 4   O + 4 . O O   ; ^ _ ! W c g X X         .     p Y <.8.g.z.a.l.h.: > O   O O O O O . X O 1 } J.{ F.Z.+ O O O O O O O O O O O O O O O O # O O ",
"O O O O O O O O O 6 O O O O O O + O     O O O O O O O O # O   O O O O + O   X r ) ) ( W v c h f ; : ; ; : 2 2 2 J 5.p.a.u.s.p   + O . O +   3 O @   O , ( C.R.c.O O O O O O O O O O O O O @ O O O O O O ",
"O O O O O O O O O O 3 O O O O 3 O O # O   O + O # O O   # 6 D 6   O O O #   X X X l / _ _ ) W W v v v v v W W W ~ L 0.y.e.t.,.9 . X . 3 4 X @ 3 O O O O ; ! } ) @ O O O O O O O O O O 6 O O O O O O O O ",
"O O O O O O O O O O O O # O O O O O O O # O O O O O O O   D rX@.  3 # O O O     O .   = h ! ) ) _ _ ) ) ! ! W W h X >.q.e.r.q.. O 8 @ O 8 + @ + 3 # O O O X g <   O O O O O O O O O O O O O O O O O O O ",
"O O O O O O O O O O O   O O O O O O O O O O O O O O O O O q $.i O O O O O   O # X       O   @ @ = = = = - @         K 0.q.e.r.4.% O . .   O 8   O O O 3 3 O #     O O O O O O @ 3   O O O O O O O O O O ",
"O O 3 O O O O O O   D 6 O O O O O O O O O O O O O O O O O     O O O O O @ O O O 4 3 O       O       .       O O + O a <.9.e.r.r.e.2.7.f.6.d + +   O # O O O O   @ O O O O O O O O O O O O O 6   O O O O ",
"O O O O O O O O O O D t O O O O O O O O O O O O O O O O O @ O O O O O O O O O O X   4 6 3 O O . O O O O   O + +   8   P 5.q.e.y.j.9XwXpX0Xi.$ 7 O O 3 O @ O O @ O O O O O O O   # y   O O O O O O O O O ",
"O O O O O O O O O O O O O O O O 3 O O O O O O # O O   6 O O O O O O O O O O 3 O + O O O O + O O O O O O O O O     5 @ J <.5.q.a.8XwXwX9Xj.w.K 3 3 O O O O @ + O O O O O O O O O &.6XC   O O 3 3 O O O O ",
"O O O O # O O O O O O O O O O O O O O O O O O O O O O 3 O O O O O O O O O O O O O O O O O O @ O + O + O 3 O O O O 3 + + I 3.4.0.p.k.p.y.e.9.J   6 O   + O O O O O O O O O O O   D &.# O # O O O O O O 3 ",
"O O O O O O O O O O O O O O O O O O O O O O O 3 O O O O 3 O O O O O O O O O O O O O O O O O O O 6 O O O O O O O O O O O a P 3.3.4.9.9.5.5.Y a O O 3 O O O O O O O O O O O O # O   O   O O O O O O O O O ",
"O O O O O O O O O O O O O O O O O O O O O 3 O O O O # O O O O O O O O O O O O O O O 3 O O # O O O O O O 3 O O O O O + O X * J ,.>.1.>.,.K a   O O O O O O O O O O O O O O O O O # O O O O O O O O O O O ",
"O O O O O O O O O O O O O O O O O O # 3 O O O O O O O O O O O O O O O O O O O O O # 3 O O O 3 # O O   O O   3 # O O O 4 3     a p s s * .   O # O O O O O O O O O O O O O # O 3 O O O O O O O O O O O O ",
"O O O O O O # O O O O 5 O O O O O O O 3   O O O O O O O O O O O O O O O O O O O O O O O O O O O O O O O # 3   3 O O O 5 3 5 O O 3 O 5 O O 3 O X O O O O O O O O O O O O O O O O O O O O O O 3 O O O O O ",
"O O O O O O O O O O O O O O O O O O   6 A O O O O O O O O O O O O O O O O O O O O O O O O O O O O   # @   6 O O O O O O O 3 4 4   @ @ 4 3 3 5 O O O O O O O O # O O O O O O O O # O O O O O O O # O O O ",
"3 O O O 3 O O O O O O O O O O O O O O e D O O O O O O O O O O O O O O # O O O O O O O O O O O O O O :X-.  O O O +   @ O +   O # O O # O   O + O O O O O O O O O O O O O O O O O O O O O O O O 3 O O O O ",
"O O O O O O O O O O O O O O O O O O O O O O 6 O O O O O O O O O O O O 3 O O O O O O O O O O O O # O :.%.  # O O O O O O 5 O   O 4 3 O O O O + @ O O O O O O 3 O O O O O O O O O O O O O O O O O O O O O ",
"O O O O O O O O O O O O O O 3 O O O O O O O O 3 O O O O O O O O O O O O O O O O O O O O O O O O O O     O O O O O O 3 O O O O O   O O O 5 @ 4 3 O O O O O O O O O O O O O O O O O O O 3 O O 3 3 O O O O ",
"O O O O O O O O O O O O O O O O O O O # O O O O O O O O O O O O O O O O O O O O O O O O O O O O O O O O # O O O O O O O O O O O O O O 3 O O O # O O O O O O O O O O O O O # O O O O O O O O O 3 O O O O ",
"# O O O O O O O O O O O O O O O O O O O O O O O O O O O O O O O O O O # O O O O O O O O O O O O O O O O O O O O O 3 O O O O O O O O O O O O O O O O O O O O O O O 3 O O O O O O O O O O O O O O O O O O ",
"O O O O O O O O O O O 3 O O O O O O O O O 3 O O O O O O O 3 O O O O O O O O O O O O O O O O 3 O O O O O O O O O O O O O O O O O O O O O O O O O O O O O O O O O O O O O O O O O O O O O O O O O O O O O "
};
