/* XPM */
static char *_595869094291[] = {
/* columns rows colors chars-per-pixel */
"100 71 248 2 ",
"   c #010101",
".  c #090605",
"X  c #0D0A05",
"o  c #060609",
"O  c #08070A",
"+  c #060A0D",
"@  c #0B0A0D",
"#  c #110D0D",
"$  c #110D05",
"%  c #19140B",
"&  c #0D0C13",
"*  c #0F0E18",
"=  c #060911",
"-  c #110E13",
";  c #110E1A",
":  c #1A0D14",
">  c #0D1114",
",  c #0E111B",
"<  c #141315",
"1  c #1A1516",
"2  c #1C1916",
"3  c #14121C",
"4  c #1B151A",
"5  c #16191D",
"6  c #1C1919",
"7  c #171817",
"8  c #221B16",
"9  c #23141D",
"0  c #231C1A",
"q  c #2A1E1B",
"w  c #241915",
"e  c #241B0F",
"r  c #2A2215",
"t  c #25211A",
"y  c #2C211C",
"u  c #2E291A",
"i  c #32231E",
"p  c #362B1A",
"a  c #2C2710",
"s  c #151422",
"d  c #1A1624",
"f  c #151924",
"g  c #1C1924",
"h  c #1A172A",
"j  c #161D2A",
"k  c #1C1A2C",
"l  c #17162B",
"z  c #1D1D31",
"x  c #151531",
"c  c #120E22",
"v  c #231C24",
"b  c #2A1D22",
"n  c #231D2C",
"m  c #281827",
"M  c #351C29",
"N  c #231D32",
"B  c #371D34",
"V  c #1C222D",
"C  c #17202D",
"Z  c #1D2234",
"A  c #1E253A",
"S  c #1E293E",
"D  c #182333",
"F  c #232224",
"G  c #2C2322",
"H  c #24222B",
"J  c #2B242B",
"K  c #2B2A2D",
"L  c #25282E",
"P  c #342522",
"I  c #3A2524",
"U  c #352924",
"Y  c #3C2A24",
"T  c #3D2C2A",
"R  c #36282A",
"E  c #222334",
"W  c #2B2C34",
"Q  c #21263B",
"!  c #212A3D",
"~  c #2B2D3B",
"^  c #252834",
"/  c #2C313D",
"(  c #373538",
")  c #372D31",
"_  c #43371D",
"`  c #432D25",
"'  c #432E29",
"]  c #47272B",
"[  c #463125",
"{  c #4A3426",
"}  c #45312B",
"|  c #4C352B",
" . c #4D3A26",
".. c #543A2C",
"X. c #5A3D2D",
"o. c #543929",
"O. c #4A2337",
"+. c #483933",
"@. c #553C32",
"#. c #5A273E",
"$. c #3E403D",
"%. c #5D412D",
"&. c #574223",
"*. c #5E4333",
"=. c #58473A",
"-. c #4E4537",
";. c #63432E",
":. c #6B4A2D",
">. c #67482E",
",. c #78592D",
"<. c #644531",
"1. c #6C4A32",
"2. c #684936",
"3. c #724E32",
"4. c #784639",
"5. c #6D5539",
"6. c #755233",
"7. c #7A5533",
"8. c #7C5935",
"9. c #785839",
"0. c #70502D",
"q. c #7D6135",
"w. c #1C2B44",
"e. c #1E354F",
"r. c #222C43",
"t. c #272D44",
"y. c #233145",
"u. c #24334B",
"i. c #2A3448",
"p. c #363946",
"a. c #253651",
"s. c #253953",
"d. c #2B3C54",
"f. c #293E5B",
"g. c #273C58",
"h. c #333E56",
"j. c #592B4C",
"k. c #672B41",
"l. c #3C4147",
"z. c #2B415D",
"x. c #394458",
"c. c #2C4563",
"v. c #2D496B",
"b. c #314B6C",
"n. c #384A66",
"m. c #2E4D73",
"M. c #334F71",
"N. c #345275",
"B. c #35557A",
"V. c #3C5576",
"C. c #3B526D",
"Z. c #474345",
"A. c #544844",
"S. c #4B5059",
"D. c #6A5542",
"F. c #765B47",
"G. c #6B5751",
"H. c #7A654F",
"J. c #4B576C",
"K. c #51637B",
"L. c #686B74",
"P. c #835D35",
"I. c #835E38",
"U. c #8A6537",
"Y. c #946B39",
"T. c #9B733B",
"R. c #98753A",
"E. c #8B6B2F",
"W. c #A77A3B",
"Q. c #B3783B",
"!. c #866646",
"~. c #997747",
"^. c #92734B",
"/. c #A57C45",
"(. c #966854",
"). c #AA873C",
"_. c #B28A39",
"`. c #B9963C",
"'. c #A7903C",
"]. c #BBA23D",
"[. c #C1893A",
"{. c #9A8350",
"}. c #A4824B",
"|. c #AA8647",
" X c #B58A49",
".X c #B89743",
"XX c #A98956",
"oX c #B28C54",
"OX c #AC935C",
"+X c #B79558",
"@X c #AA924E",
"#X c #BCA346",
"$X c #BBA756",
"%X c #958369",
"&X c #B89A67",
"*X c #AD9770",
"=X c #BCA575",
"-X c #BBA268",
";X c #C69844",
":X c #C79456",
">X c #C3A647",
",X c #C6AA56",
"<X c #CAB559",
"1X c #CCB155",
"2X c #C59C6A",
"3X c #D99C67",
"4X c #C7A768",
"5X c #CBB863",
"6X c #C5AA79",
"7X c #DDAC7C",
"8X c #D8A776",
"9X c #CCB87A",
"0X c #D7B67D",
"qX c #D6A86D",
"wX c #D6C67C",
"eX c #D1C16B",
"rX c #3E618A",
"tX c #4A6383",
"yX c #587291",
"uX c #6A7A90",
"iX c #7A8595",
"pX c #728CAB",
"aX c #8895A7",
"sX c #ADAFB3",
"dX c #9A9B9D",
"fX c #DEAD81",
"gX c #DEB284",
"hX c #D9B988",
"jX c #D0B789",
"kX c #E1B689",
"lX c #E1BC92",
"zX c #E0AF85",
"xX c #D9C986",
"cX c #DFC995",
"vX c #E3C59B",
"bX c #E0D19F",
"nX c #E4CAA6",
"mX c #E5D3AA",
"MX c #E8D6B7",
"NX c #C3C0A2",
"BX c #9BAFC7",
"VX c #A8B7C9",
"CX c #F3E9D8",
"ZX c #EFEBCF",
"AX c #FFFFFE",
"SX c #F9F7F6",
"DX c #F5F3EA",
"FX c #E1DBD3",
/* pixels */
"      . .                     o o o . o o + @ o     o   : 9                       o o o o o @ o o o o o o o o o o o o o o o o o o o                                 K >                                 ",
"                          o o o o @ @ @ .   @ o                     .   o   o @ + o o o o a @ + . + X o o o o o o X # + @ o o o o = & & ; * O =   o 5                                                   ",
"  . X       @       K < o o o o o @ @ @ o                     o o o . o o o o o . o o o o X @ @ o @ > @ @ < < > @ 7 v 1 7 7 # > & < 3 3 ; ; 3 s & g iXo                                   $         X   ",
"            .       & @ o @ o ; < < & o                 o o o o o o + ( X o o o o o o o o o @ # < 7 7 1 7 7 1 6 1 1 7 7 7 1 1 7 v m ; ; 3 3 3 ; 3 & o o o o     . a                                     ",
"              o o o o . @ < & 6 f .           o o   o X O + o o @ @ o # O o o o & & = @ @ , j j 5 7 - & < 7 > > 5 5 1 > < < < > 5 m g 3 ; ; s 4 5 & o o o o o o                 X ( .                 < ",
"        ( o o # @ . @ > - # f ! ,       # @ o @ # o o @ o o O X O O O o = @ o & j C D j j V D z D j 7 j D D f f j j f f o X : o = ; 3 d 3 9 d 3 3 ; o o o o o o o                                     < ",
"    o @   o o X + & 6 7 6 S A +   o     . @ @ o X o O O - & + u < # 1 o O = 5 D y.y.d.b.b.c.b.b.v.f.f.f.z.s.y.S S S A D f o     @ * ; ; d d ; * 3 - o @ X o o o o                               X       ",
"    o o   @ o  .y 5 % Z z.j           p _   # # + @ & - w O O & & - s z r.a.f.S.z.b.N.N.B.B.B.B.B.B.B.B.N.B.N.N.m.c.g.w.w.S j 3 = 9 { = ; 1 4 v 8.,.o % e o o o o o o o                               . ",
"        o o @ 6 g V s.g.      @     o 1 # o : 1 @ - & @ @ ; < h h z u.a.^ Z Z +.u.s.s.s.z.c.f.f.z.f.f.h.A.z.z.z.c.M.b.uXb.r.r.r.k g n ; ; & * 3 E.E.X     .   o o o o . o                   X %         ",
"  o & @ o @ s 7 V ! s.5 J..   @ o + 1 o o 1 E.,.- @ @ * d g v 4 1 1 < % < 3 K y.u.u.y.S A z Q E Q g H A W ! A A S w.S uXV.s.z z r.z k h l s * o : #       : .     o o * & O o               . X         ",
"  o & o @ g g V z.M.@ < L.& @ & @ @ > @ & 0 E.,.- < 7 J q < 1 7 0 1 2 g d n r.Q z A Z z g 6 0 t 7 - 1 < 5 g f 6 V V k s k Q r.S Q s.r.r.Q z N H           O O   & & * - ; ; ; o                         ",
"  @ o & k g ! b.N.C X .   o o @ @ & > > < & 0 7 7 0 6 6 7 7 7 0 y b n Z A n h g d 0 d g < * q [ - - > 1 > p < < # < < 7 d h g k l r.s.M.b.a.n.J.k n s O       = ; * * * ; ; ; ;       .                 ",
"  o o 3 k Z b.B.Z o - o o o r X & @ K.x.1 < 7 6 6 7 y 7 1 0 i i G E Z h s g 4 6 2 < 1 4 < 6 1 < < < < < < 1 1 < < - < & & < - < g N z r.b.N.B.v.c.a.E z c ; & - & & * * & * * * o   $     X e     .     ",
"  o @ h g z.N.f.@ @ X # @ & u & @ @ A C < 6 8 6 d g g 6 q v E ~ A g h 3 d 0 1 < < - < < 0 0 0 1 6 < < < & m < > < < < > - & * & - 3 d h Q M.N.V.yXv.z.u.A k k s ; ; * - ; & & * o   e       .     .     ",
"o o s h Q N.B.^ o @ o 1 @ @ O @ @ & # # 1 2 Z k k n v v E r.p.Q h h 5 1 6 > 9 4 < < 6 q 0 q q q q M b 8 7 9 6 7 < 7 < * & - & - 3 - - s k u.yXBXtXm.B.v.a.r.N k m 3 5 - * - * ; =     a                 ",
"o @ k Q c.B.x.1 @ O & O @ & @ @ & < < 7 F ! z l 0 q k Q r.H &.6 < < < 1 < 1 0 7 1 q q q q q q 0 0 0 0 0 q 0 q 0 0 7 < k.q < < 1 : p - & & ; i.sXyXN.N.B.M.z.e.N k s d 3 ; ; * & o                       ",
"  s ! y.N.B.i., # @ o @ & @ @ - - - 1 V ! n 2 2 v S A z g 7 & > < 7 7 7 7 1 t 0 q 0 q q 2 w 1 w 2 4 0 1 1 1 1 2 0 q q I 0 q q 2 1 6 = r 6 @ k V Z t.r.s.N.V.b.u.z k s s d ; < ; o                       ",
"> D r.s.N.b.! s - 2 - w & & @ - < 1 q ! F 8 8 v z z k v 7 < < < 7 0 7 1 6 0 q q 1 6 q m t.u.t.i.i.n.n.i./ i.) Y i P i q b i q q 0 6 p u t 1 5 > & 3 h h uXyXv.M.u.z v k s 3 d - X .           . .       ",
"j A S s.B.c.L j # & & @ - - & q 2 4 ! J 8 8 q n k k v 6 < < - < 0 6 7 6 q r v g / z.b.M.b.S.x.x.h.d.W H K L ^ / y y G P G P i q q < u 6 1 6 7 < 1 - ; 3 ~ ~ u.M.N.c.A z E k ; < 1 .                     ",
"h ! y.c.B.n.^ 5 9 3 - - & = @ p 7 Z r.q q 0 J l n Y 0 1 ; 2 p 7 0 < 6 q 5 U p.m.N.N.c.S.p.R w w e % # & @ @ < > > 0 0 > < 1 0 6 7 7 6 P U P i q 6 6 < - @ s k ~ S.N.c.u.Q Q j o @ # o                   ",
"h N y.b.N.n.Y < 7 6 < 1 r 2 A.-.c Q G q 2 v k n %.Y y 6 < 7 t 2 6 6 y v z f.M.x.| @.| i y 0 2 6 - v < > 1 < < < < 1 > & 1 & < > 6 2 < < Y <.| T i q 0 2 1 & * b ) a.B.m.a.r.! , o @ # o     X     . .   ",
"h k y.N.N.n.2 < > 1 < * 2 -.NX%X3 A G q q k k @.%.y 0 1 < 7 1 q q q q Q x.p.} <.o.p 9 4 6 1 1 6 > ( K < 7 < 7 1 1 < O.v 1 & - = 0 r * < 0 U | %.@.Y y q q 1 - & w.z u.B.b.s.y.k o o # #                 ",
"k k ! b.B.x.p & v 0 < < > + =.T P W G 0 v x ) 1.i 6 6 > 1 0 w q i b m x.+.;.9.[ 1 1 8 8 6 6 1 6 2 1 1 0 6 6 0 6 7 1 ] q 7 1 < * = & < > 1 G G Y X.7.*.T q y 2 - V r.A s.b.v.s.S z > o # #               ",
"k z ! z.B.n.[ < 6 7 < < > r r , z W q q b k <.:.0 6 1 1 2 0 q ] q n ( +.>.2.-.< 9 0 0 0 q q 0 0 8 0 6 2 6 7 7 2 6 0 2 0 0 1 _ t < - < < - 0 b 7 1 [ !.!.` U i 0 0 k z t.v.b.v.y.! A s o # o         X X ",
"k N A c.N.S.{ - < 7 - < > u r l z E q I n J ;.<.q 7 - < 9 q i k.T } Z.2.(.G 1 0 0 q q q q i P q q P b T -.0 y 0 1 0 0 0 0 8 q 0 6 < < < < - < < < < [ 5.-.%.} y q 2 & h t.w.b.c.r.S A ; - - o       $ $ ",
"k k z c.B.x.U.i - 7 < 3 9 r < g z ^ q P k R ;.X.0 1 ; 7 i q q Y +.A.I.!.@.R y q P I P i P Y ` { ..1.6.6.I.7.8.P. .P q 0 0 q 0 q 6 1 7 7 < * < > < 6 1 U ^.H.+.{ i 9 u < Z A u.c.a.A Q s ; ; ; o         ",
"k k Z u.v.b.5. .- 7 < - 0 1 < g z ^ q i n ' ;.o.6 1 1 0 w P P G.A.A.7.^.| Y i q U I A.} } 2.U.|.+X}.^.7.3.1.1.7.P.1.%.{ i p q 2 0 6 7 7 1 0 < 1 > < 6 r >.D.n.=.| I p 8 C r.A d.n.A E h 3 ; 3 ;         ",
"k k z Q y.M.A.| & 7 1 & & * < h k V U I n ' ..{ 0 6 8 P A.P ` } 2.6.}.7.I Y i P ' ..5.U._.].eXOX,.9.X.....| | } ..o.| X.>.o.` 0 0 q 7 1 7 6 < > g ( < t > >.=XG.p...I 2 < k Q S a.a.z k 3 ; ; ;         ",
"n k k Q r.t.( +.Y 0 7 > - & < 4 k k W P J ' | ` q 0 6 y +.U } @.>.~.+X<.U Y ' } <.6.Y.<X#X^.*X%X=.D.F.2.{ D.+.' ' T ' '  .<.<.;.Y u 1 0 1 7 7 < < J 1 8 6 i W.L.v.p.} ` 1 & f k k a.r.z h 3 , 3 @       ",
"k k k Z r.^ w.! W L 6 < & < < 4 z g K U P ' | 5.q 0 0 q P Y ' X.3./..X:.| X.X.6.{.+X5X#X5.(.*XOX/.R.oX=XY.R.^.:.9.2.| ' ' T ' *.<. .y 2 6 1 6 < ( 7 - 1 0 <  . XJ.v.p.o.Y 1 7 g h t.u.h z l < 3 @       ",
"c k k A Q Q Q ! / V t 7 - < < 3 k k 0 v q I | ^.Y q w G Y I | <.P.oX@X2.X.6.Y.W.#XwXwX=X2X=XOXW.4X4X6X6X6XoX&XXXOXOX^.6.X.X.| ' | *.>.[ q 6 0 1 F < & & 1 U q Y.U.x.m.x...0 * s n z a.i.k l c , = o     ",
"3 h N r.Q r.S t.Z.Z 5 7 < < 4 9 d N 7 7 0 q Y !.H.% +.+.P i ` 2./._.&X;.!.~.W.>X5X9XhX6X6X9X8X7XfXgXjXqX6X0XhXjX6XjX6X&X^.0.<...} ' | %.[ 0 0 0 < < - & < l.1 ' Y.T c.N.~ ' 7 3 g h i.+.l z R S.V.      ",
"; s z Q r.Q Q r.p.W 7 7 1 < < > M j., q q q I ..{.%.G P P +.+.2./. X9X9.,.}.wXeX9X=XjX0XgX3XcXmXvXmXmXbXxXxXvX9X6X6X9X9XOX~.^.9.;.X.} ] | [ w 0 6 7 < & - - y P 1.| z v.v.R i - h k k k k z v Q r.o     ",
"4 6 h N A w.t.c.c./ V 6 < 7 < < # g g G y 0 q } Y.Y.y y P A.@.1.~.W.>X+XXX&XxXwXjX2X0XqX7XmXmXCXDXCXMXmXvXMXxX7X0X6XhXhX9X&X~.W.P.;.<...' ..i 0 2 0 0 = & 2 G y %.2.v u.N.d.P 1 s g k k k k l - - & o   ",
"6 O = g h t.u.f.N.S./ V 6 7 6 1 2 6 s 6 P q q i ;.T.8.T q q ` <.U.+X5X>X&X9XwXxX6XlXvX7XmXMXAXAXAXAXAXMXzXvXnXzXzXjX=X9XhXwXOX~.).~.:.>.| | { 9 8 < 1 ; 3 < F P } ;.v w.N.M.d.J s s k Z A k k d s - +   ",
"# - o * z S d.u.z.B.d.V 0 t 2 6 1 < < g v q 0 i P >.R.<.2.I i <.P.oX4X_.R.$XxX4X&XmXlXlXMXSXAXAXAXAXAXAXMX8XhXnXzX8XjXXX+X4X<XOXR.2XU.F.1.| | p 1 M v 1 4 t 2 y Y >.b S c.N.n.W Z s g z Q z h c s < .   ",
"O - @ . d ! ~ u.f.M.b.E 7  .r < 1 0 < 6 0 P q q i | 3.Y. XR.` | ,.U./.4X}.OXxX0X8XnXlX7XCXAXAXAXAXAXAXAXSXlXzXvXkX7XjX&XW.:XhX|.^./. X/.<.<.....7 O.I & m 1 1 6 Y 6.W A w.b.M.t.j s h k A z H t J u +   ",
"@ O : o 1 Z A w.a.v.B.c.7 0 q p t < < 1 7 6 G q i P } 4.(.`.'.D.F.P./.2X}.}.$X5X:X7XlX3XvXCXDXAXAXAXSXDXCX7XzXnX8X3X=XgX+XW.,X$XR.|.|.W.P.<.X...y 8 1 3 4 > 1 6 q <.( A E g.B.s.Z 3 h k k k H v l & o o ",
"@ @ . x.n.O k A u.f.N.B.i.< q q q 0 7 1 < g q P y q I ..Y./._.5X+XU.7.E.,X~./.<X>X:X7XhX7XgXvXMXZXZXZXZX7X3XnXnXfXlX2X&X}.W.;X<XY.R.oXW.Q.2.<.} p 0 6 1 - < 1 2 i ;.' Z ! r.M.c.s s k k k k h z k < @ o ",
"o - X y.i.o 3 g k Z z.B.N.V 1 i y y 0 7 < g b 6 y M R I } 6./.oX,X9X^.T.`.|.XX-XwX.X4XgXgX7X8X8XgX7XfXzX8XkXnX8XfXkX&X6X-XQ.;X.X}.2X|.6.^.XX<.X.} 0 6 < - 9 6 2 P <.q 1 z Z c.M.c d k k n k n l s d & @ ",
"o < - @ # 9 o s k k r.f.B.v.s _ Y i p P < - d d < P G Y ` T X.8.Y.4X<X>X,X5X_.&X9XeX,X2XqX0XvXvXlXgX7XhXlX7X3XzX8X2XXX&X2X_.>X+X*X6X+X~.6.W.F.;.' 0 1 < 1 8 0 q q >.P < g h u.b.d < s l z Z k s ; s & @ ",
"o o o & & 3 p 4 h k ^ l.h.B.f.< 8 q y Y P < < h l 7 y y q q I ..2.F.&X4X6XxX1X,X|..X#X#X:X:X0XkX7X7X7X7X7X8XhX2X}.^.'.`.;X`..X).R.+X+XT.<.T.@.;.| P 2 Z.P 2 0 w ` <.q 1 4 h Q M.g & N O.x E N s ; s - @ ",
"o . o @ & = I w & c L @.j.z.B.f.5 w q i ` U 8 1 s 3 < g 6 0 0 i ' } D.!.4./..X1X<X>X.X'.`.].|.@X-X6X=X:X3X XoX~.@X].>X;X.X.X.XY.P.Q./.6.@.T.` | ..G w G 0 6 q 0 [ X.6 9 3 N r.M.s * M M l k n s 3 s ; @ ",
"o o o o o & + : 1 & 5 n n N f.M.b.Z 2 i y Y Y i 0 7 3 s n J q 2 q ' ] | X.D.9.~. X`.>X`.;X;X<X5X>X].W.T./.T.T.`.;X>X;X`.`. X}.!.6. X X;.{ W.p | ..G 2 : 2 _ q q ' ' 0 u u x N c.D ; * * k n N s ; d - @ ",
"o o o o a @ w & < 1 & s z k z u.M.V./ % i i I } | U 0 > ; k J q 8 P | ..| Y | ..0.8.U.oX/.Q.;XxX4X:X>X,X>X.X).`._.).)..X.XT.6.<.U.+XT.X.{ Y.` @.} q 1 6 2 q q i ..u 2 q 1 D z z.S @ s < k E k ; 3 3 & @ ",
"    o o X o o o @ 9 < : m h k k y.b.C.y.8 q q | <.*.` 1 < < l n b q 0 u ` Y P G T } | *.X.6.6.9.U.7.P.3.9.,.3.oX|..X,X_.U.1.<.1.+X}.1.` } 6.Y X.' 0 9 1 6 q q | %.t 8 2 C r.r.M.j o ( ^ d k k ; ; o @ @ ",
"    o o o e e o # w - 4 - d N l z Q c.N.z.F p  .' %.1.X.q 1 : < s v F I | { o.%.X.;...} Y | 5.&.o.o.X.U.q.*X+X;X.X).|.4.<.1.1.oXoX0.| I ` | ` X.P 1 < 1 0 q i *.P 1 6 < S.H y.M.5 @ @ @ h k h o o o @ = ",
"          o o o o o @ - 1 - = 3 l h k b.tXb.p.` y Y ..6.1.{ i 4 6 < 5 h v U o.<.6.P.U.q.I.9.E.}.'.@X}..X,X4X XY.U.3.1.1.2.;.~.oX3...I P o.` ..| 7 - < 1 r q X.} L V 6 ) L.* z c.f @ @ @ h N ;   o o @ @ ",
"    o       & A   o 7 ( o r [ < * m l t.n.t.v.t.q y Y %.3.7.!.*.i q 1 1 < < < 7 0 U P | !.2.1.8.^.6.!.%XjXo.X.| | X.@...| 7. X7.{ Y P ` X.` X.P = - 1 6 q I } F 7 ! J.NXFXH y.z.< O O o l K -   e @ @ @ ",
"@   o         D C   o   o @ [ G & : < m c k Z a.u./ Y Y ..X.!.OX|.Y.:.` 0 0 1 1 & > 1 1 9 0 P i +.@.| } } I Y ' } ' ] D.~.~.;.] Y U ` ..P } } 7 - - 6 q P p G.uX# 0 o dXuXL.b.u.* 1 -   - z o   % @ @ @ ",
"  o   o       + c.=   V r.o + 3 m - 9 4 * 4 k z f.u.r.i.K Y { X.9.U.|.oXP. .) U T t 0 0 q 0 9 w y A.+.i I } | X.@.D.!./.!.X.T y P } | q P | v i Y > q q } i 6 F 1 1 7 J.# s u.V & - O 1 N h o     o @ @ ",
"  1 < @ +     o j g.s d.K.* ; O ; N m ; # & < z t.g k A u.~ ~ ) ` { <.8.Y././.6.%X*.` ' ' } | } ' ` X.@.X...1.8.P.XXI.o.` y q i [ | 6 6 } T < - 1 q i ' U r %.p 1 & ^ S.- a.y.< # & o K ^ l   o ( @ @ @ ",
"  @ 1 7 < @ O * ; u.v.r.j ; c & o 4 l n h 1 @ Z l 5 k k k z z Q K W ) | X.2.X.;.;.>.<...} <.1.1.3.U.U.P.U.U.P.,.X.` U U i i P P q 1 6 Y T < < w q U } y 1 Y `.,.- & a.g V u.f < = - # + k s     < o @ @ ",
"    @ < 2 7 5 5 s S t.b.s.j - ; o o o & k n g i.& @ < h k z h B n M W L I I U ` ` ` } ' } X.@...X.1.<.X.....` q q I Y T Y P 6 1 6 q R N 3 - 0 i Y } P 7 < t { q - < ! 5 r.V 1 1 - o O z h O     o o @ @ ",
"      o > < 7 g < l ! y.N.b.z = + o g H o 3 z f.Z 6 - - @ 4 p.4 N g m v q v q G b y I P i Y Y ` T T T Y P 0 0  .i Y G t 7 1 2 0 n J h 3 < < 0 Y Y y 1 7 6 < @ * < f C h 4 < < < o l.L.c < o #   F K   @ ",
"      o @ @ 7 g g d n k f.B.b.t.f + S.L.  - x.r.z ! ! n E S.dX. 6 d n g k k h g h k g M #.g 0 v 0 q P P q y u 6 6 1 < 1 6 y n z k 5 * < 1 6 q q 0 1 1 1 t 2 = # o f k v < 6 - & o n p.c @ .     + @ @ o ",
"        o o & 5 g 5 g k t.M.M.V.c.e.B l + x.K.; h l K.V.u.sXBXx.; 1 6 9 6 1 < 1 6 6 5 6 M 5 v 6 7 7 6 6 6 t t < r 6 0 v g N J g 6 6 - 7 7 q q q 6 0 0 - 2 8 & k j < h # < < @ @ @ o c & o o     o o @ o ",
"          o o ; 3 g g k k r.c.v.tXtXj.t.o iXx.o * ; j E c J.h.y.Q l n s - ; * - M < - < > < 2 < < 1 7 1 7 1 1 v d g z k k k s < > 1 7 7 7 0 0 6 6 7 - < o W K V.n.4 @ & - O o & o 3 k o o o     o o @ o ",
"  5 iX      o & 3 s g g z ! r.a.N.rXuXtXt.pXf.h B * @ @ l h.n h E r.Q E A ^ h k 9 4 - : 1 1 < ; ; 4 g x k H n k O.N k s 0 7 < 7 1 1 2 0 0 6 7 7 < < < & < & & g n O & - @ F J = - d & o o o     o @ O o ",
"  o 5         o & ; - s h A Q w.w.g.yXBXFXBXe.E #.6 p + & Z @ - ; s l z V +.r.! r.Q ! E H N z A Q S D $.~ k k s O.m > 1 1 9 0 0 0 6 6 1 < 0 < < < < & & & - 4 # o @ @ - = 1 g s h O o O o     o o o o   ",
"                o o X @ 2 m ^ ^ A r.e.B.SXSXpXd.C G I G - = o o o o - @ @ - m ; d z z z A N ~ z z z z J h 3 < 1 > < 7 1 6 b 6 1 < 1 > & & 1 < @ i 3.y & 1 2 X O o @ < | - = d ; o o o o o     . o . X . ",
"                  o + 1 E.q.d n N E r.a.VXyXtXpXtXr.J ` X.p P w O o : o @ @ O @ @ & @ - & @ - - & - < * 4 < - 1 6 < < - < > > < ; - & * - = O o i 3.P # -     O o o O # < N d o o o o .     o o o o o   ",
"                      : E.0.@ & s h k h.pXe.a.a.f.b.c.d.+.o.;.8.%.| { q o o O = O O & @ & O & - - - v @ 9 7 < < > & & & < < < * - - - - & @ # - 2 1 q @   o o . @ o o ; k k & o o o o   X   o o o o     ",
"                    . # O - O @ @ 3 ; J.tXS y.Q S w.e.z.z.z.i.} *.3.;.>.o.] q - 1 O o @ - o = & & - - & & < = @ 0 & & * = ( v O - - - - - 1 1 < < @ e o   o o @ @ O s k N ; o o X o     [ . o o o       ",
"          X                 o o @ @ d aXi.h h z ! 5.-.j A r.f.a.S E ^ R =.+.@.| ;.X.y i r # 1 6 4 1 - - - & 1 1 - 1 < < - 9 2 1 1 1 - w 1 - & - o @ o     @   K W l N k l @ o o o         o o o   .     ",
"                              o o o 1 yX, s J.w.H _.0.x h h g k n g d E F H ~ y y U y u i 1 w 6 9 1 2 6 8 1 r r - < : 1 1 < - * - @ O 1 % & & @           o o d g s 3 ; o o   6 1       o o .       % X ",
"                                    k w.  @ C.Z < q n h h h z h ; p.iX3 v 0 d g g 3 3 * 1 6 - < < < < - @ @ @ @ & @ & & @ & @ & @ & @ O O @ o         o # o @ @ o O & o o o   1 <       + = & o     $ X ",
"    . .             a .             u.@ o .   @ @ . + & , u 0 ; < g ( < < > & - < < & * - & 7 4 = @ @ @ @ & & - - * - - & @ X O o @ @ @ o o         o O @ o o o @ @ @ o o @ X         o + = > = = > = = ",
"                                  > j   o o o o o o o + o 7 # @ O.M . < & & @ - 2 @ & & < 1 = - @ @ @ & & - = 0 { @ @ @ o 1 @ o o @ @ o           o X @ o o o @ - # o o o o         X + > > o o , f f > ",
"      . .       F <     X         C >       o o % % o . o o o > 4 < - @ @ @ @ @ @ @ @ = # # O O @ @ @ - & @ = X # o o o . o o o o o o             @ o o o @ @ o @ o o o .       o o o   + = = + > & = + ",
"                < .           . . D             X # o o o . . @ @ X o o @ o . + o O O O o @ # o o o o o X : o o . o o o o o o @         o   o @ o o o o 1 # o o o o . o                   + = o   o     "
};
